{
.formatVersion = 3;
axes = (
{
name = Weight;
tag = wght;
}
);
classes = (
{
code = "Decyr Elcyr vecyr gecyr decyr zhecyr zecyr icyr ishortcyr kacyr elcyr pecyr tecyr tsecyr shacyr shchacyr hardcyr ylongcyr softcyr yucyr";
name = locl_ss02;
},
{
code = "Decyr.loclBGR Elcyr.loclBGR vecyr.loclBGR gecyr.loclBGR decyr.loclBGR zhecyr.loclBGR zecyr.loclBGR icyr.loclBGR ishortcyr.loclBGR kacyr.loclBGR elcyr.loclBGR pecyr.loclBGR tecyr.loclBGR tsecyr.loclBGR shacyr.loclBGR shchacyr.loclBGR hardcyr.loclBGR ylongcyr.loclBGR softcyr.loclBGR yucyr.loclBGR";
name = locl_ss022;
},
{
code = "zero.numr one.numr two.numr three.numr four.numr five.numr six.numr seven.numr eight.numr nine.numr";
name = numr;
},
{
code = "Acyr Iecyr Icyr Ocyr Ucyr Ylongcyr Yucyr Yacyr Iocyr Iukrcyr Yukrcyr Eukrcyr acyr iecyr icyr ocyr ucyr ylongcyr yucyr yacyr iocyr iukrcyr yukrcyr eukrcyr";
name = liga3;
}
);
familyName = "Acari Sans";
customParameters = (
{
name = glyphOrder;
value = (
.notdef,
NULL,
CR,
space,
exclam,
quotedbl,
numbersign,
dollar,
percent,
ampersand,
quotesingle,
parenleft,
parenright,
asterisk,
plus,
comma,
hyphen,
period,
slash,
zero,
one,
two,
three,
four,
five,
six,
seven,
eight,
nine,
colon,
semicolon,
less,
equal,
greater,
question,
at,
A,
B,
C,
D,
E,
F,
G,
H,
I,
J,
K,
L,
M,
N,
O,
P,
Q,
R,
S,
T,
U,
V,
W,
X,
Y,
Z,
bracketleft,
backslash,
bracketright,
asciicircum,
underscore,
grave,
a,
b,
c,
d,
e,
f,
g,
h,
i,
j,
k,
l,
m,
n,
o,
p,
q,
r,
s,
t,
u,
v,
w,
x,
y,
z,
braceleft,
bar,
braceright,
asciitilde,
nbspace,
exclamdown,
cent,
sterling,
currency,
yen,
brokenbar,
section,
dieresis,
copyright,
ordfeminine,
guillemotleft,
logicalnot,
softhyphen,
registered,
macron,
degree,
plusminus,
twosuperior,
threesuperior,
acute,
micro,
paragraph,
periodcentered,
cedilla,
onesuperior,
ordmasculine,
guillemotright,
questiondown,
Agrave,
Aacute,
Acircumflex,
Atilde,
Adieresis,
Aring,
AE,
Ccedilla,
Egrave,
Eacute,
Ecircumflex,
Edieresis,
Igrave,
Iacute,
Icircumflex,
Idieresis,
Eth,
Ntilde,

glyphs = (
{
glyphname = .notdef;
layers = (
{
layerId = "52CC1650-7CEF-4847-8280-03AE9FE593CD";
shapes = (
{
closed = 1;
nodes = (
(100,0,l),
(1552,0,l),
(1552,1448,l),
(100,1448,l)
);
},
{
closed = 1;
nodes = (
(876,1334,l),
(1381,1334,l),
(1381,590,l),
(876,590,l)
);
},
{
closed = 1;
nodes = (
(775,1334,l),
(775,590,l),
(627,590,l),
(627,731,l),
(417,1044,l),
(417,590,l),
(270,590,l),
(270,1334,l),
(417,1334,l),
(627,1017,l),
(627,1334,l)
);
},
{
closed = 1;
nodes = (
(270,445,l),
(495,445,l),
(495,380,l),
(335,380,l),
(335,179,l),
(429,179,l),
(429,246,l),
(384,246,l),
(384,313,l),
(495,313,l),
(495,114,l),
(270,114,l)
);
},
{
closed = 1;
nodes = (
(543,445,l),
(609,445,l),
(609,179,l),
(743,179,l),
(743,114,l),
(543,114,l)
);
},
{
closed = 1;
nodes = (
(657,445,l),
(723,445,l),
(723,313,l),
(797,313,l),
(797,445,l),
(862,445,l),
(862,114,l),
(797,114,l),
(797,246,l),
(657,246,l)
);
},
{
closed = 1;
nodes = (
(916,445,l),
(1123,445,l),
(1123,246,l),
(981,246,l),
(981,114,l),
(916,114,l)
);
},
{
closed = 1;
nodes = (
(1177,445,l),
(1242,445,l),
(1242,313,l),
(1316,313,l),
(1316,445,l),
(1381,445,l),
(1381,114,l),
(1316,114,l),
(1316,246,l),
(1242,246,l),
(1242,114,l),
(1177,114,l)
);
},
{
closed = 1;
nodes = (
(1025,1186,l),
(1025,737,l),
(1235,737,l),
(1235,1186,l)
);
},
{
closed = 1;
nodes = (
(981,380,l),
(981,313,l),
(1056,313,l),
(1056,380,l)
);
}
);
width = 1652;
},
{
layerId = "42E87D12-3AB5-40D6-8370-BF79EAF40F29";
shapes = (
{
closed = 1;
nodes = (
(100,0,l),
(1552,0,l),
(1552,1448,l),
(100,1448,l)
);
},
{
closed = 1;
nodes = (
(876,1334,l),
(1381,1334,l),
(1381,590,l),
(876,590,l)
);
},
{
closed = 1;
nodes = (
(775,1334,l),
(775,590,l),
(627,590,l),
(627,731,l),
(417,1044,l),
(417,590,l),
(270,590,l),
(270,1334,l),
(417,1334,l),
(627,1017,l),
(627,1334,l)
);
},
{
closed = 1;
nodes = (
(270,445,l),
(495,445,l),
(495,380,l),
(335,380,l),
(335,179,l),
(429,179,l),
(429,246,l),
(384,246,l),
(384,313,l),
(495,313,l),
(495,114,l),
(270,114,l)
);
},
{
closed = 1;
nodes = (
(543,445,l),
(609,445,l),
(609,179,l),
(743,179,l),
(743,114,l),
(543,114,l)
);
},
{
closed = 1;
nodes = (
(657,445,l),
(723,445,l),
(723,313,l),
(797,313,l),
(797,445,l),
(862,445,l),
(862,114,l),
(797,114,l),
(797,246,l),
(657,246,l)
);
},
{
closed = 1;
nodes = (
(916,445,l),
(1123,445,l),
(1123,246,l),
(981,246,l),
(981,114,l),
(916,114,l)
);
},
{
closed = 1;
nodes = (
(1177,445,l),
(1242,445,l),
(1242,313,l),
(1316,313,l),
(1316,445,l),
(1381,445,l),
(1381,114,l),
(1316,114,l),
(1316,246,l),
(1242,246,l),
(1242,114,l),
(1177,114,l)
);
},
{
closed = 1;
nodes = (
(1025,1186,l),
(1025,737,l),
(1235,737,l),
(1235,1186,l)
);
},
{
closed = 1;
nodes = (
(981,380,l),
(981,313,l),
(1056,313,l),
(1056,380,l)
);
}
);
width = 1652;
},
{
layerId = "1C230A88-1131-4497-B97C-4D293C298785";
shapes = (
{
closed = 1;
nodes = (
(100,0,l),
(1552,0,l),
(1552,1448,l),
(100,1448,l)
);
},
{
closed = 1;
nodes = (
(876,1334,l),
(1381,1334,l),
(1381,590,l),
(876,590,l)
);
},
{
closed = 1;
nodes = (
(775,1334,l),
(775,590,l),
(627,590,l),
(627,731,l),
(417,1044,l),
(417,590,l),
(270,590,l),
(270,1334,l),
(417,1334,l),
(627,1017,l),
(627,1334,l)
);
},
{
closed = 1;
nodes = (
(270,445,l),
(495,445,l),
(495,380,l),
(335,380,l),
(335,179,l),
(429,179,l),
(429,246,l),
(384,246,l),
(384,313,l),
(495,313,l),
(495,114,l),
(270,114,l)
);
},
{
closed = 1;
nodes = (
(543,445,l),
(609,445,l),
(609,179,l),
(743,179,l),
(743,114,l),
(543,114,l)
);
},
{
closed = 1;
nodes = (
(657,445,l),
(723,445,l),
(723,313,l),
(797,313,l),
(797,445,l),
(862,445,l),
(862,114,l),
(797,114,l),
(797,246,l),
(657,246,l)
);
},
{
closed = 1;
nodes = (
(916,445,l),
(1123,445,l),
(1123,246,l),
(981,246,l),
(981,114,l),
(916,114,l)
);
},
{
closed = 1;
nodes = (
(1177,445,l),
(1242,445,l),
(1242,313,l),
(1316,313,l),
(1316,445,l),
(1381,445,l),
(1381,114,l),
(1316,114,l),
(1316,246,l),
(1242,246,l),
(1242,114,l),
(1177,114,l)
);
},
{
closed = 1;
nodes = (
(1025,1186,l),
(1025,737,l),
(1235,737,l),
(1235,1186,l)
);
},
{
closed = 1;
nodes = (
(981,380,l),
(981,313,l),
(1056,313,l),
(1056,380,l)
);
}
);
width = 1652;
}
);
},
{
glyphname = exclam;
layers = (
{
layerId = "52CC1650-7CEF-4847-8280-03AE9FE593CD";
shapes = (
{
closed = 1;
nodes = (
(435,458,l),
(464,1467,l),
(188,1467,l),
(218,458,l)
);
},
{
closed = 1;
nodes = (
(477,0,l),
(477,299,l),
(176,299,l),
(176,0,l)
);
}
);
width = 651;
},
{
layerId = "42E87D12-3AB5-40D6-8370-BF79EAF40F29";
shapes = (
{
closed = 1;
nodes = (
(385,397,l),
(414,1469,l),
(231,1469,l),
(259,397,l)
);
},
{
closed = 1;
nodes = (
(427,0,l),
(427,207,l),
(217,207,l),
(217,0,l)
);
}
);
width = 646;
},
{
layerId = "1C230A88-1131-4497-B97C-4D293C298785";
shapes = (
{
closed = 1;
nodes = (
(358,363,l),
(387,1469,l),
(258,1469,l),
(286,363,l)
);
},
{
closed = 1;
nodes = (
(400,0,l),
(400,153,l),
(244,153,l),
(244,0,l)
);
}
);
width = 644;
}
);
unicode = 33;
},
{
glyphname = quotedbl;
layers = (
{
layerId = "52CC1650-7CEF-4847-8280-03AE9FE593CD";
shapes = (
{
closed = 1;
nodes = (
(433,840,l),
(433,1447,l),
(196,1447,l),
(196,840,l)
);
},
{
closed = 1;
nodes = (
(808,840,l),
(808,1447,l),
(570,1447,l),
(570,840,l)
);
}
);
width = 1001;
},
{
layerId = "42E87D12-3AB5-40D6-8370-BF79EAF40F29";
shapes = (
{
closed = 1;
nodes = (
(379,992,l),
(379,1447,l),
(234,1447,l),
(234,992,l)
);
},
{
closed = 1;
nodes = (
(697,992,l),
(697,1447,l),
(549,1447,l),
(549,992,l)
);
}
);
width = 931;
},
{
layerId = "1C230A88-1131-4497-B97C-4D293C298785";
shapes = (
{
closed = 1;
nodes = (
(360,1081,l),
(360,1447,l),
(268,1447,l),
(268,1081,l)
);
},
{
closed = 1;
nodes = (
(643,1081,l),
(643,1447,l),
(547,1447,l),
(547,1081,l)
);
}
);
width = 910;
}
);
unicode = 34;
},
{
glyphname = numbersign;
layers = (
{
layerId = "52CC1650-7CEF-4847-8280-03AE9FE593CD";
shapes = (
{
closed = 1;
nodes = (
(885,0,l),
(979,401,l),
(1268,401,l),
(1268,614,l),
(1022,614,l),
(1070,854,l),
(1352,854,l),
(1352,1055,l),
(1114,1055,l),
(1210,1468,l),
(985,1468,l),
(891,1021,l),
(663,1021,l),
(762,1468,l),
(536,1468,l),
(439,1067,l),
(153,1067,l),
(153,854,l),
(396,854,l),
(347,614,l),
(69,614,l),
(69,414,l),
(304,414,l),
(212,0,l),
(436,0,l),
(528,446,l),
(756,446,l),
(660,0,l)
);
},
{
closed = 1;
nodes = (
(798,614,l),
(571,614,l),
(619,854,l),
(848,854,l)
);
}
);
width = 1420;
},
{
layerId = "42E87D12-3AB5-40D6-8370-BF79EAF40F29";
shapes = (
{
closed = 1;
nodes = (
(839,0,l),
(935,448,l),
(1214,448,l),
(1214,568,l),
(960,568,l),
(1028,901,l),
(1298,901,l),
(1298,1022,l),
(1053,1022,l),
(1147,1468,l),
(1016,1468,l),
(922,1020,l),
(601,1020,l),
(699,1468,l),
(566,1468,l),
(470,1022,l),
(191,1022,l),
(191,901,l),
(444,901,l),
(378,568,l),
(107,568,l),
(107,446,l),
(352,446,l),
(259,0,l),
(390,0,l),
(482,447,l),
(804,447,l),
(709,0,l)
);
},
{
closed = 1;
nodes = (
(829,568,l),
(509,568,l),
(576,901,l),
(896,901,l)
);
}
);
width = 1404;
},
{
layerId = "1C230A88-1131-4497-B97C-4D293C298785";
shapes = (
{
closed = 1;
nodes = (
(815,0,l),
(912,475,l),
(1185,475,l),
(1185,541,l),
(926,541,l),
(1005,929,l),
(1269,929,l),
(1269,1003,l),
(1019,1003,l),
(1111,1468,l),
(1036,1468,l),
(942,997,l),
(565,997,l),
(663,1468,l),
(586,1468,l),
(490,997,l),
(215,997,l),
(215,929,l),
(474,929,l),
(398,541,l),
(131,541,l),
(131,465,l),
(382,465,l),
(289,0,l),
(366,0,l),
(461,465,l),
(837,465,l),
(741,0,l)
);
},
{
closed = 1;
nodes = (
(850,541,l),
(473,541,l),
(553,929,l),
(926,929,l)
);
}
);
width = 1398;
}
);
unicode = 35;
},
{
glyphname = dollar;
layers = (
{
layerId = "52CC1650-7CEF-4847-8280-03AE9FE593CD";
shapes = (
{
closed = 1;
nodes = (
(63,402,l),
(98,176,o),
(285,32,o),
(493,-12,c),
(493,-252,l),
(736,-252,l),
(736,-17,l),
(957,12,o),
(1151,181,o),
(1151,416,cs),
(1151,733,o),
(924,808,o),
(671,905,cs),
(501,975,o),
(455,994,o),
(455,1081,cs),
(455,1168,o),
(545,1212,o),
(621,1212,cs),
(719,1212,o),
(790,1169,o),
(838,1085,c),
(1079,1225,l),
(1006,1357,o),
(893,1436,o),
(736,1466,c),
(736,1699,l),
(493,1699,l),
(493,1460,l),
(307,1413,o),
(159,1272,o),
(159,1073,cs),
(159,814,o),
(347,734,o),
(549,646,cs),
(630,610,o),
(855,526,o),
(855,421,cs),
(855,303,o),
(793,247,o),
(634,247,cs),
(471,247,o),
(373,323,o),
(352,460,c)
);
}
);
width = 1229;
},
{
layerId = "42E87D12-3AB5-40D6-8370-BF79EAF40F29";
shapes = (
{
closed = 1;
nodes = (
(107,387,l),
(146,155,o),
(325,14,o),
(546,-13,c),
(546,-239,l),
(689,-239,l),
(689,-16,l),
(927,2,o),
(1108,168,o),
(1108,401,cs),
(1108,684,o),
(889,764,o),
(666,847,c),
(493,916,o),
(375,959,o),
(375,1100,cs),
(375,1227,o),
(486,1313,o),
(617,1313,cs),
(743,1313,o),
(833,1259,o),
(896,1148,c),
(1043,1236,l),
(963,1379,o),
(843,1452,o),
(683,1469,c),
(683,1674,l),
(540,1674,l),
(540,1465,l),
(345,1435,o),
(194,1297,o),
(194,1094,cs),
(194,852,o),
(391,775,o),
(592,695,c),
(733,639,o),
(929,563,o),
(929,398,cs),
(929,245,o),
(821,144,o),
(629,144,cs),
(440,144,o),
(311,244,o),
(284,423,c)
);
}
);
width = 1229;
},
{
hints = (
{
horizontal = 1;
place = (-13,91);
type = Stem;
},
{
horizontal = 1;
place = (1364,90);
type = Stem;
},
{
place = (223,101);
type = Stem;
},
{
place = (973,99);
type = Stem;
}
);
layerId = "1C230A88-1131-4497-B97C-4D293C298785";
shapes = (
{
closed = 1;
nodes = (
(137,377,l),
(178,141,o),
(352,2,o),
(581,-14,c),
(581,-231,l),
(657,-231,l),
(657,-16,l),
(907,-4,o),
(1079,160,o),
(1079,391,cs),
(1079,651,o),
(866,735,o),
(663,809,c),
(487,877,o),
(321,936,o),
(321,1112,cs),
(321,1266,o),
(446,1380,o),
(614,1380,cs),
(759,1380,o),
(862,1319,o),
(935,1190,c),
(1019,1243,l),
(935,1393,o),
(810,1462,o),
(647,1471,c),
(647,1657,l),
(571,1657,l),
(571,1469,l),
(370,1450,o),
(217,1313,o),
(217,1108,cs),
(217,877,o),
(421,803,o),
(620,727,cs),
(802,658,o),
(978,588,o),
(978,383,cs),
(978,207,o),
(839,76,o),
(626,76,cs),
(419,76,o),
(270,191,o),
(239,399,c)
);
}
);
width = 1229;
}
);
unicode = 36;
},
{
glyphname = percent;
layers = (
{
layerId = "52CC1650-7CEF-4847-8280-03AE9FE593CD";
shapes = (
{
closed = 1;
nodes = (
(1089,-19,o),
(1209,123,o),
(1209,339,cs),
(1209,526,o),
(1074,679,o),
(908,679,cs),
(734,679,o),
(608,533,o),
(608,331,cs),
(608,128,o),
(733,-19,o),
(906,-19,cs)
);
},
{
closed = 1;
nodes = (
(855,186,o),
(816,248,o),
(816,331,cs),
(816,416,o),
(853,472,o),
(908,472,cs),
(965,472,o),
(999,420,o),
(999,330,cs),
(999,252,o),
(956,186,o),
(907,186,cs)
);
},
{
closed = 1;
nodes = (
(111,470,l),
(215,331,l),
(1131,992,l),
(1023,1128,l)
);
},
{
closed = 1;
nodes = (
(501,770,o),
(621,912,o),
(621,1128,cs),
(621,1315,o),
(486,1468,o),
(320,1468,cs),
(146,1468,o),
(20,1322,o),
(20,1120,cs),
(20,917,o),
(145,770,o),
(318,770,cs)
);
},
{
closed = 1;
nodes = (
(267,975,o),
(228,1037,o),
(228,1120,cs),
(228,1205,o),
(265,1261,o),
(320,1261,cs),
(377,1261,o),
(411,1209,o),
(411,1119,cs),
(411,1041,o),
(368,975,o),
(319,975,cs)
);
}
);
width = 1229;
},
{
layerId = "42E87D12-3AB5-40D6-8370-BF79EAF40F29";
shapes = (
{
closed = 1;
nodes = (
(1081,-20,o),
(1184,112,o),
(1184,309,cs),
(1184,492,o),
(1072,633,o),
(925,633,cs),
(775,633,o),
(669,498,o),
(669,305,cs),
(669,115,o),
(776,-20,o),
(928,-20,cs)
);
},
{
closed = 1;
nodes = (
(845,94,o),
(790,181,o),
(790,305,cs),
(790,430,o),
(845,516,o),
(925,516,cs),
(1003,516,o),
(1059,430,o),
(1059,307,cs),
(1059,185,o),
(1002,94,o),
(927,94,cs)
);
},
{
closed = 1;
nodes = (
(131,443,l),
(192,354,l),
(1100,1009,l),
(1034,1096,l)
);
},
{
closed = 1;
nodes = (
(457,816,o),
(560,947,o),
(560,1144,cs),
(560,1327,o),
(447,1468,o),
(301,1468,cs),
(151,1468,o),
(44,1333,o),
(44,1140,cs),
(44,950,o),
(152,816,o),
(304,816,cs)
);
},
{
closed = 1;
nodes = (
(221,929,o),
(166,1015,o),
(166,1140,cs),
(166,1264,o),
(221,1350,o),
(301,1350,cs),
(379,1350,o),
(434,1265,o),
(434,1142,cs),
(434,1020,o),
(378,929,o),
(303,929,cs)
);
}
);
width = 1229;
},
{
layerId = "1C230A88-1131-4497-B97C-4D293C298785";
shapes = (
{
closed = 1;
nodes = (
(1076,-20,o),
(1168,105,o),
(1168,289,cs),
(1168,470,o),
(1070,602,o),
(936,602,cs),
(802,602,o),
(709,475,o),
(709,288,cs),
(709,106,o),
(805,-20,o),
(942,-20,cs)
);
},
{
closed = 1;
nodes = (
(839,33,o),
(773,136,o),
(773,288,cs),
(773,439,o),
(839,545,o),
(936,545,cs),
(1029,545,o),
(1099,436,o),
(1099,291,cs),
(1099,141,o),
(1033,33,o),
(941,33,cs)
);
},
{
closed = 1;
nodes = (
(144,425,l),
(176,370,l),
(1079,1021,l),
(1041,1075,l)
);
},
{
closed = 1;
nodes = (
(427,846,o),
(519,971,o),
(519,1155,cs),
(519,1335,o),
(421,1468,o),
(288,1468,cs),
(154,1468,o),
(60,1340,o),
(60,1154,cs),
(60,972,o),
(156,846,o),
(294,846,cs)
);
},
{
closed = 1;
nodes = (
(191,899,o),
(124,1001,o),
(124,1154,cs),
(124,1304,o),
(191,1410,o),
(288,1410,cs),
(380,1410,o),
(450,1302,o),
(450,1157,cs),
(450,1006,o),
(385,899,o),
(292,899,cs)
);
}
);
width = 1229;
}
);
unicode = 37;
},
{
color = (153, 255, 154, 255);
glyphname = ampersand;
layers = (
{
layerId = "52CC1650-7CEF-4847-8280-03AE9FE593CD";
shapes = (
{
closed = 1;
nodes = (
(723,-20,o),
(867,26,o),
(990,124,c),
(1177,-87,l),
(1382,98,l),
(1169,333,l),
(1233,434,o),
(1269,551,o),
(1276,686,c),
(989,714,l),
(989,643,o),
(985,602,o),
(970,555,c),
(804,735,l),
(974,849,o),
(1054,971,o),
(1054,1117,cs),
(1054,1328,o),
(894,1468,o),
(656,1468,cs),
(401,1468,o),
(226,1324,o),
(226,1114,cs),
(226,992,o),
(281,882,o),
(388,783,c),
(162,658,o),
(63,526,o),
(63,349,cs),
(63,124,o),
(252,-20,o),
(546,-20,cs)
);
},
{
closed = 1;
nodes = (
(543,993,o),
(510,1059,o),
(510,1110,cs),
(510,1192,o),
(564,1246,o),
(648,1246,cs),
(731,1246,o),
(780,1196,o),
(780,1112,cs),
(780,1040,o),
(726,974,o),
(613,912,c)
);
},
{
closed = 1;
nodes = (
(430,217,o),
(346,280,o),
(346,372,cs),
(346,446,o),
(400,488,o),
(573,595,c),
(820,317,l),
(739,249,o),
(650,217,o),
(551,217,cs)
);
}
);
width = 1418;
},
{
layerId = "42E87D12-3AB5-40D6-8370-BF79EAF40F29";
shapes = (
{
closed = 1;
nodes = (
(710,-16,o),
(858,37,o),
(976,147,c),
(1164,-71,l),
(1288,38,l),
(1083,272,l),
(1160,382,o),
(1209,523,o),
(1229,693,c),
(1062,712,l),
(1048,582,o),
(1017,483,o),
(968,401,c),
(682,745,l),
(859,846,o),
(994,954,o),
(994,1130,cs),
(994,1325,o),
(841,1464,o),
(632,1464,cs),
(411,1464,o),
(244,1329,o),
(244,1129,cs),
(244,990,o),
(353,857,o),
(431,778,c),
(229,672,o),
(82,540,o),
(82,335,cs),
(82,116,o),
(260,-16,o),
(532,-16,cs)
);
},
{
closed = 1;
nodes = (
(509,922,o),
(414,1033,o),
(414,1129,cs),
(414,1247,o),
(502,1329,o),
(629,1329,cs),
(750,1329,o),
(830,1245,o),
(830,1128,cs),
(830,1003,o),
(716,928,o),
(567,853,c)
);
},
{
closed = 1;
nodes = (
(362,129,o),
(251,210,o),
(251,343,cs),
(251,481,o),
(369,569,o),
(541,665,c),
(873,263,l),
(781,173,o),
(667,129,o),
(530,129,cs)
);
}
);
width = 1358;
},
{
layerId = "1C230A88-1131-4497-B97C-4D293C298785";
shapes = (
{
closed = 1;
nodes = (
(702,-14,o),
(852,45,o),
(967,162,c),
(1155,-61,l),
(1225,-2,l),
(1026,231,l),
(1112,348,o),
(1169,504,o),
(1198,698,c),
(1110,711,l),
(1087,541,o),
(1038,403,o),
(967,299,c),
(600,752,l),
(782,844,o),
(954,942,o),
(954,1139,cs),
(954,1323,o),
(805,1462,o),
(616,1462,cs),
(418,1462,o),
(256,1333,o),
(256,1139,cs),
(256,989,o),
(401,840,o),
(459,774,c),
(274,682,o),
(94,549,o),
(94,326,cs),
(94,111,o),
(266,-14,o),
(522,-14,cs)
);
},
{
closed = 1;
nodes = (
(487,875,o),
(350,1016,o),
(350,1141,cs),
(350,1284,o),
(461,1385,o),
(616,1385,cs),
(762,1385,o),
(864,1278,o),
(864,1139,cs),
(864,979,o),
(709,897,o),
(537,813,c)
);
},
{
closed = 1;
nodes = (
(317,70,o),
(188,164,o),
(188,324,cs),
(188,504,o),
(348,623,o),
(520,711,c),
(909,227,l),
(809,123,o),
(678,70,o),
(516,70,cs)
);
}
);
width = 1318;
}
);
unicode = 38;
},
{
glyphname = quotesingle;
layers = (
{
layerId = "52CC1650-7CEF-4847-8280-03AE9FE593CD";
shapes = (
{
closed = 1;
nodes = (
(433,870,l),
(433,1477,l),
(196,1477,l),
(196,870,l)
);
}
);
width = 626;
},
{
layerId = "42E87D12-3AB5-40D6-8370-BF79EAF40F29";
shapes = (
{
closed = 1;
nodes = (
(383,1021,l),
(383,1477,l),
(237,1477,l),
(237,1021,l)
);
}
);
width = 621;
},
{
layerId = "1C230A88-1131-4497-B97C-4D293C298785";
shapes = (
{
closed = 1;
nodes = (
(356,1111,l),
(356,1477,l),
(264,1477,l),
(264,1111,l)
);
}
);
width = 619;
}
);
unicode = 39;
},
{
glyphname = parenleft;
layers = (
{
layerId = "52CC1650-7CEF-4847-8280-03AE9FE593CD";
shapes = (
{
closed = 1;
nodes = (
(55,362,o),
(167,54,o),
(376,-166,c),
(640,-166,l),
(421,123,o),
(333,365,o),
(333,724,cs),
(333,1084,o),
(421,1324,o),
(640,1614,c),
(376,1614,l),
(165,1396,o),
(55,1084,o),
(55,724,cs)
);
}
);
width = 640;
},
{
layerId = "42E87D12-3AB5-40D6-8370-BF79EAF40F29";
shapes = (
{
closed = 1;
nodes = (
(101,446,o),
(205,130,o),
(360,-51,c),
(501,-51,l),
(340,163,o),
(246,447,o),
(246,724,cs),
(246,1002,o),
(336,1269,o),
(501,1499,c),
(360,1499,l),
(198,1296,o),
(101,1013,o),
(101,724,cs)
);
}
);
width = 493;
},
{
layerId = "1C230A88-1131-4497-B97C-4D293C298785";
shapes = (
{
closed = 1;
nodes = (
(141,472,o),
(241,151,o),
(366,15,c),
(438,15,l),
(298,184,o),
(208,480,o),
(208,724,cs),
(208,971,o),
(288,1235,o),
(438,1434,c),
(366,1434,l),
(228,1256,o),
(141,965,o),
(141,724,cs)
);
}
);
width = 446;
}
);
unicode = 40;
},
{
glyphname = parenright;
layers = (
{
layerId = "52CC1650-7CEF-4847-8280-03AE9FE593CD";
shapes = (
{
closed = 1;
nodes = (
(585,1086,o),
(473,1394,o),
(264,1614,c),
(0,1614,l),
(219,1325,o),
(307,1083,o),
(307,724,cs),
(307,364,o),
(219,124,o),
(0,-166,c),
(264,-166,l),
(475,53,o),
(585,365,o),
(585,724,cs)
);
}
);
width = 640;
},
{
layerId = "42E87D12-3AB5-40D6-8370-BF79EAF40F29";
shapes = (
{
closed = 1;
nodes = (
(392,1002,o),
(288,1318,o),
(133,1499,c),
(-7,1499,l),
(153,1285,o),
(247,1001,o),
(247,724,cs),
(247,446,o),
(158,179,o),
(-7,-51,c),
(133,-51,l),
(295,152,o),
(392,435,o),
(392,724,cs)
);
}
);
width = 493;
},
{
layerId = "1C230A88-1131-4497-B97C-4D293C298785";
shapes = (
{
closed = 1;
nodes = (
(305,977,o),
(206,1297,o),
(80,1434,c),
(8,1434,l),
(149,1264,o),
(239,968,o),
(239,724,cs),
(239,478,o),
(158,213,o),
(8,15,c),
(80,15,l),
(219,192,o),
(305,484,o),
(305,724,cs)
);
}
);
width = 446;
}
);
unicode = 41;
},
{
glyphname = asterisk;
layers = (
{
layerId = "52CC1650-7CEF-4847-8280-03AE9FE593CD";
shapes = (
{
closed = 1;
nodes = (
(575,848,l),
(764,967,l),
(608,1115,l),
(831,1142,l),
(762,1335,l),
(557,1259,l),
(586,1447,l),
(353,1447,l),
(382,1259,l),
(177,1335,l),
(104,1142,l),
(328,1115,l),
(172,967,l),
(359,848,l),
(470,1051,l)
);
}
);
width = 936;
},
{
layerId = "42E87D12-3AB5-40D6-8370-BF79EAF40F29";
shapes = (
{
closed = 1;
nodes = (
(537,852,l),
(642,921,l),
(473,1116,l),
(728,1177,l),
(689,1289,l),
(445,1200,l),
(462,1447,l),
(331,1447,l),
(348,1200,l),
(105,1289,l),
(64,1177,l),
(319,1116,l),
(151,921,l),
(254,852,l),
(397,1075,l)
);
}
);
width = 793;
},
{
layerId = "21D58847-5E49-4EE6-A12C-3FA6271408C8";
associatedMasterId = "1C230A88-1131-4497-B97C-4D293C298785";
name = 1;
shapes = (
{
closed = 1;
nodes = (
(572,883,l),
(625,929,l),
(457,1148,l),
(708,1205,l),
(686,1282,l),
(450,1179,l),
(468,1447,l),
(406,1447,l),
(426,1179,l),
(188,1282,l),
(171,1205,l),
(415,1148,l),
(251,929,l),
(302,883,l),
(436,1137,l)
);
}
);
width = 877;
},
{
layerId = "1C230A88-1131-4497-B97C-4D293C298785";
shapes = (
{
closed = 1;
nodes = (
(512,855,l),
(561,890,l),
(383,1117,l),
(659,1201,l),
(641,1258,l),
(371,1160,l),
(379,1447,l),
(317,1447,l),
(326,1160,l),
(57,1258,l),
(37,1201,l),
(313,1117,l),
(137,890,l),
(184,855,l),
(348,1091,l)
);
}
);
width = 698;
}
);
unicode = 42;
},
{
glyphname = plus;
layers = (
{
layerId = "52CC1650-7CEF-4847-8280-03AE9FE593CD";
shapes = (
{
closed = 1;
nodes = (
(747,109,l),
(747,529,l),
(1215,529,l),
(1215,748,l),
(747,748,l),
(747,1170,l),
(532,1170,l),
(532,748,l),
(64,748,l),
(64,529,l),
(532,529,l),
(532,109,l)
);
}
);
width = 1278;
},
{
layerId = "42E87D12-3AB5-40D6-8370-BF79EAF40F29";
shapes = (
{
closed = 1;
nodes = (
(710,109,l),
(710,579,l),
(1179,579,l),
(1179,703,l),
(710,703,l),
(710,1169,l),
(586,1169,l),
(586,703,l),
(118,703,l),
(118,579,l),
(586,579,l),
(586,109,l)
);
}
);
width = 1297;
},
{
layerId = "1C230A88-1131-4497-B97C-4D293C298785";
shapes = (
{
closed = 1;
nodes = (
(686,109,l),
(686,607,l),
(1156,607,l),
(1156,676,l),
(686,676,l),
(686,1169,l),
(616,1169,l),
(616,676,l),
(148,676,l),
(148,607,l),
(616,607,l),
(616,109,l)
);
}
);
width = 1303;
}
);
unicode = 43;
},
{
glyphname = comma;
layers = (
{
layerId = "52CC1650-7CEF-4847-8280-03AE9FE593CD";
shapes = (
{
closed = 1;
nodes = (
(285,-302,l),
(550,270,l),
(228,270,l),
(92,-302,l)
);
}
);
width = 614;
},
{
layerId = "42E87D12-3AB5-40D6-8370-BF79EAF40F29";
shapes = (
{
closed = 1;
nodes = (
(242,-331,l),
(494,268,l),
(285,268,l),
(140,-331,l)
);
}
);
width = 614;
},
{
layerId = "1C230A88-1131-4497-B97C-4D293C298785";
shapes = (
{
closed = 1;
nodes = (
(219,-348,l),
(463,266,l),
(321,266,l),
(172,-348,l)
);
}
);
width = 614;
}
);
unicode = 44;
},
{
glyphname = hyphen;
layers = (
{
layerId = "52CC1650-7CEF-4847-8280-03AE9FE593CD";
shapes = (
{
closed = 1;
nodes = (
(763,493,l),
(763,709,l),
(137,709,l),
(137,493,l)
);
}
);
width = 900;
},
{
layerId = "42E87D12-3AB5-40D6-8370-BF79EAF40F29";
shapes = (
{
closed = 1;
nodes = (
(695,583,l),
(695,708,l),
(161,708,l),
(161,583,l)
);
}
);
width = 856;
},
{
layerId = "1C230A88-1131-4497-B97C-4D293C298785";
shapes = (
{
closed = 1;
nodes = (
(664,636,l),
(664,706,l),
(182,706,l),
(182,636,l)
);
}
);
width = 843;
}
);
leftKerningGroup = endash;
rightKerningGroup = endash1;
unicode = 45;
},
{
glyphname = period;
layers = (
{
layerId = "52CC1650-7CEF-4847-8280-03AE9FE593CD";
shapes = (
{
closed = 1;
nodes = (
(442,0,l),
(442,299,l),
(172,299,l),
(172,0,l)
);
}
);
width = 614;
},
{
layerId = "42E87D12-3AB5-40D6-8370-BF79EAF40F29";
shapes = (
{
closed = 1;
nodes = (
(435,0,l),
(435,207,l),
(227,207,l),
(227,0,l)
);
}
);
width = 614;
},
{
layerId = "1C230A88-1131-4497-B97C-4D293C298785";
shapes = (
{
closed = 1;
nodes = (
(438,0,l),
(438,153,l),
(267,153,l),
(267,0,l)
);
}
);
width = 614;
}
);
unicode = 46;
},
{
glyphname = slash;
layers = (
{
layerId = "52CC1650-7CEF-4847-8280-03AE9FE593CD";
shapes = (
{
closed = 1;
nodes = (
(205,-440,l),
(1017,1552,l),
(752,1552,l),
(-57,-440,l)
);
}
);
width = 959;
},
{
layerId = "42E87D12-3AB5-40D6-8370-BF79EAF40F29";
shapes = (
{
closed = 1;
nodes = (
(171,-441,l),
(945,1552,l),
(781,1552,l),
(5,-441,l)
);
}
);
width = 950;
},
{
layerId = "1C230A88-1131-4497-B97C-4D293C298785";
shapes = (
{
closed = 1;
nodes = (
(152,-441,l),
(907,1552,l),
(800,1552,l),
(43,-441,l)
);
}
);
width = 948;
}
);
unicode = 47;
},
{
glyphname = zero;
layers = (
{
layerId = "52CC1650-7CEF-4847-8280-03AE9FE593CD";
shapes = (
{
closed = 1;
nodes = (
(1099,-20,o),
(1147,424,o),
(1147,723,cs),
(1147,1001,o),
(1104,1452,o),
(613,1452,cs),
(124,1452,o),
(82,1001,o),
(82,723,cs),
(82,428,o),
(128,-20,o),
(615,-20,cs)
);
},
{
closed = 1;
nodes = (
(402,256,o),
(372,471,o),
(372,713,cs),
(372,965,o),
(402,1174,o),
(613,1174,cs),
(823,1174,o),
(858,967,o),
(858,713,cs),
(858,467,o),
(823,256,o),
(615,256,cs)
);
}
);
width = 1229;
},
{
layerId = "42E87D12-3AB5-40D6-8370-BF79EAF40F29";
shapes = (
{
closed = 1;
nodes = (
(1007,-15,o),
(1093,366,o),
(1093,723,cs),
(1093,1071,o),
(1009,1460,o),
(613,1460,cs),
(204,1460,o),
(137,1050,o),
(137,724,cs),
(137,393,o),
(208,-15,o),
(619,-15,cs)
);
},
{
closed = 1;
nodes = (
(374,151,o),
(316,418,o),
(316,719,cs),
(316,1027,o),
(373,1291,o),
(613,1291,cs),
(842,1291,o),
(915,1049,o),
(915,718,cs),
(915,394,o),
(842,151,o),
(619,151,cs)
);
}
);
width = 1229;
},
{
layerId = "1C230A88-1131-4497-B97C-4D293C298785";
shapes = (
{
closed = 1;
nodes = (
(945,-12,o),
(1057,328,o),
(1057,723,cs),
(1057,1118,o),
(945,1465,o),
(613,1465,cs),
(257,1465,o),
(174,1083,o),
(174,725,cs),
(174,370,o),
(261,-12,o),
(621,-12,cs)
);
},
{
closed = 1;
nodes = (
(355,81,o),
(278,382,o),
(278,723,cs),
(278,1068,o),
(353,1369,o),
(613,1369,cs),
(854,1369,o),
(953,1103,o),
(953,721,cs),
(953,345,o),
(854,81,o),
(621,81,cs)
);
}
);
width = 1229;
}
);
leftKerningGroup = zero;
unicode = 48;
},
{
glyphname = one;
layers = (
{
layerId = "52CC1650-7CEF-4847-8280-03AE9FE593CD";
shapes = (
{
closed = 1;
nodes = (
(558,0,l),
(851,0,l),
(851,1448,l),
(566,1448,l),
(566,1383,ls),
(566,1294,o),
(523,1238,o),
(421,1238,cs),
(176,1238,l),
(176,1012,l),
(589,1012,l),
(558,1043,l)
);
}
);
width = 1229;
},
{
layerId = "42E87D12-3AB5-40D6-8370-BF79EAF40F29";
shapes = (
{
closed = 1;
nodes = (
(633,0,l),
(810,0,l),
(810,1448,l),
(636,1448,l),
(636,1340,ls),
(636,1261,o),
(598,1222,o),
(513,1222,cs),
(250,1222,l),
(250,1082,l),
(667,1082,l),
(633,1129,l)
);
}
);
width = 1229;
},
{
layerId = "1C230A88-1131-4497-B97C-4D293C298785";
shapes = (
{
closed = 1;
nodes = (
(683,0,l),
(783,0,l),
(783,1448,l),
(683,1448,l),
(683,1311,ls),
(683,1239,o),
(648,1212,o),
(575,1212,cs),
(299,1212,l),
(299,1128,l),
(719,1128,l),
(683,1187,l)
);
}
);
width = 1229;
}
);
unicode = 49;
},
{
glyphname = two;
layers = (
{
layerId = "52CC1650-7CEF-4847-8280-03AE9FE593CD";
shapes = (
{
closed = 1;
nodes = (
(33,0,l),
(1168,0,l),
(1168,272,l),
(510,272,l),
(499,244,l),
(977,562,o),
(1098,748,o),
(1098,1032,cs),
(1098,1279,o),
(866,1466,o),
(627,1466,cs),
(308,1466,o),
(85,1189,o),
(89,908,c),
(380,893,l),
(378,1051,o),
(439,1198,o),
(616,1198,cs),
(731,1198,o),
(802,1131,o),
(802,1013,cs),
(802,758,o),
(258,291,o),
(33,229,c)
);
}
);
width = 1229;
},
{
layerId = "42E87D12-3AB5-40D6-8370-BF79EAF40F29";
shapes = (
{
closed = 1;
nodes = (
(110,0,l),
(1125,0,l),
(1125,165,l),
(377,165,l),
(372,149,l),
(760,431,o),
(1063,682,o),
(1063,1036,cs),
(1063,1290,o),
(870,1463,o),
(621,1463,cs),
(320,1463,o),
(136,1232,o),
(138,952,c),
(313,942,l),
(313,1145,o),
(406,1298,o),
(615,1298,cs),
(784,1298,o),
(885,1194,o),
(885,1027,cs),
(885,686,o),
(368,311,o),
(110,154,c)
);
}
);
width = 1229;
},
{
layerId = "1C230A88-1131-4497-B97C-4D293C298785";
shapes = (
{
closed = 1;
nodes = (
(162,0,l),
(1097,0,l),
(1097,94,l),
(288,94,l),
(288,85,l),
(615,343,o),
(1039,638,o),
(1039,1039,cs),
(1039,1297,o),
(872,1461,o),
(617,1461,cs),
(328,1461,o),
(170,1261,o),
(170,981,c),
(268,975,l),
(270,1207,o),
(384,1365,o),
(615,1365,cs),
(820,1365,o),
(941,1236,o),
(941,1037,cs),
(941,638,o),
(442,324,o),
(162,104,c)
);
}
);
width = 1229;
}
);
unicode = 50;
},
{
glyphname = three;
layers = (
{
layerId = "52CC1650-7CEF-4847-8280-03AE9FE593CD";
shapes = (
{
closed = 1;
nodes = (
(41,476,l),
(41,144,o),
(314,-20,o),
(614,-20,cs),
(872,-20,o),
(1154,145,o),
(1154,440,cs),
(1154,598,o),
(1087,711,o),
(967,789,c),
(1035,862,o),
(1075,964,o),
(1075,1067,cs),
(1075,1306,o),
(846,1468,o),
(604,1468,cs),
(343,1468,o),
(111,1299,o),
(111,1019,c),
(393,1001,l),
(392,1133,o),
(491,1188,o),
(599,1188,cs),
(722,1188,o),
(788,1131,o),
(788,1030,cs),
(788,954,o),
(749,892,o),
(643,892,cs),
(451,892,l),
(451,643,l),
(643,643,ls),
(758,643,o),
(866,597,o),
(866,459,cs),
(866,328,o),
(748,257,o),
(603,257,cs),
(440,257,o),
(327,349,o),
(327,491,c)
);
}
);
width = 1229;
},
{
layerId = "42E87D12-3AB5-40D6-8370-BF79EAF40F29";
shapes = (
{
closed = 1;
nodes = (
(82,445,l),
(82,146,o),
(316,-15,o),
(609,-15,cs),
(881,-15,o),
(1122,145,o),
(1122,423,cs),
(1122,629,o),
(974,732,o),
(810,781,c),
(929,825,o),
(1044,915,o),
(1044,1085,cs),
(1044,1310,o),
(843,1464,o),
(605,1464,cs),
(354,1464,o),
(151,1305,o),
(151,1051,c),
(323,1041,l),
(324,1201,o),
(441,1295,o),
(601,1295,cs),
(762,1295,o),
(870,1205,o),
(870,1065,cs),
(870,902,o),
(730,843,o),
(578,843,cs),
(476,843,l),
(476,689,l),
(578,689,ls),
(742,689,o),
(947,645,o),
(947,433,cs),
(947,256,o),
(801,151,o),
(606,151,cs),
(396,151,o),
(255,267,o),
(255,453,c)
);
}
);
width = 1229;
},
{
layerId = "1C230A88-1131-4497-B97C-4D293C298785";
shapes = (
{
closed = 1;
nodes = (
(110,424,l),
(110,148,o),
(318,-12,o),
(606,-12,cs),
(887,-12,o),
(1101,145,o),
(1101,411,cs),
(1101,650,o),
(899,746,o),
(706,775,c),
(858,800,o),
(1024,883,o),
(1024,1097,cs),
(1024,1313,o),
(841,1461,o),
(606,1461,cs),
(361,1461,o),
(178,1309,o),
(178,1072,c),
(276,1068,l),
(278,1247,o),
(407,1367,o),
(602,1367,cs),
(789,1367,o),
(924,1255,o),
(924,1089,cs),
(924,867,o),
(717,810,o),
(534,810,cs),
(492,810,l),
(492,719,l),
(534,719,ls),
(731,719,o),
(1001,677,o),
(1001,416,cs),
(1001,208,o),
(837,81,o),
(608,81,cs),
(367,81,o),
(207,212,o),
(207,428,c)
);
}
);
width = 1229;
}
);
rightKerningGroup = eight11;
unicode = 51;
},
{
glyphname = four;
layers = (
{
layerId = "52CC1650-7CEF-4847-8280-03AE9FE593CD";
shapes = (
{
closed = 1;
nodes = (
(957,0,l),
(957,322,l),
(1191,322,l),
(1191,596,l),
(957,596,l),
(957,1448,l),
(710,1448,l),
(-13,494,l),
(-13,322,l),
(664,322,l),
(664,0,l)
);
},
{
closed = 1;
nodes = (
(664,596,l),
(346,596,l),
(359,571,l),
(682,1019,l),
(664,1025,l)
);
}
);
width = 1229;
},
{
layerId = "42E87D12-3AB5-40D6-8370-BF79EAF40F29";
shapes = (
{
closed = 1;
nodes = (
(934,0,l),
(934,337,l),
(1171,337,l),
(1171,503,l),
(934,503,l),
(934,1448,l),
(769,1448,l),
(46,465,l),
(46,337,l),
(758,337,l),
(758,0,l)
);
},
{
closed = 1;
nodes = (
(758,503,l),
(233,503,l),
(244,475,l),
(770,1209,l),
(758,1213,l)
);
}
);
width = 1229;
},
{
layerId = "1C230A88-1131-4497-B97C-4D293C298785";
shapes = (
{
closed = 1;
nodes = (
(918,0,l),
(918,347,l),
(1157,347,l),
(1157,441,l),
(918,441,l),
(918,1448,l),
(808,1448,l),
(85,445,l),
(85,347,l),
(820,347,l),
(820,0,l)
);
},
{
closed = 1;
nodes = (
(820,441,l),
(158,441,l),
(168,411,l),
(829,1336,l),
(820,1338,l)
);
}
);
width = 1229;
}
);
unicode = 52;
},
{
glyphname = five;
layers = (
{
layerId = "52CC1650-7CEF-4847-8280-03AE9FE593CD";
shapes = (
{
closed = 1;
nodes = (
(63,435,l),
(117,153,o),
(322,-20,o),
(604,-20,cs),
(930,-20,o),
(1153,197,o),
(1153,514,cs),
(1153,816,o),
(961,1014,o),
(659,1014,cs),
(586,1014,o),
(516,1000,o),
(404,964,c),
(437,946,l),
(491,1202,l),
(454,1172,l),
(1088,1172,l),
(1088,1448,l),
(247,1448,l),
(101,674,l),
(374,616,l),
(413,685,o),
(513,740,o),
(600,740,cs),
(750,740,o),
(851,644,o),
(851,503,cs),
(851,347,o),
(760,253,o),
(614,253,cs),
(477,253,o),
(371,352,o),
(341,509,c)
);
}
);
width = 1229;
},
{
layerId = "42E87D12-3AB5-40D6-8370-BF79EAF40F29";
shapes = (
{
closed = 1;
nodes = (
(101,410,l),
(151,152,o),
(347,-17,o),
(605,-17,cs),
(904,-17,o),
(1119,206,o),
(1119,496,cs),
(1119,776,o),
(928,980,o),
(646,980,cs),
(536,980,o),
(427,940,o),
(318,846,c),
(344,837,l),
(430,1318,l),
(384,1282,l),
(1051,1282,l),
(1051,1448,l),
(279,1448,l),
(144,695,l),
(319,651,l),
(383,750,o),
(496,814,o),
(616,814,cs),
(808,814,o),
(936,678,o),
(936,492,cs),
(936,297,o),
(805,150,o),
(608,150,cs),
(433,150,o),
(305,273,o),
(271,449,c)
);
}
);
width = 1229;
},
{
layerId = "1C230A88-1131-4497-B97C-4D293C298785";
shapes = (
{
closed = 1;
nodes = (
(126,393,l),
(174,152,o),
(363,-15,o),
(606,-15,cs),
(887,-15,o),
(1097,212,o),
(1097,484,cs),
(1097,750,o),
(906,958,o),
(638,958,cs),
(502,958,o),
(367,900,o),
(261,767,c),
(282,765,l),
(390,1396,l),
(338,1355,l),
(1026,1355,l),
(1026,1448,l),
(301,1448,l),
(172,709,l),
(282,675,l),
(363,794,o),
(484,864,o),
(627,864,cs),
(847,864,o),
(993,700,o),
(993,484,cs),
(993,264,o),
(835,81,o),
(604,81,cs),
(403,81,o),
(261,220,o),
(224,409,c)
);
}
);
width = 1229;
}
);
unicode = 53;
},
{
glyphname = six;
layers = (
{
layerId = "52CC1650-7CEF-4847-8280-03AE9FE593CD";
shapes = (
{
closed = 1;
nodes = (
(899,-20,o),
(1162,203,o),
(1162,481,cs),
(1162,771,o),
(926,990,o),
(644,990,cs),
(634,990,o),
(620,988,o),
(611,981,c),
(603,961,l),
(934,1448,l),
(589,1448,l),
(150,743,ls),
(94,653,o),
(69,576,o),
(69,469,cs),
(69,171,o),
(357,-20,o),
(630,-20,cs)
);
},
{
closed = 1;
nodes = (
(504,261,o),
(361,347,o),
(361,485,cs),
(361,617,o),
(475,726,o),
(607,726,cs),
(748,726,o),
(870,633,o),
(870,485,cs),
(870,363,o),
(746,261,o),
(627,261,cs)
);
}
);
width = 1229;
},
{
layerId = "42E87D12-3AB5-40D6-8370-BF79EAF40F29";
shapes = (
{
closed = 1;
nodes = (
(906,-17,o),
(1139,197,o),
(1139,467,cs),
(1139,737,o),
(920,949,o),
(653,949,cs),
(589,949,o),
(531,927,o),
(484,890,c),
(487,873,l),
(848,1448,l),
(642,1448,l),
(205,723,ls),
(155,641,o),
(127,560,o),
(127,461,cs),
(127,183,o),
(372,-17,o),
(640,-17,cs)
);
},
{
closed = 1;
nodes = (
(463,153,o),
(305,285,o),
(305,468,cs),
(305,649,o),
(455,790,o),
(630,790,cs),
(812,790,o),
(963,655,o),
(963,468,cs),
(963,292,o),
(811,153,o),
(638,153,cs)
);
}
);
width = 1229;
},
{
layerId = "1C230A88-1131-4497-B97C-4D293C298785";
shapes = (
{
closed = 1;
nodes = (
(910,-15,o),
(1124,193,o),
(1124,457,cs),
(1124,714,o),
(916,922,o),
(659,922,cs),
(559,922,o),
(472,887,o),
(399,829,c),
(409,814,l),
(790,1448,l),
(677,1448,l),
(241,710,ls),
(195,633,o),
(166,550,o),
(166,455,cs),
(166,191,o),
(382,-15,o),
(646,-15,cs)
);
},
{
closed = 1;
nodes = (
(436,81,o),
(268,243,o),
(268,457,cs),
(268,671,o),
(441,833,o),
(646,833,cs),
(854,833,o),
(1025,669,o),
(1025,457,cs),
(1025,245,o),
(854,81,o),
(646,81,cs)
);
}
);
width = 1229;
}
);
unicode = 54;
},
{
glyphname = seven;
layers = (
{
layerId = "52CC1650-7CEF-4847-8280-03AE9FE593CD";
shapes = (
{
closed = 1;
nodes = (
(185,0,l),
(515,0,l),
(1164,1295,l),
(1164,1448,l),
(87,1448,l),
(87,1175,l),
(831,1175,l),
(814,1202,l)
);
}
);
width = 1229;
},
{
layerId = "42E87D12-3AB5-40D6-8370-BF79EAF40F29";
shapes = (
{
closed = 1;
nodes = (
(247,0,l),
(445,0,l),
(1142,1335,l),
(1142,1448,l),
(92,1448,l),
(92,1283,l),
(964,1283,l),
(944,1309,l)
);
}
);
width = 1229;
},
{
layerId = "1C230A88-1131-4497-B97C-4D293C298785";
shapes = (
{
closed = 1;
nodes = (
(288,0,l),
(399,0,l),
(1128,1361,l),
(1128,1448,l),
(95,1448,l),
(95,1355,l),
(1053,1355,l),
(1030,1380,l)
);
}
);
width = 1229;
}
);
unicode = 55;
},
{
glyphname = eight;
layers = (
{
layerId = "52CC1650-7CEF-4847-8280-03AE9FE593CD";
shapes = (
{
closed = 1;
nodes = (
(927,-20,o),
(1168,170,o),
(1168,426,cs),
(1168,579,o),
(1105,696,o),
(975,782,c),
(1054,861,o),
(1096,960,o),
(1096,1069,cs),
(1096,1288,o),
(878,1468,o),
(613,1468,cs),
(355,1468,o),
(133,1282,o),
(133,1065,cs),
(133,956,o),
(173,862,o),
(254,782,c),
(129,696,o),
(61,569,o),
(61,422,cs),
(61,174,o),
(298,-20,o),
(602,-20,cs)
);
},
{
closed = 1;
nodes = (
(505,898,o),
(428,964,o),
(428,1060,cs),
(428,1161,o),
(496,1221,o),
(609,1221,cs),
(734,1221,o),
(809,1161,o),
(809,1060,cs),
(809,961,o),
(734,898,o),
(617,898,cs)
);
},
{
closed = 1;
nodes = (
(452,236,o),
(353,314,o),
(353,438,cs),
(353,560,o),
(454,638,o),
(611,638,cs),
(772,638,o),
(872,561,o),
(872,434,cs),
(872,313,o),
(771,236,o),
(611,236,cs)
);
}
);
width = 1229;
},
{
layerId = "42E87D12-3AB5-40D6-8370-BF79EAF40F29";
shapes = (
{
closed = 1;
nodes = (
(883,-17,o),
(1116,144,o),
(1116,415,cs),
(1116,588,o),
(1025,721,o),
(865,786,c),
(974,843,o),
(1040,952,o),
(1040,1083,cs),
(1040,1303,o),
(853,1465,o),
(617,1465,cs),
(399,1465,o),
(191,1312,o),
(191,1090,cs),
(191,951,o),
(257,845,o),
(366,786,c),
(206,722,o),
(111,584,o),
(111,413,cs),
(111,146,o),
(347,-17,o),
(610,-17,cs)
);
},
{
closed = 1;
nodes = (
(470,849,o),
(369,943,o),
(369,1083,cs),
(369,1226,o),
(480,1309,o),
(615,1309,cs),
(767,1309,o),
(867,1216,o),
(867,1076,cs),
(867,942,o),
(766,849,o),
(619,849,cs)
);
},
{
closed = 1;
nodes = (
(433,143,o),
(288,240,o),
(288,425,cs),
(288,592,o),
(420,703,o),
(613,703,cs),
(807,703,o),
(940,592,o),
(940,423,cs),
(940,240,o),
(794,143,o),
(613,143,cs)
);
}
);
width = 1229;
},
{
layerId = "1C230A88-1131-4497-B97C-4D293C298785";
shapes = (
{
closed = 1;
nodes = (
(854,-15,o),
(1082,127,o),
(1082,407,cs),
(1082,594,o),
(972,738,o),
(791,788,c),
(920,831,o),
(1003,946,o),
(1003,1093,cs),
(1003,1313,o),
(837,1463,o),
(619,1463,cs),
(428,1463,o),
(230,1332,o),
(230,1106,cs),
(230,948,o),
(313,833,o),
(440,788,c),
(257,740,o),
(145,594,o),
(145,407,cs),
(145,127,o),
(380,-15,o),
(615,-15,cs)
);
},
{
closed = 1;
nodes = (
(446,817,o),
(330,929,o),
(330,1099,cs),
(330,1270,o),
(469,1367,o),
(619,1367,cs),
(789,1367,o),
(906,1253,o),
(906,1087,cs),
(906,929,o),
(787,817,o),
(621,817,cs)
);
},
{
closed = 1;
nodes = (
(421,81,o),
(245,191,o),
(245,416,cs),
(245,613,o),
(397,746,o),
(615,746,cs),
(831,746,o),
(985,613,o),
(985,416,cs),
(985,191,o),
(810,81,o),
(615,81,cs)
);
}
);
width = 1229;
}
);
rightKerningGroup = eight11;
unicode = 56;
},
{
glyphname = nine;
layers = (
{
layerId = "52CC1650-7CEF-4847-8280-03AE9FE593CD";
shapes = (
{
closed = 1;
nodes = (
(295,0,l),
(640,0,l),
(1079,705,ls),
(1135,795,o),
(1160,872,o),
(1160,979,cs),
(1160,1277,o),
(872,1468,o),
(599,1468,cs),
(330,1468,o),
(67,1245,o),
(67,967,cs),
(67,677,o),
(303,458,o),
(585,458,cs),
(595,458,o),
(609,460,o),
(618,467,c),
(626,487,l)
);
},
{
closed = 1;
nodes = (
(481,722,o),
(359,815,o),
(359,963,cs),
(359,1085,o),
(483,1187,o),
(602,1187,cs),
(725,1187,o),
(868,1101,o),
(868,963,cs),
(868,831,o),
(754,722,o),
(622,722,cs)
);
}
);
width = 1229;
},
{
layerId = "42E87D12-3AB5-40D6-8370-BF79EAF40F29";
shapes = (
{
closed = 1;
nodes = (
(401,0,l),
(606,0,l),
(1044,725,ls),
(1094,807,o),
(1121,888,o),
(1121,987,cs),
(1121,1265,o),
(876,1465,o),
(609,1465,cs),
(343,1465,o),
(109,1251,o),
(109,981,cs),
(109,711,o),
(328,499,o),
(595,499,cs),
(659,499,o),
(717,521,o),
(764,558,c),
(762,575,l)
);
},
{
closed = 1;
nodes = (
(437,658,o),
(285,793,o),
(285,980,cs),
(285,1156,o),
(437,1295,o),
(610,1295,cs),
(785,1295,o),
(943,1163,o),
(943,980,cs),
(943,799,o),
(794,658,o),
(618,658,cs)
);
}
);
width = 1229;
},
{
layerId = "1C230A88-1131-4497-B97C-4D293C298785";
shapes = (
{
closed = 1;
nodes = (
(471,0,l),
(584,0,l),
(1020,738,ls),
(1066,815,o),
(1095,898,o),
(1095,993,cs),
(1095,1257,o),
(879,1463,o),
(615,1463,cs),
(351,1463,o),
(137,1255,o),
(137,991,cs),
(137,734,o),
(345,526,o),
(602,526,cs),
(702,526,o),
(789,561,o),
(862,619,c),
(852,634,l)
);
},
{
closed = 1;
nodes = (
(407,615,o),
(236,779,o),
(236,991,cs),
(236,1203,o),
(407,1367,o),
(615,1367,cs),
(825,1367,o),
(993,1205,o),
(993,991,cs),
(993,777,o),
(820,615,o),
(615,615,cs)
);
}
);
width = 1229;
}
);
unicode = 57;
},
{
glyphname = colon;
layers = (
{
layerId = "52CC1650-7CEF-4847-8280-03AE9FE593CD";
shapes = (
{
closed = 1;
nodes = (
(458,678,l),
(458,977,l),
(157,977,l),
(157,678,l)
);
},
{
closed = 1;
nodes = (
(458,0,l),
(458,299,l),
(157,299,l),
(157,0,l)
);
}
);
width = 614;
},
{
layerId = "42E87D12-3AB5-40D6-8370-BF79EAF40F29";
shapes = (
{
closed = 1;
nodes = (
(437,770,l),
(437,976,l),
(229,976,l),
(229,770,l)
);
},
{
closed = 1;
nodes = (
(437,0,l),
(437,207,l),
(229,207,l),
(229,0,l)
);
}
);
width = 614;
},
{
layerId = "1C230A88-1131-4497-B97C-4D293C298785";
shapes = (
{
closed = 1;
nodes = (
(433,823,l),
(433,976,l),
(278,976,l),
(278,823,l)
);
},
{
closed = 1;
nodes = (
(433,0,l),
(433,153,l),
(278,153,l),
(278,0,l)
);
}
);
width = 614;
}
);
unicode = 58;
},
{
glyphname = semicolon;
layers = (
{
layerId = "52CC1650-7CEF-4847-8280-03AE9FE593CD";
shapes = (
{
closed = 1;
nodes = (
(457,678,l),
(457,977,l),
(158,977,l),
(158,678,l)
);
},
{
closed = 1;
nodes = (
(263,-302,l),
(527,270,l),
(206,270,l),
(68,-302,l)
);
}
);
width = 614;
},
{
layerId = "42E87D12-3AB5-40D6-8370-BF79EAF40F29";
shapes = (
{
closed = 1;
nodes = (
(450,770,l),
(450,976,l),
(241,976,l),
(241,770,l)
);
},
{
closed = 1;
nodes = (
(222,-331,l),
(474,268,l),
(265,268,l),
(120,-331,l)
);
}
);
width = 614;
},
{
layerId = "1C230A88-1131-4497-B97C-4D293C298785";
shapes = (
{
closed = 1;
nodes = (
(450,823,l),
(450,976,l),
(294,976,l),
(294,823,l)
);
},
{
closed = 1;
nodes = (
(203,-348,l),
(447,266,l),
(305,266,l),
(154,-348,l)
);
}
);
width = 614;
}
);
unicode = 59;
},
{
glyphname = less;
layers = (
{
layerId = "52CC1650-7CEF-4847-8280-03AE9FE593CD";
shapes = (
{
closed = 1;
nodes = (
(1066,149,l),
(1186,354,l),
(485,690,l),
(1186,1026,l),
(1066,1231,l),
(24,690,l)
);
}
);
width = 1277;
},
{
layerId = "42E87D12-3AB5-40D6-8370-BF79EAF40F29";
shapes = (
{
closed = 1;
nodes = (
(1028,172,l),
(1102,299,l),
(370,690,l),
(1102,1080,l),
(1028,1208,l),
(97,690,l)
);
}
);
width = 1242;
},
{
layerId = "1C230A88-1131-4497-B97C-4D293C298785";
shapes = (
{
closed = 1;
nodes = (
(1011,185,l),
(1058,266,l),
(307,690,l),
(1058,1113,l),
(1011,1194,l),
(146,690,l)
);
}
);
width = 1231;
}
);
unicode = 60;
},
{
glyphname = equal;
layers = (
{
layerId = "52CC1650-7CEF-4847-8280-03AE9FE593CD";
shapes = (
{
closed = 1;
nodes = (
(1089,761,l),
(1089,1000,l),
(212,1000,l),
(212,761,l)
);
},
{
closed = 1;
nodes = (
(1089,375,l),
(1089,615,l),
(212,615,l),
(212,375,l)
);
}
);
width = 1299;
},
{
layerId = "42E87D12-3AB5-40D6-8370-BF79EAF40F29";
shapes = (
{
closed = 1;
nodes = (
(1040,791,l),
(1040,939,l),
(253,939,l),
(253,791,l)
);
},
{
closed = 1;
nodes = (
(1040,437,l),
(1040,584,l),
(253,584,l),
(253,437,l)
);
}
);
width = 1295;
},
{
layerId = "1C230A88-1131-4497-B97C-4D293C298785";
shapes = (
{
closed = 1;
nodes = (
(1013,808,l),
(1013,903,l),
(280,903,l),
(280,808,l)
);
},
{
closed = 1;
nodes = (
(1013,473,l),
(1013,565,l),
(280,565,l),
(280,473,l)
);
}
);
width = 1293;
}
);
unicode = 61;
},
{
glyphname = greater;
layers = (
{
layerId = "52CC1650-7CEF-4847-8280-03AE9FE593CD";
shapes = (
{
closed = 1;
nodes = (
(211,149,l),
(1254,690,l),
(211,1231,l),
(91,1026,l),
(792,690,l),
(91,354,l)
);
}
);
width = 1277;
},
{
layerId = "42E87D12-3AB5-40D6-8370-BF79EAF40F29";
shapes = (
{
closed = 1;
nodes = (
(213,172,l),
(1144,690,l),
(213,1208,l),
(140,1080,l),
(872,690,l),
(140,299,l)
);
}
);
width = 1242;
},
{
layerId = "1C230A88-1131-4497-B97C-4D293C298785";
shapes = (
{
closed = 1;
nodes = (
(220,185,l),
(1085,690,l),
(220,1194,l),
(174,1113,l),
(925,690,l),
(174,266,l)
);
}
);
width = 1231;
}
);
unicode = 62;
},
{
glyphname = question;
layers = (
{
layerId = "52CC1650-7CEF-4847-8280-03AE9FE593CD";
shapes = (
{
closed = 1;
nodes = (
(663,0,l),
(663,299,l),
(361,299,l),
(361,0,l)
);
},
{
closed = 1;
nodes = (
(641,444,l),
(641,475,ls),
(641,723,o),
(974,694,o),
(974,1055,cs),
(974,1341,o),
(764,1450,o),
(532,1450,cs),
(243,1450,o),
(45,1280,o),
(45,977,c),
(317,977,l),
(315,1120,o),
(383,1194,o),
(526,1194,cs),
(639,1194,o),
(706,1151,o),
(706,1061,cs),
(706,864,o),
(381,868,o),
(381,498,cs),
(381,444,l)
);
}
);
width = 1035;
},
{
layerId = "42E87D12-3AB5-40D6-8370-BF79EAF40F29";
shapes = (
{
closed = 1;
nodes = (
(636,0,l),
(636,207,l),
(427,207,l),
(427,0,l)
);
},
{
closed = 1;
nodes = (
(602,410,l),
(602,536,ls),
(602,790,o),
(958,741,o),
(958,1095,cs),
(958,1351,o),
(776,1468,o),
(534,1468,cs),
(272,1468,o),
(94,1314,o),
(92,1052,c),
(249,1052,l),
(249,1220,o),
(352,1320,o),
(530,1320,cs),
(702,1320,o),
(802,1243,o),
(802,1097,cs),
(802,843,o),
(450,878,o),
(450,548,cs),
(450,410,l)
);
}
);
width = 1061;
},
{
hints = (
{
horizontal = 1;
place = (-21,164);
type = Stem;
},
{
horizontal = 1;
place = (1378,75);
type = Stem;
},
{
place = (393,164);
type = Stem;
},
{
place = (437,78);
type = Stem;
},
{
place = (809,80);
type = Stem;
}
);
layerId = "1C230A88-1131-4497-B97C-4D293C298785";
shapes = (
{
closed = 1;
nodes = (
(554,0,l),
(554,153,l),
(399,153,l),
(399,0,l)
);
},
{
closed = 1;
nodes = (
(517,389,l),
(517,561,ls),
(517,817,o),
(888,757,o),
(888,1105,cs),
(888,1345,o),
(724,1468,o),
(476,1468,cs),
(229,1468,o),
(63,1320,o),
(63,1085,c),
(149,1085,l),
(151,1269,o),
(274,1384,o),
(474,1384,cs),
(683,1384,o),
(802,1286,o),
(802,1107,cs),
(802,819,o),
(433,870,o),
(433,567,cs),
(433,389,l)
);
}
);
width = 954;
}
);
unicode = 63;
},
{
glyphname = at;
layers = (
{
layerId = "52CC1650-7CEF-4847-8280-03AE9FE593CD";
shapes = (
{
closed = 1;
nodes = (
(82,-25,o),
(526,-356,o),
(1013,-356,cs),
(1132,-356,o),
(1224,-339,o),
(1335,-302,c),
(1261,-96,l),
(1175,-124,o),
(1088,-136,o),
(999,-136,cs),
(631,-136,o),
(297,139,o),
(297,538,cs),
(297,958,o),
(612,1259,o),
(1031,1259,cs),
(1470,1259,o),
(1751,984,o),
(1751,557,cs),
(1751,406,o),
(1703,132,o),
(1478,132,cs),
(1402,132,o),
(1394,174,o),
(1394,238,cs),
(1394,359,o),
(1454,631,o),
(1497,815,c),
(1491,787,l),
(1511,866,o),
(1535,962,o),
(1548,1045,c),
(1329,1045,l),
(1314,979,l),
(1252,1058,o),
(1165,1096,o),
(1051,1096,cs),
(716,1096,o),
(546,711,o),
(546,443,cs),
(546,250,o),
(657,35,o),
(890,35,cs),
(1005,35,o),
(1103,70,o),
(1188,139,c),
(1224,-13,o),
(1324,-87,o),
(1482,-87,cs),
(1825,-87,o),
(1964,287,o),
(1964,552,cs),
(1964,1040,o),
(1594,1469,o),
(1029,1469,cs),
(500,1469,o),
(82,1082,o),
(82,535,cs)
);
},
{
closed = 1;
nodes = (
(804,253,o),
(752,315,o),
(752,442,cs),
(752,627,o),
(863,870,o),
(1082,870,cs),
(1196,870,o),
(1242,802,o),
(1242,683,cs),
(1242,511,o),
(1139,253,o),
(913,253,cs)
);
}
);
width = 2043;
},
{
layerId = "42E87D12-3AB5-40D6-8370-BF79EAF40F29";
shapes = (
{
closed = 1;
nodes = (
(152,9,o),
(526,-357,o),
(1052,-357,cs),
(1164,-357,o),
(1267,-339,o),
(1362,-304,c),
(1307,-159,l),
(1229,-186,o),
(1144,-199,o),
(1054,-199,cs),
(608,-199,o),
(303,99,o),
(303,531,cs),
(303,992,o),
(621,1318,o),
(1072,1318,cs),
(1505,1318,o),
(1821,1002,o),
(1821,566,cs),
(1821,281,o),
(1696,92,o),
(1508,92,cs),
(1424,92,o),
(1378,147,o),
(1378,247,cs),
(1378,324,o),
(1388,403,o),
(1411,503,cs),
(1462,730,ls),
(1488,845,o),
(1512,947,o),
(1530,1015,c),
(1371,1015,l),
(1351,916,l),
(1306,1012,o),
(1206,1065,o),
(1068,1065,cs),
(801,1065,o),
(574,782,o),
(574,447,cs),
(574,214,o),
(703,65,o),
(902,65,cs),
(1035,65,o),
(1153,119,o),
(1240,221,c),
(1224,58,o),
(1338,-57,o),
(1513,-57,cs),
(1784,-57,o),
(1973,200,o),
(1973,570,cs),
(1973,1088,o),
(1592,1466,o),
(1072,1466,cs),
(540,1466,o),
(152,1071,o),
(152,527,cs)
);
},
{
closed = 1;
nodes = (
(803,221,o),
(737,300,o),
(737,456,cs),
(737,717,o),
(900,936,o),
(1096,936,cs),
(1223,936,o),
(1289,855,o),
(1289,703,cs),
(1289,440,o),
(1128,221,o),
(934,221,cs)
);
}
);
width = 2120;
},
{
layerId = "1C230A88-1131-4497-B97C-4D293C298785";
shapes = (
{
closed = 1;
nodes = (
(182,2,o),
(543,-357,o),
(1065,-357,cs),
(1173,-357,o),
(1274,-341,o),
(1368,-306,c),
(1324,-197,l),
(1248,-224,o),
(1159,-237,o),
(1067,-237,cs),
(606,-237,o),
(295,72,o),
(295,527,cs),
(295,1013,o),
(621,1356,o),
(1087,1356,cs),
(1532,1356,o),
(1853,1028,o),
(1853,570,cs),
(1853,262,o),
(1720,63,o),
(1517,63,cs),
(1424,63,o),
(1359,141,o),
(1359,251,cs),
(1359,335,o),
(1371,422,o),
(1398,543,cs),
(1435,703,ls),
(1469,849,o),
(1488,928,o),
(1507,998,c),
(1386,998,l),
(1366,887,l),
(1326,991,o),
(1221,1048,o),
(1066,1048,cs),
(801,1048,o),
(576,769,o),
(576,440,cs),
(576,223,o),
(699,82,o),
(891,82,cs),
(1045,82,o),
(1172,146,o),
(1260,270,c),
(1220,101,o),
(1341,-40,o),
(1522,-40,cs),
(1788,-40,o),
(1967,209,o),
(1967,580,cs),
(1967,1095,o),
(1598,1466,o),
(1087,1466,cs),
(564,1466,o),
(182,1069,o),
(182,523,cs)
);
},
{
closed = 1;
nodes = (
(790,202,o),
(718,287,o),
(718,456,cs),
(718,723,o),
(889,949,o),
(1094,949,cs),
(1232,949,o),
(1308,859,o),
(1308,695,cs),
(1308,427,o),
(1138,202,o),
(934,202,cs)
);
}
);
width = 2144;
}
);
unicode = 64;
},
{
glyphname = A;
layers = (
{
layerId = "52CC1650-7CEF-4847-8280-03AE9FE593CD";
shapes = (
{
closed = 1;
nodes = (
(1398,0,l,{name = .av01;}),
(807,1448,l),
(586,1448,l),
(-8,0,l,{name = .av02;}),
(316,0,l),
(430,314,l,{name = .dv01;}),
(965,314,l),
(1076,0,l)
);
},
{
closed = 1;
nodes = (
(862,565,l,{name = .av03;}),
(531,565,l,{name = .dv02;}),
(698,1010,l)
);
}
);
width = 1391;
},
{
layerId = "42E87D12-3AB5-40D6-8370-BF79EAF40F29";
shapes = (
{
closed = 1;
nodes = (
(1282,0,l,{name = .av01;}),
(738,1448,l),
(604,1448,l),
(55,0,l,{name = .av02;}),
(245,0,l),
(357,314,l,{name = .dv01;}),
(985,314,l),
(1096,0,l)
);
},
{
closed = 1;
nodes = (
(926,471,l,{name = .av03;}),
(415,471,l,{name = .dv02;}),
(673,1192,l)
);
}
);
width = 1338;
},
{
layerId = "1C230A88-1131-4497-B97C-4D293C298785";
shapes = (
{
closed = 1;
nodes = (
(1223,0,l,{name = .av01;}),
(705,1448,l),
(623,1448,l),
(101,0,l,{name = .av02;}),
(211,0,l),
(321,314,l,{name = .dv01;}),
(1005,314,l),
(1116,0,l)
);
},
{
closed = 1;
nodes = (
(970,416,l,{name = .av03;}),
(354,416,l,{name = .dv02;}),
(666,1299,l)
);
}
);
width = 1323;
}
);
leftKerningGroup = A2;
rightKerningGroup = A;
unicode = 65;
},
{
color = 1;
glyphname = B;
layers = (
{
layerId = "52CC1650-7CEF-4847-8280-03AE9FE593CD";
shapes = (
{
closed = 1;
nodes = (
(724,0,ls),
(1019,0,o),
(1201,164,o),
(1201,432,cs),
(1201,603,o),
(1131,722,o),
(977,786,c),
(1068,848,o),
(1122,953,o),
(1122,1082,cs),
(1122,1309,o),
(944,1448,o),
(649,1448,cs),
(117,1448,l),
(117,0,l)
);
},
{
closed = 1;
nodes = (
(429,607,l),
(702,607,ls),
(821,607,o),
(889,550,o),
(889,446,cs),
(889,339,o),
(826,286,o),
(698,286,cs),
(429,286,l)
);
},
{
closed = 1;
nodes = (
(429,1163,l),
(649,1163,ls),
(752,1163,o),
(810,1115,o),
(810,1032,cs),
(810,940,o),
(750,886,o),
(652,886,cs),
(429,886,l)
);
}
);
width = 1264;
},
{
layerId = "42E87D12-3AB5-40D6-8370-BF79EAF40F29";
shapes = (
{
closed = 1;
nodes = (
(663,0,ls),
(960,0,o),
(1129,148,o),
(1129,410,cs),
(1129,600,o),
(1040,727,o),
(871,774,c),
(986,828,o),
(1054,941,o),
(1054,1086,cs),
(1054,1313,o),
(890,1448,o),
(613,1448,cs),
(153,1448,l),
(153,0,l)
);
},
{
closed = 1;
nodes = (
(331,669,l),
(691,669,ls),
(856,669,o),
(951,577,o),
(951,416,cs),
(951,248,o),
(851,163,o),
(650,163,cs),
(331,163,l)
);
},
{
closed = 1;
nodes = (
(331,1285,l),
(613,1285,ls),
(782,1285,o),
(877,1203,o),
(877,1061,cs),
(877,918,o),
(787,829,o),
(644,829,cs),
(331,829,l)
);
}
);
width = 1226;
},
{
layerId = "1C230A88-1131-4497-B97C-4D293C298785";
shapes = (
{
closed = 1;
nodes = (
(629,0,ls),
(926,0,o),
(1088,139,o),
(1088,397,cs),
(1088,599,o),
(988,730,o),
(810,767,c),
(940,817,o),
(1016,934,o),
(1016,1089,cs),
(1016,1315,o),
(859,1448,o),
(593,1448,cs),
(173,1448,l),
(173,0,l)
);
},
{
closed = 1;
nodes = (
(276,704,l),
(685,704,ls),
(876,704,o),
(986,593,o),
(986,399,cs),
(986,196,o),
(865,93,o),
(623,93,cs),
(276,93,l)
);
},
{
closed = 1;
nodes = (
(276,1355,l),
(593,1355,ls),
(799,1355,o),
(915,1253,o),
(915,1077,cs),
(915,906,o),
(808,796,o),
(639,796,cs),
(276,796,l)
);
}
);
width = 1205;
}
);
leftKerningGroup = B;
unicode = 66;
},
{
color = 1;
glyphname = C;
leftMetricsKey = O;
layers = (
{
layerId = "52CC1650-7CEF-4847-8280-03AE9FE593CD";
shapes = (
{
closed = 1;
nodes = (
(1082,-20,o),
(1316,146,o),
(1413,416,c),
(1126,518,l),
(1069,363,o),
(944,271,o),
(774,271,cs),
(540,271,o),
(389,441,o),
(389,725,cs),
(389,1007,o),
(540,1177,o),
(774,1177,cs),
(944,1177,o),
(1069,1085,o),
(1126,930,c),
(1413,1033,l),
(1316,1302,o),
(1082,1468,o),
(774,1468,cs),
(364,1468,o),
(84,1170,o),
(84,725,cs),
(84,278,o),
(364,-20,o),
(774,-20,cs)
);
}
);
width = 1466;
},
{
layerId = "42E87D12-3AB5-40D6-8370-BF79EAF40F29";
shapes = (
{
closed = 1;
nodes = (
(1078,-20,o),
(1298,133,o),
(1392,383,c),
(1228,443,l),
(1156,257,o),
(1000,147,o),
(790,147,cs),
(489,147,o),
(299,368,o),
(299,725,cs),
(299,1078,o),
(489,1301,o),
(790,1301,cs),
(1000,1301,o),
(1156,1191,o),
(1228,1004,c),
(1392,1064,l),
(1298,1314,o),
(1078,1468,o),
(790,1468,cs),
(391,1468,o),
(123,1172,o),
(123,725,cs),
(123,275,o),
(391,-20,o),
(790,-20,cs)
);
}
);
width = 1462;
},
{
layerId = "1C230A88-1131-4497-B97C-4D293C298785";
shapes = (
{
closed = 1;
nodes = (
(1078,-20,o),
(1289,126,o),
(1381,365,c),
(1287,401,l),
(1207,197,o),
(1034,76,o),
(801,76,cs),
(462,76,o),
(249,327,o),
(249,725,cs),
(249,1119,o),
(462,1372,o),
(801,1372,cs),
(1034,1372,o),
(1207,1251,o),
(1287,1046,c),
(1381,1082,l),
(1289,1321,o),
(1078,1468,o),
(801,1468,cs),
(408,1468,o),
(147,1173,o),
(147,725,cs),
(147,274,o),
(408,-20,o),
(801,-20,cs)
);
}
);
width = 1461;
}
);
leftKerningGroup = C;
rightKerningGroup = C1;
unicode = 67;
},
{
glyphname = D;
layers = (
{
layerId = "52CC1650-7CEF-4847-8280-03AE9FE593CD";
shapes = (
{
closed = 1;
nodes = (
(175,0,l),
(612,0,ls),
(1114,0,o),
(1375,277,o),
(1375,713,cs),
(1375,1206,o),
(1092,1448,o),
(614,1448,cs),
(175,1448,l)
);
},
{
closed = 1;
nodes = (
(472,273,l),
(472,1173,l),
(616,1173,ls),
(948,1173,o),
(1077,1055,o),
(1077,724,cs),
(1077,389,o),
(908,273,o),
(587,273,cs)
);
}
);
width = 1444;
},
{
layerId = "42E87D12-3AB5-40D6-8370-BF79EAF40F29";
shapes = (
{
closed = 1;
nodes = (
(214,0,l),
(588,0,ls),
(1046,0,o),
(1323,246,o),
(1323,713,cs),
(1323,1182,o),
(1065,1448,o),
(590,1448,cs),
(214,1448,l)
);
},
{
closed = 1;
nodes = (
(389,159,l),
(389,1291,l),
(586,1291,ls),
(957,1291,o),
(1147,1100,o),
(1147,724,cs),
(1147,355,o),
(925,159,o),
(563,159,cs)
);
}
);
width = 1442;
},
{
layerId = "1C230A88-1131-4497-B97C-4D293C298785";
shapes = (
{
closed = 1;
nodes = (
(238,0,l),
(574,0,ls),
(1031,0,o),
(1292,255,o),
(1292,713,cs),
(1292,1176,o),
(1040,1448,o),
(576,1448,cs),
(238,1448,l)
);
},
{
closed = 1;
nodes = (
(341,91,l),
(341,1361,l),
(572,1361,ls),
(972,1361,o),
(1189,1110,o),
(1189,724,cs),
(1189,338,o),
(934,91,o),
(549,91,cs)
);
}
);
width = 1442;
}
);
leftKerningGroup = B;
rightKerningGroup = D;
unicode = 68;
},
{
glyphname = E;
layers = (
{
layerId = "52CC1650-7CEF-4847-8280-03AE9FE593CD";
shapes = (
{
closed = 1;
nodes = (
(1147,0,l),
(1147,284,l),
(472,284,l),
(472,585,l),
(1120,585,l),
(1120,863,l),
(472,863,l),
(472,1172,l),
(1147,1172,l),
(1147,1448,l),
(175,1448,l),
(175,0,l)
);
}
);
width = 1278;
},
{
layerId = "42E87D12-3AB5-40D6-8370-BF79EAF40F29";
shapes = (
{
closed = 1;
nodes = (
(1153,0,l),
(1153,160,l),
(388,160,l),
(388,651,l),
(1059,651,l),
(1059,799,l),
(388,799,l),
(388,1296,l),
(1153,1296,l),
(1153,1448,l),
(213,1448,l),
(213,0,l)
);
}
);
width = 1271;
},
{
layerId = "1C230A88-1131-4497-B97C-4D293C298785";
shapes = (
{
closed = 1;
nodes = (
(1159,0,l),
(1159,88,l),
(341,88,l),
(341,683,l),
(1025,683,l),
(1025,766,l),
(341,766,l),
(341,1368,l),
(1159,1368,l),
(1159,1448,l),
(239,1448,l),
(239,0,l)
);
}
);
width = 1269;
}
);
leftKerningGroup = B;
rightKerningGroup = E;
unicode = 69;
},
{
glyphname = F;
layers = (
{
layerId = "52CC1650-7CEF-4847-8280-03AE9FE593CD";
shapes = (
{
closed = 1;
nodes = (
(472,0,l),
(472,585,l),
(1148,585,l),
(1148,863,l),
(472,863,l),
(472,1172,l),
(1238,1172,l),
(1238,1448,l),
(175,1448,l),
(175,0,l)
);
}
);
width = 1280;
},
{
layerId = "42E87D12-3AB5-40D6-8370-BF79EAF40F29";
shapes = (
{
closed = 1;
nodes = (
(386,0,l),
(386,651,l),
(1062,651,l),
(1062,799,l),
(386,799,l),
(386,1296,l),
(1153,1296,l),
(1153,1448,l),
(211,1448,l),
(211,0,l)
);
}
);
width = 1227;
},
{
layerId = "1C230A88-1131-4497-B97C-4D293C298785";
shapes = (
{
closed = 1;
nodes = (
(344,0,l),
(344,683,l),
(1020,683,l),
(1020,766,l),
(344,766,l),
(344,1368,l),
(1111,1368,l),
(1111,1448,l),
(241,1448,l),
(241,0,l)
);
}
);
width = 1210;
}
);
leftKerningGroup = B;
unicode = 70;
},
{
glyphname = G;
layers = (
{
layerId = "52CC1650-7CEF-4847-8280-03AE9FE593CD";
shapes = (
{
closed = 1;
nodes = (
(963,-20,o),
(1125,53,o),
(1213,200,c),
(1193,200,l),
(1222,0,l),
(1466,0,l),
(1466,808,l),
(730,808,l),
(730,553,l),
(1160,553,l),
(1120,378,o),
(956,258,o),
(784,258,cs),
(547,258,o),
(367,428,o),
(367,724,cs),
(367,1020,o),
(543,1192,o),
(783,1192,cs),
(974,1192,o),
(1107,1117,o),
(1159,927,c),
(1436,1040,l),
(1320,1311,o),
(1078,1468,o),
(782,1468,cs),
(361,1468,o),
(61,1159,o),
(61,724,cs),
(61,290,o),
(361,-20,o),
(785,-20,cs)
);
}
);
width = 1585;
},
{
layerId = "42E87D12-3AB5-40D6-8370-BF79EAF40F29";
shapes = (
{
closed = 1;
nodes = (
(1029,-20,o),
(1216,87,o),
(1279,284,c),
(1263,284,l),
(1277,0,l),
(1421,0,l),
(1421,760,l),
(845,760,l),
(845,610,l),
(1250,610,l),
(1233,329,o),
(1086,139,o),
(804,139,cs),
(470,139,o),
(294,378,o),
(294,727,cs),
(294,1096,o),
(485,1310,o),
(797,1310,cs),
(1026,1310,o),
(1173,1212,o),
(1243,1001,c),
(1405,1066,l),
(1302,1326,o),
(1095,1468,o),
(797,1468,cs),
(379,1468,o),
(118,1181,o),
(118,727,cs),
(118,272,o),
(378,-20,o),
(796,-20,cs)
);
}
);
width = 1555;
},
{
layerId = "1C230A88-1131-4497-B97C-4D293C298785";
shapes = (
{
closed = 1;
nodes = (
(1066,-20,o),
(1268,107,o),
(1316,332,c),
(1303,332,l),
(1309,0,l),
(1395,0,l),
(1395,733,l),
(910,733,l),
(910,642,l),
(1301,642,l),
(1298,301,o),
(1160,71,o),
(815,71,cs),
(426,71,o),
(252,350,o),
(252,729,cs),
(252,1139,o),
(452,1377,o),
(805,1377,cs),
(1056,1377,o),
(1210,1266,o),
(1291,1043,c),
(1387,1080,l),
(1292,1334,o),
(1104,1468,o),
(805,1468,cs),
(390,1468,o),
(150,1193,o),
(150,729,cs),
(150,261,o),
(388,-20,o),
(803,-20,cs)
);
}
);
width = 1538;
}
);
leftKerningGroup = G;
rightKerningGroup = G1;
unicode = 71;
},
{
glyphname = H;
layers = (
{
layerId = "52CC1650-7CEF-4847-8280-03AE9FE593CD";
shapes = (
{
closed = 1;
nodes = (
(1366,0,l),
(1366,1448,l),
(1069,1448,l),
(1069,862,l),
(472,862,l),
(472,1448,l),
(175,1448,l),
(175,0,l),
(472,0,l),
(472,584,l),
(1069,584,l),
(1069,0,l)
);
}
);
width = 1541;
},
{
layerId = "42E87D12-3AB5-40D6-8370-BF79EAF40F29";
shapes = (
{
closed = 1;
nodes = (
(1281,0,l),
(1281,1448,l),
(1106,1448,l),
(1106,798,l),
(385,798,l),
(385,1448,l),
(211,1448,l),
(211,0,l),
(385,0,l),
(385,650,l),
(1106,650,l),
(1106,0,l)
);
}
);
width = 1492;
},
{
layerId = "1C230A88-1131-4497-B97C-4D293C298785";
shapes = (
{
closed = 1;
nodes = (
(1239,0,l),
(1239,1448,l),
(1136,1448,l),
(1136,760,l),
(343,760,l),
(343,1448,l),
(241,1448,l),
(241,0,l),
(343,0,l),
(343,688,l),
(1136,688,l),
(1136,0,l)
);
}
);
width = 1477;
}
);
leftKerningGroup = B;
rightKerningGroup = H;
unicode = 72;
},
{
glyphname = I;
layers = (
{
layerId = "52CC1650-7CEF-4847-8280-03AE9FE593CD";
shapes = (
{
closed = 1;
nodes = (
(472,0,l),
(472,1448,l),
(175,1448,l),
(175,0,l)
);
}
);
width = 647;
},
{
layerId = "42E87D12-3AB5-40D6-8370-BF79EAF40F29";
shapes = (
{
closed = 1;
nodes = (
(385,0,l),
(385,1448,l),
(211,1448,l),
(211,0,l)
);
}
);
width = 597;
},
{
layerId = "1C230A88-1131-4497-B97C-4D293C298785";
shapes = (
{
closed = 1;
nodes = (
(343,0,l),
(343,1448,l),
(241,1448,l),
(241,0,l)
);
}
);
width = 582;
}
);
leftKerningGroup = B;
rightKerningGroup = H;
unicode = 73;
},
{
glyphname = J;
layers = (
{
layerId = "52CC1650-7CEF-4847-8280-03AE9FE593CD";
shapes = (
{
closed = 1;
nodes = (
(15,469,l,{name = .sh01;}),
(32,199,o),
(246,-20,o),
(524,-20,cs,{name = .sv01;}),
(876,-20,o),
(1030,209,o),
(1030,525,cs),
(1030,1448,l,{name = .sh02;}),
(733,1448,l,{name = .ah01;}),
(733,662,ls),
(733,368,o),
(732,259,o),
(524,259,cs,{name = .av01;}),
(388,259,o),
(317,359,o),
(309,501,c,{name = .sh03;})
);
}
);
width = 1174;
},
{
layerId = "42E87D12-3AB5-40D6-8370-BF79EAF40F29";
shapes = (
{
closed = 1;
nodes = (
(67,410,l,{name = .sh01;}),
(84,147,o),
(258,-20,o),
(521,-20,cs,{name = .sv01;}),
(846,-20,o),
(960,226,o),
(960,515,cs),
(960,1448,l,{name = .sh02;}),
(785,1448,l,{name = .ah01;}),
(785,494,ls),
(785,298,o),
(740,133,o),
(510,133,cs,{name = .av01;}),
(337,133,o),
(246,273,o),
(237,432,c,{name = .sh03;})
);
}
);
width = 1148;
},
{
layerId = "1C230A88-1131-4497-B97C-4D293C298785";
shapes = (
{
closed = 1;
nodes = (
(101,376,l,{name = .sh01;}),
(116,126,o),
(277,-20,o),
(527,-20,cs,{name = .sv01;}),
(836,-20,o),
(923,250,o),
(923,509,cs),
(923,1448,l,{name = .sh02;}),
(821,1448,l,{name = .ah01;}),
(821,475,ls),
(821,256,o),
(764,61,o),
(506,61,cs,{name = .av01;}),
(318,61,o),
(206,216,o),
(199,392,c,{name = .sh03;})
);
}
);
width = 1140;
}
);
leftKerningGroup = J;
rightKerningGroup = J1;
unicode = 74;
},
{
glyphname = K;
layers = (
{
layerId = "52CC1650-7CEF-4847-8280-03AE9FE593CD";
shapes = (
{
closed = 1;
nodes = (
(1545,0,l),
(951,845,l),
(1543,1448,l),
(1140,1448,l),
(472,730,l),
(472,1448,l),
(175,1448,l),
(175,0,l),
(472,0,l),
(472,367,l),
(743,646,l),
(1172,0,l)
);
}
);
width = 1542;
},
{
layerId = "42E87D12-3AB5-40D6-8370-BF79EAF40F29";
shapes = (
{
closed = 1;
nodes = (
(1429,0,l),
(850,874,l),
(1401,1448,l),
(1172,1448,l),
(386,612,l),
(386,1448,l),
(211,1448,l),
(211,0,l),
(386,0,l),
(386,396,l),
(730,751,l),
(1217,0,l)
);
}
);
width = 1489;
},
{
layerId = "1C230A88-1131-4497-B97C-4D293C298785";
shapes = (
{
closed = 1;
nodes = (
(1368,0,l),
(797,891,l),
(1325,1448,l),
(1198,1448,l),
(344,544,l),
(344,1448,l),
(241,1448,l),
(241,0,l),
(344,0,l),
(344,411,l),
(728,811,l),
(1251,0,l)
);
}
);
width = 1474;
}
);
leftKerningGroup = B;
rightKerningGroup = K;
unicode = 75;
},
{
glyphname = L;
layers = (
{
layerId = "52CC1650-7CEF-4847-8280-03AE9FE593CD";
shapes = (
{
closed = 1;
nodes = (
(1090,0,l),
(1090,284,l),
(472,284,l),
(472,1448,l),
(175,1448,l),
(175,0,l)
);
}
);
width = 1099;
},
{
layerId = "42E87D12-3AB5-40D6-8370-BF79EAF40F29";
shapes = (
{
closed = 1;
nodes = (
(1006,0,l),
(1006,160,l),
(387,160,l),
(387,1448,l),
(212,1448,l),
(212,0,l)
);
}
);
width = 1063;
},
{
layerId = "1C230A88-1131-4497-B97C-4D293C298785";
shapes = (
{
closed = 1;
nodes = (
(962,0,l),
(962,88,l),
(343,88,l),
(343,1448,l),
(240,1448,l),
(240,0,l)
);
}
);
width = 1052;
}
);
leftKerningGroup = B;
rightKerningGroup = A;
unicode = 76;
},
{
glyphname = M;
layers = (
{
layerId = "52CC1650-7CEF-4847-8280-03AE9FE593CD";
shapes = (
{
closed = 1;
nodes = (
(1680,0,l),
(1680,1448,l),
(1296,1448,l),
(930,469,l),
(558,1448,l),
(175,1448,l),
(175,0,l),
(459,0,l),
(459,996,l),
(786,126,l),
(1068,126,l),
(1396,996,l),
(1396,0,l)
);
}
);
width = 1855;
},
{
layerId = "42E87D12-3AB5-40D6-8370-BF79EAF40F29";
shapes = (
{
closed = 1;
nodes = (
(1593,0,l),
(1593,1448,l),
(1345,1448,l),
(906,361,l),
(468,1448,l),
(221,1448,l),
(221,0,l),
(388,0,l),
(388,1220,l),
(819,166,l),
(995,166,l),
(1426,1220,l),
(1426,0,l)
);
}
);
width = 1815;
},
{
layerId = "1C230A88-1131-4497-B97C-4D293C298785";
shapes = (
{
closed = 1;
nodes = (
(1543,0,l),
(1543,1448,l),
(1373,1448,l),
(893,300,l),
(417,1448,l),
(247,1448,l),
(247,0,l),
(347,0,l),
(347,1347,l),
(837,189,l),
(953,189,l),
(1443,1347,l),
(1443,0,l)
);
}
);
width = 1793;
}
);
leftKerningGroup = B;
rightKerningGroup = H;
unicode = 77;
},
{
glyphname = N;
layers = (
{
layerId = "52CC1650-7CEF-4847-8280-03AE9FE593CD";
shapes = (
{
closed = 1;
nodes = (
(1328,0,l),
(1328,1448,l),
(1044,1448,l),
(1044,537,l),
(442,1448,l),
(175,1448,l),
(175,0,l),
(459,0,l),
(459,914,l),
(1061,0,l)
);
}
);
width = 1503;
},
{
layerId = "42E87D12-3AB5-40D6-8370-BF79EAF40F29";
shapes = (
{
closed = 1;
nodes = (
(1243,0,l),
(1243,1448,l),
(1071,1448,l),
(1071,221,l),
(440,1448,l),
(211,1448,l),
(211,0,l),
(384,0,l),
(384,1228,l),
(1010,0,l)
);
}
);
width = 1454;
},
{
layerId = "1C230A88-1131-4497-B97C-4D293C298785";
shapes = (
{
closed = 1;
nodes = (
(1201,0,l),
(1201,1448,l),
(1094,1448,l),
(1094,80,l),
(424,1448,l),
(241,1448,l),
(241,0,l),
(348,0,l),
(348,1369,l),
(1011,0,l)
);
}
);
width = 1439;
}
);
leftKerningGroup = B;
rightKerningGroup = H;
unicode = 78;
},
{
glyphname = O;
layers = (
{
hints = (
{
horizontal = 1;
place = (-23,273);
type = Stem;
},
{
horizontal = 1;
place = (1190,273);
type = Stem;
},
{
place = (85,309);
type = Stem;
},
{
place = (1180,306);
type = Stem;
}
);
layerId = "52CC1650-7CEF-4847-8280-03AE9FE593CD";
shapes = (
{
closed = 1;
nodes = (
(1214,-20,o),
(1487,250,o),
(1487,724,cs),
(1487,1199,o),
(1214,1468,o),
(785,1468,cs),
(358,1468,o),
(84,1196,o),
(84,724,cs),
(84,252,o),
(358,-20,o),
(785,-20,cs)
);
},
{
closed = 1;
nodes = (
(551,250,o),
(384,421,o),
(384,724,cs),
(384,1027,o),
(551,1198,o),
(785,1198,cs),
(1021,1198,o),
(1187,1027,o),
(1187,724,cs),
(1187,421,o),
(1021,250,o),
(785,250,cs)
);
}
);
width = 1571;
},
{
hints = (
{
horizontal = 1;
place = (-17,160);
type = Stem;
},
{
horizontal = 1;
place = (1298,160);
type = Stem;
},
{
place = (129,180);
type = Stem;
},
{
place = (1284,179);
type = Stem;
}
);
layerId = "42E87D12-3AB5-40D6-8370-BF79EAF40F29";
shapes = (
{
closed = 1;
nodes = (
(1225,-20,o),
(1469,283,o),
(1469,725,cs),
(1469,1165,o),
(1225,1468,o),
(795,1468,cs),
(367,1468,o),
(123,1164,o),
(123,725,cs),
(123,284,o),
(367,-20,o),
(795,-20,cs)
);
},
{
closed = 1;
nodes = (
(479,140,o),
(303,380,o),
(303,725,cs),
(303,1068,o),
(479,1308,o),
(795,1308,cs),
(1113,1308,o),
(1290,1068,o),
(1290,725,cs),
(1290,380,o),
(1113,140,o),
(795,140,cs)
);
}
);
width = 1591;
},
{
hints = (
{
horizontal = 1;
place = (-14,90);
type = Stem;
},
{
horizontal = 1;
place = (1364,90);
type = Stem;
},
{
place = (156,100);
type = Stem;
},
{
place = (1348,100);
type = Stem;
}
);
layerId = "1C230A88-1131-4497-B97C-4D293C298785";
shapes = (
{
closed = 1;
nodes = (
(1233,-20,o),
(1457,303,o),
(1457,724,cs),
(1457,1145,o),
(1233,1468,o),
(800,1468,cs),
(372,1468,o),
(147,1145,o),
(147,724,cs),
(147,303,o),
(372,-20,o),
(800,-20,cs)
);
},
{
closed = 1;
nodes = (
(435,69,o),
(247,355,o),
(247,724,cs),
(247,1093,o),
(435,1379,o),
(800,1379,cs),
(1169,1379,o),
(1357,1093,o),
(1357,724,cs),
(1357,355,o),
(1169,69,o),
(800,69,cs)
);
}
);
width = 1604;
}
);
leftKerningGroup = O;
rightKerningGroup = O1;
unicode = 79;
},
{
glyphname = P;
layers = (
{
layerId = "52CC1650-7CEF-4847-8280-03AE9FE593CD";
shapes = (
{
closed = 1;
nodes = (
(175,0,l),
(470,0,l),
(470,580,l),
(660,580,ls),
(911,580,o),
(1176,733,o),
(1176,1017,cs),
(1176,1303,o),
(915,1448,o),
(660,1448,cs),
(175,1448,l)
);
},
{
closed = 1;
nodes = (
(470,861,l),
(470,1168,l),
(646,1168,ls),
(814,1168,o),
(881,1114,o),
(881,1008,cs),
(881,901,o),
(806,861,o),
(646,861,cs)
);
}
);
width = 1203;
},
{
layerId = "42E87D12-3AB5-40D6-8370-BF79EAF40F29";
shapes = (
{
closed = 1;
nodes = (
(212,0,l),
(387,0,l),
(387,646,l),
(569,646,ls),
(834,646,o),
(1094,723,o),
(1094,1044,cs),
(1094,1318,o),
(875,1448,o),
(625,1448,cs),
(212,1448,l)
);
},
{
closed = 1;
nodes = (
(387,802,l),
(387,1292,l),
(625,1292,ls),
(797,1292,o),
(922,1214,o),
(922,1044,cs),
(922,869,o),
(800,802,o),
(625,802,cs)
);
}
);
width = 1177;
},
{
layerId = "1C230A88-1131-4497-B97C-4D293C298785";
shapes = (
{
closed = 1;
nodes = (
(239,0,l),
(341,0,l),
(341,686,l),
(512,686,ls),
(775,686,o),
(1050,719,o),
(1050,1065,cs),
(1050,1321,o),
(856,1448,o),
(617,1448,cs),
(239,1448,l)
);
},
{
closed = 1;
nodes = (
(341,768,l),
(341,1364,l),
(617,1364,ls),
(791,1364,o),
(950,1274,o),
(950,1065,cs),
(950,846,o),
(798,768,o),
(617,768,cs)
);
}
);
width = 1170;
}
);
leftKerningGroup = B;
unicode = 80;
},
{
glyphname = Q;
layers = (
{
hints = (
{
horizontal = 1;
place = (-23,273);
type = Stem;
},
{
horizontal = 1;
place = (1190,273);
type = Stem;
},
{
place = (85,309);
type = Stem;
},
{
place = (1180,306);
type = Stem;
}
);
layerId = "52CC1650-7CEF-4847-8280-03AE9FE593CD";
shapes = (
{
closed = 1;
nodes = (
(1487,1199,o),
(1214,1468,o),
(785,1468,cs),
(358,1468,o),
(84,1196,o),
(84,724,cs),
(84,252,o),
(358,-20,o),
(785,-20,cs),
(916,-20,o),
(1033,6,o),
(1132,54,c),
(1303,-110,l),
(1469,64,l),
(1323,202,l),
(1428,329,o),
(1487,505,o),
(1487,724,cs)
);
},
{
closed = 1;
nodes = (
(551,253,o),
(394,421,o),
(394,724,cs),
(394,1027,o),
(551,1195,o),
(785,1195,cs),
(1021,1195,o),
(1181,1027,o),
(1181,724,cs),
(1181,595,o),
(1151,491,o),
(1100,413,c),
(895,608,l),
(733,438,l),
(907,270,l),
(870,259,o),
(828,253,o),
(785,253,cs)
);
}
);
width = 1595;
},
{
hints = (
{
horizontal = 1;
place = (-17,160);
type = Stem;
},
{
horizontal = 1;
place = (1298,160);
type = Stem;
},
{
place = (128,180);
type = Stem;
},
{
place = (1283,179);
type = Stem;
}
);
layerId = "42E87D12-3AB5-40D6-8370-BF79EAF40F29";
shapes = (
{
closed = 1;
nodes = (
(1468,1165,o),
(1224,1468,o),
(794,1468,cs),
(366,1468,o),
(122,1164,o),
(122,724,cs),
(122,283,o),
(366,-20,o),
(794,-20,cs),
(935,-20,o),
(1056,13,o),
(1154,73,c),
(1324,-91,l),
(1424,13,l),
(1269,163,l),
(1399,293,o),
(1468,491,o),
(1468,724,cs)
);
},
{
closed = 1;
nodes = (
(478,140,o),
(302,380,o),
(302,724,cs),
(302,1067,o),
(478,1308,o),
(794,1308,cs),
(1112,1308,o),
(1288,1067,o),
(1288,724,cs),
(1288,543,o),
(1238,388,o),
(1140,285,c),
(877,543,l),
(779,441,l),
(1025,200,l),
(961,162,o),
(884,140,o),
(794,140,cs)
);
}
);
width = 1604;
},
{
hints = (
{
horizontal = 1;
place = (-14,90);
type = Stem;
},
{
horizontal = 1;
place = (1364,90);
type = Stem;
},
{
place = (154,100);
type = Stem;
},
{
place = (1347,100);
type = Stem;
}
);
layerId = "1C230A88-1131-4497-B97C-4D293C298785";
shapes = (
{
closed = 1;
nodes = (
(1456,1145,o),
(1231,1468,o),
(799,1468,cs),
(370,1468,o),
(145,1145,o),
(145,724,cs),
(145,303,o),
(370,-20,o),
(799,-20,cs),
(947,-20,o),
(1071,18,o),
(1169,85,c),
(1337,-79,l),
(1395,-18,l),
(1236,139,l),
(1382,273,o),
(1456,483,o),
(1456,724,cs)
);
},
{
closed = 1;
nodes = (
(433,70,o),
(245,355,o),
(245,724,cs),
(245,1093,o),
(433,1378,o),
(799,1378,cs),
(1169,1378,o),
(1356,1093,o),
(1356,724,cs),
(1356,510,o),
(1292,324,o),
(1165,207,c),
(865,502,l),
(807,443,l),
(1098,155,l),
(1018,101,o),
(919,70,o),
(799,70,cs)
);
}
);
width = 1610;
}
);
leftKerningGroup = O;
unicode = 81;
},
{
glyphname = R;
layers = (
{
layerId = "52CC1650-7CEF-4847-8280-03AE9FE593CD";
shapes = (
{
closed = 1;
nodes = (
(175,0,l),
(472,0,l),
(472,607,l),
(622,607,l),
(976,0,l),
(1316,0,l),
(910,634,l),
(1069,697,o),
(1183,840,o),
(1183,1012,cs),
(1183,1284,o),
(930,1448,o),
(677,1448,cs),
(175,1448,l)
);
},
{
closed = 1;
nodes = (
(474,844,l),
(474,1181,l),
(666,1181,ls),
(809,1181,o),
(887,1107,o),
(887,1007,cs),
(887,907,o),
(809,844,o),
(686,844,cs)
);
}
);
width = 1318;
},
{
layerId = "42E87D12-3AB5-40D6-8370-BF79EAF40F29";
shapes = (
{
closed = 1;
nodes = (
(210,0,l),
(386,0,l),
(386,645,l),
(615,645,l),
(977,0,l),
(1181,0,l),
(787,668,l),
(968,707,o),
(1092,852,o),
(1092,1042,cs),
(1092,1304,o),
(877,1448,o),
(631,1448,cs),
(210,1448,l)
);
},
{
closed = 1;
nodes = (
(388,802,l),
(388,1293,l),
(633,1293,ls),
(789,1293,o),
(921,1209,o),
(921,1042,cs),
(921,897,o),
(809,802,o),
(657,802,cs)
);
}
);
width = 1250;
},
{
layerId = "1C230A88-1131-4497-B97C-4D293C298785";
shapes = (
{
closed = 1;
nodes = (
(242,0,l),
(344,0,l),
(344,668,l),
(621,668,l),
(987,0,l),
(1111,0,l),
(724,688,l),
(921,713,o),
(1048,863,o),
(1048,1059,cs),
(1048,1307,o),
(856,1448,o),
(623,1448,cs),
(242,1448,l)
);
},
{
closed = 1;
nodes = (
(346,756,l),
(346,1360,l),
(625,1360,ls),
(804,1360,o),
(951,1253,o),
(951,1063,cs),
(951,886,o),
(807,756,o),
(650,756,cs)
);
}
);
width = 1231;
}
);
leftKerningGroup = B;
rightKerningGroup = R;
unicode = 82;
},
{
glyphname = S;
layers = (
{
layerId = "52CC1650-7CEF-4847-8280-03AE9FE593CD";
shapes = (
{
closed = 1;
nodes = (
(29,423,l),
(72,128,o),
(345,-16,o),
(618,-16,cs),
(869,-16,o),
(1128,141,o),
(1128,422,cs),
(1128,695,o),
(970,763,o),
(750,839,c),
(462,942,o),
(424,979,o),
(424,1069,cs),
(424,1157,o),
(510,1201,o),
(589,1201,cs),
(680,1201,o),
(755,1147,o),
(803,1053,c),
(1056,1204,l),
(964,1377,o),
(793,1468,o),
(601,1468,cs),
(341,1468,o),
(125,1315,o),
(125,1066,cs),
(125,857,o),
(302,723,o),
(500,652,cs),
(811,539,o),
(829,506,o),
(829,401,cs),
(829,290,o),
(701,248,o),
(611,248,cs),
(443,248,o),
(347,340,o),
(328,496,c)
);
}
);
width = 1172;
},
{
layerId = "42E87D12-3AB5-40D6-8370-BF79EAF40F29";
shapes = (
{
closed = 1;
nodes = (
(81,375,l),
(123,119,o),
(339,-16,o),
(587,-16,cs),
(842,-16,o),
(1044,142,o),
(1044,402,cs),
(1044,648,o),
(832,746,o),
(639,834,cs),
(487,903,o),
(348,966,o),
(348,1112,cs),
(348,1237,o),
(454,1318,o),
(573,1318,cs),
(693,1318,o),
(792,1256,o),
(849,1151,c),
(983,1239,l),
(891,1392,o),
(754,1468,o),
(575,1468,cs),
(354,1468,o),
(177,1320,o),
(177,1098,cs),
(177,868,o),
(370,780,o),
(555,695,cs),
(716,621,o),
(872,550,o),
(872,389,cs),
(872,215,o),
(750,138,o),
(588,138,cs),
(409,138,o),
(269,242,o),
(246,423,c)
);
}
);
width = 1141;
},
{
hints = (
{
horizontal = 1;
place = (-13,91);
type = Stem;
},
{
horizontal = 1;
place = (1364,90);
type = Stem;
},
{
place = (199,101);
type = Stem;
},
{
place = (949,99);
type = Stem;
}
);
layerId = "1C230A88-1131-4497-B97C-4D293C298785";
shapes = (
{
closed = 1;
nodes = (
(113,380,l),
(156,129,o),
(353,-13,o),
(605,-13,cs),
(870,-13,o),
(1055,155,o),
(1055,396,cs),
(1055,656,o),
(841,739,o),
(640,814,cs),
(462,881,o),
(296,941,o),
(296,1116,cs),
(296,1270,o),
(421,1384,o),
(590,1384,cs),
(736,1384,o),
(838,1323,o),
(912,1194,c),
(996,1248,l),
(905,1405,o),
(770,1475,o),
(592,1475,cs),
(369,1475,o),
(193,1331,o),
(193,1112,cs),
(193,880,o),
(398,807,o),
(595,732,cs),
(778,662,o),
(954,591,o),
(954,388,cs),
(954,211,o),
(816,79,o),
(603,79,cs),
(395,79,o),
(246,195,o),
(215,404,c)
);
}
);
width = 1180;
}
);
leftKerningGroup = S;
rightKerningGroup = S1;
unicode = 83;
},
{
glyphname = T;
layers = (
{
layerId = "52CC1650-7CEF-4847-8280-03AE9FE593CD";
shapes = (
{
closed = 1;
nodes = (
(445,0,l),
(742,0,l),
(742,1178,l),
(1181,1178,l),
(1181,1448,l),
(4,1448,l),
(4,1178,l),
(445,1178,l)
);
}
);
width = 1187;
},
{
layerId = "42E87D12-3AB5-40D6-8370-BF79EAF40F29";
shapes = (
{
closed = 1;
nodes = (
(544,0,l),
(721,0,l),
(721,1302,l),
(1205,1302,l),
(1205,1448,l),
(60,1448,l),
(60,1302,l),
(544,1302,l)
);
}
);
width = 1266;
},
{
layerId = "1C230A88-1131-4497-B97C-4D293C298785";
shapes = (
{
closed = 1;
nodes = (
(603,0,l),
(688,0,l),
(688,1376,l),
(1208,1376,l),
(1208,1448,l),
(83,1448,l),
(83,1376,l),
(603,1376,l)
);
}
);
width = 1290;
}
);
leftKerningGroup = T2;
rightKerningGroup = T;
unicode = 84;
},
{
glyphname = U;
layers = (
{
layerId = "52CC1650-7CEF-4847-8280-03AE9FE593CD";
shapes = (
{
closed = 1;
nodes = (
(1091,-20,o),
(1285,177,o),
(1285,588,cs),
(1285,1448,l,{name = .av01;}),
(986,1448,l,{name = .ah01;}),
(986,600,ls),
(986,375,o),
(939,269,o),
(712,269,cs,{name = .dv02;}),
(488,269,o),
(437,381,o),
(437,585,cs),
(437,1448,l,{name = .av02;}),
(139,1448,l,{name = .sh01;}),
(139,577,ls),
(139,193,o),
(320,-20,o),
(712,-20,cs,{name = .dv01;})
);
}
);
width = 1423;
},
{
layerId = "42E87D12-3AB5-40D6-8370-BF79EAF40F29";
shapes = (
{
closed = 1;
nodes = (
(1040,-20,o),
(1206,219,o),
(1206,545,cs),
(1206,1448,l,{name = .av01;}),
(1031,1448,l,{name = .ah01;}),
(1031,578,ls),
(1031,333,o),
(958,144,o),
(693,144,cs,{name = .dv02;}),
(424,144,o),
(358,342,o),
(358,578,cs),
(358,1448,l,{name = .av02;}),
(183,1448,l,{name = .sh01;}),
(183,534,ls),
(183,208,o),
(349,-20,o),
(693,-20,cs,{name = .dv01;})
);
}
);
width = 1387;
},
{
layerId = "1C230A88-1131-4497-B97C-4D293C298785";
shapes = (
{
closed = 1;
nodes = (
(1002,-20,o),
(1164,230,o),
(1164,521,cs),
(1164,1448,l,{name = .av01;}),
(1064,1448,l,{name = .ah01;}),
(1064,565,ls),
(1064,326,o),
(990,72,o),
(687,72,cs,{name = .dv02;}),
(391,72,o),
(316,318,o),
(316,565,cs),
(316,1448,l,{name = .av02;}),
(215,1448,l,{name = .sh01;}),
(215,510,ls),
(215,217,o),
(372,-20,o),
(687,-20,cs,{name = .dv01;})
);
}
);
width = 1376;
}
);
leftKerningGroup = U;
rightKerningGroup = U1;
unicode = 85;
},
{
glyphname = V;
layers = (
{
layerId = "52CC1650-7CEF-4847-8280-03AE9FE593CD";
shapes = (
{
closed = 1;
nodes = (
(801,0,l),
(1391,1448,l),
(1061,1448,l),
(694,502,l),
(326,1448,l),
(-8,1448,l),
(585,0,l)
);
}
);
width = 1383;
},
{
layerId = "42E87D12-3AB5-40D6-8370-BF79EAF40F29";
shapes = (
{
closed = 1;
nodes = (
(753,0,l),
(1301,1448,l),
(1116,1448,l),
(681,244,l),
(245,1448,l),
(57,1448,l),
(607,0,l)
);
}
);
width = 1357;
},
{
layerId = "1C230A88-1131-4497-B97C-4D293C298785";
shapes = (
{
closed = 1;
nodes = (
(729,0,l),
(1251,1448,l),
(1152,1448,l),
(677,93,l),
(203,1448,l),
(100,1448,l),
(624,0,l)
);
}
);
width = 1350;
}
);
leftKerningGroup = T2;
rightKerningGroup = V;
unicode = 86;
},
{
glyphname = W;
layers = (
{
layerId = "52CC1650-7CEF-4847-8280-03AE9FE593CD";
shapes = (
{
closed = 1;
nodes = (
(1612,0,l),
(2056,1448,l),
(1746,1448,l),
(1451,453,l),
(1146,1448,l),
(918,1448,l),
(612,453,l),
(316,1448,l),
(6,1448,l),
(451,0,l),
(730,0,l),
(1029,978,l),
(1333,0,l)
);
}
);
width = 2062;
},
{
layerId = "42E87D12-3AB5-40D6-8370-BF79EAF40F29";
shapes = (
{
closed = 1;
nodes = (
(1545,0,l),
(1956,1448,l),
(1777,1448,l),
(1439,223,l),
(1082,1448,l),
(943,1448,l),
(587,223,l),
(246,1448,l),
(68,1448,l),
(478,0,l),
(669,0,l),
(1013,1166,l),
(1354,0,l)
);
}
);
width = 2023;
},
{
layerId = "1C230A88-1131-4497-B97C-4D293C298785";
shapes = (
{
closed = 1;
nodes = (
(1512,0,l),
(1903,1448,l),
(1801,1448,l),
(1437,90,l),
(1049,1448,l),
(963,1448,l),
(579,90,l),
(210,1448,l),
(110,1448,l),
(499,0,l),
(639,0,l),
(1009,1276,l),
(1373,0,l)
);
}
);
width = 2012;
}
);
leftKerningGroup = W2;
rightKerningGroup = W;
unicode = 87;
},
{
glyphname = X;
layers = (
{
layerId = "52CC1650-7CEF-4847-8280-03AE9FE593CD";
shapes = (
{
closed = 1;
nodes = (
(6,0,l),
(362,0,l),
(702,535,l),
(1045,0,l),
(1404,0,l),
(915,724,l),
(1402,1448,l),
(1043,1448,l),
(704,905,l),
(364,1448,l),
(8,1448,l),
(494,724,l)
);
}
);
width = 1409;
},
{
layerId = "42E87D12-3AB5-40D6-8370-BF79EAF40F29";
shapes = (
{
closed = 1;
nodes = (
(37,0,l),
(252,0,l),
(663,608,l),
(1077,0,l),
(1293,0,l),
(789,730,l),
(1285,1448,l),
(1069,1448,l),
(664,845,l),
(260,1448,l),
(45,1448,l),
(538,730,l)
);
}
);
width = 1320;
},
{
layerId = "1C230A88-1131-4497-B97C-4D293C298785";
shapes = (
{
closed = 1;
nodes = (
(57,0,l),
(178,0,l),
(637,657,l),
(1098,0,l),
(1219,0,l),
(705,734,l),
(1207,1448,l),
(1086,1448,l),
(637,805,l),
(190,1448,l),
(70,1448,l),
(568,734,l)
);
}
);
width = 1260;
}
);
unicode = 88;
},
{
glyphname = Y;
layers = (
{
layerId = "52CC1650-7CEF-4847-8280-03AE9FE593CD";
shapes = (
{
closed = 1;
nodes = (
(833,0,l),
(833,563,l),
(1376,1448,l),
(1010,1448,l),
(673,847,l),
(340,1448,l),
(-23,1448,l),
(519,563,l),
(519,0,l)
);
}
);
width = 1352;
},
{
layerId = "42E87D12-3AB5-40D6-8370-BF79EAF40F29";
shapes = (
{
closed = 1;
nodes = (
(762,0,l),
(762,565,l),
(1302,1448,l),
(1097,1448,l),
(674,741,l),
(252,1448,l),
(47,1448,l),
(589,565,l),
(589,0,l)
);
}
);
width = 1350;
},
{
layerId = "1C230A88-1131-4497-B97C-4D293C298785";
shapes = (
{
closed = 1;
nodes = (
(720,0,l),
(720,567,l),
(1260,1448,l),
(1148,1448,l),
(674,678,l),
(201,1448,l),
(89,1448,l),
(629,567,l),
(629,0,l)
);
}
);
width = 1348;
}
);
leftKerningGroup = T2;
rightKerningGroup = T;
unicode = 89;
},
{
glyphname = Z;
layers = (
{
layerId = "52CC1650-7CEF-4847-8280-03AE9FE593CD";
shapes = (
{
closed = 1;
nodes = (
(1236,0,l),
(1236,268,l),
(475,268,l),
(1236,1238,l),
(1236,1448,l),
(95,1448,l),
(95,1172,l),
(814,1172,l),
(49,201,l),
(49,0,l)
);
}
);
width = 1302;
},
{
layerId = "42E87D12-3AB5-40D6-8370-BF79EAF40F29";
shapes = (
{
closed = 1;
nodes = (
(1207,0,l),
(1207,157,l),
(308,157,l),
(1207,1307,l),
(1207,1448,l),
(132,1448,l),
(132,1296,l),
(989,1296,l),
(86,133,l),
(86,0,l)
);
}
);
width = 1306;
},
{
layerId = "1C230A88-1131-4497-B97C-4D293C298785";
shapes = (
{
closed = 1;
nodes = (
(1190,0,l),
(1190,93,l),
(209,93,l),
(1190,1349,l),
(1190,1448,l),
(153,1448,l),
(153,1368,l),
(1092,1368,l),
(107,93,l),
(107,0,l)
);
}
);
width = 1308;
}
);
leftKerningGroup = Z;
rightKerningGroup = Z1;
unicode = 90;
},
{
glyphname = bracketleft;
layers = (
{
layerId = "52CC1650-7CEF-4847-8280-03AE9FE593CD";
shapes = (
{
closed = 1;
nodes = (
(639,-196,l),
(639,0,l),
(398,0,l),
(398,1444,l),
(639,1444,l),
(639,1637,l),
(169,1637,l),
(169,-196,l)
);
}
);
width = 659;
},
{
layerId = "42E87D12-3AB5-40D6-8370-BF79EAF40F29";
shapes = (
{
closed = 1;
nodes = (
(585,-106,l),
(585,-2,l),
(343,-2,l),
(343,1449,l),
(585,1449,l),
(585,1550,l),
(205,1550,l),
(205,-106,l)
);
}
);
width = 649;
},
{
layerId = "1C230A88-1131-4497-B97C-4D293C298785";
shapes = (
{
closed = 1;
nodes = (
(554,-53,l),
(554,26,l),
(312,26,l),
(312,1422,l),
(554,1422,l),
(554,1499,l),
(228,1499,l),
(228,-53,l)
);
}
);
width = 647;
}
);
unicode = 91;
},
{
glyphname = backslash;
layers = (
{
layerId = "52CC1650-7CEF-4847-8280-03AE9FE593CD";
shapes = (
{
closed = 1;
nodes = (
(1017,-440,l),
(205,1552,l),
(-57,1552,l),
(752,-440,l)
);
}
);
width = 959;
},
{
layerId = "42E87D12-3AB5-40D6-8370-BF79EAF40F29";
shapes = (
{
closed = 1;
nodes = (
(945,-441,l),
(171,1552,l),
(5,1552,l),
(781,-441,l)
);
}
);
width = 950;
},
{
layerId = "1C230A88-1131-4497-B97C-4D293C298785";
shapes = (
{
closed = 1;
nodes = (
(907,-441,l),
(152,1552,l),
(43,1552,l),
(800,-441,l)
);
}
);
width = 948;
}
);
unicode = 92;
},
{
glyphname = bracketright;
layers = (
{
layerId = "52CC1650-7CEF-4847-8280-03AE9FE593CD";
shapes = (
{
closed = 1;
nodes = (
(490,-196,l),
(490,1637,l),
(20,1637,l),
(20,1444,l),
(260,1444,l),
(260,0,l),
(20,0,l),
(20,-196,l)
);
}
);
width = 659;
},
{
layerId = "42E87D12-3AB5-40D6-8370-BF79EAF40F29";
shapes = (
{
closed = 1;
nodes = (
(446,-110,l),
(446,1554,l),
(63,1554,l),
(63,1431,l),
(304,1431,l),
(304,16,l),
(63,16,l),
(63,-110,l)
);
}
);
width = 651;
},
{
layerId = "1C230A88-1131-4497-B97C-4D293C298785";
shapes = (
{
closed = 1;
nodes = (
(416,-53,l),
(416,1499,l),
(91,1499,l),
(91,1422,l),
(333,1422,l),
(333,26,l),
(91,26,l),
(91,-53,l)
);
}
);
width = 646;
}
);
unicode = 93;
},
{
glyphname = asciicircum;
layers = (
{
layerId = "52CC1650-7CEF-4847-8280-03AE9FE593CD";
shapes = (
{
closed = 1;
nodes = (
(966,810,l),
(502,1559,l),
(40,810,l),
(321,810,l),
(502,1106,l),
(685,810,l)
);
}
);
width = 1008;
},
{
layerId = "42E87D12-3AB5-40D6-8370-BF79EAF40F29";
shapes = (
{
closed = 1;
nodes = (
(881,855,l),
(498,1471,l),
(119,855,l),
(291,855,l),
(498,1194,l),
(709,855,l)
);
}
);
width = 999;
},
{
layerId = "1C230A88-1131-4497-B97C-4D293C298785";
shapes = (
{
closed = 1;
nodes = (
(833,882,l),
(498,1418,l),
(168,882,l),
(276,882,l),
(498,1247,l),
(726,882,l)
);
}
);
width = 997;
}
);
unicode = 94;
},
{
glyphname = underscore;
layers = (
{
layerId = "52CC1650-7CEF-4847-8280-03AE9FE593CD";
shapes = (
{
closed = 1;
nodes = (
(1090,-217,l),
(1090,0,l),
(193,0,l),
(193,-217,l)
);
}
);
width = 1281;
},
{
layerId = "42E87D12-3AB5-40D6-8370-BF79EAF40F29";
shapes = (
{
closed = 1;
nodes = (
(1037,-127,l),
(1037,-2,l),
(231,-2,l),
(231,-127,l)
);
}
);
width = 1268;
},
{
layerId = "1C230A88-1131-4497-B97C-4D293C298785";
shapes = (
{
closed = 1;
nodes = (
(1007,-74,l),
(1007,-4,l),
(255,-4,l),
(255,-74,l)
);
}
);
width = 1264;
}
);
unicode = 95;
},
{
glyphname = grave;
layers = (
{
layerId = "52CC1650-7CEF-4847-8280-03AE9FE593CD";
shapes = (
{
closed = 1;
nodes = (
(537,1192,l),
(303,1508,l),
(9,1508,l),
(345,1192,l)
);
}
);
width = 555;
},
{
layerId = "42E87D12-3AB5-40D6-8370-BF79EAF40F29";
shapes = (
{
closed = 1;
nodes = (
(479,1192,l),
(256,1493,l),
(52,1493,l),
(331,1192,l)
);
}
);
width = 549;
},
{
layerId = "1C230A88-1131-4497-B97C-4D293C298785";
shapes = (
{
closed = 1;
nodes = (
(452,1192,l),
(237,1480,l),
(85,1480,l),
(333,1192,l)
);
}
);
width = 551;
}
);
unicode = 96;
},
{
glyphname = a;
layers = (
{
layerId = "52CC1650-7CEF-4847-8280-03AE9FE593CD";
shapes = (
{
closed = 1;
nodes = (
(556,-20,o),
(648,14,o),
(732,126,c,{name = .sh01;}),
(755,0,l),
(989,0,l),
(989,611,ls,{name = .dh03;}),
(989,920,o),
(811,1084,o),
(530,1084,cs,{name = .dv06;}),
(335,1084,o),
(192,1001,o),
(88,855,c),
(310,699,l),
(358,783,o),
(433,834,o),
(533,834,cs,{name = .dv05;}),
(645,834,o),
(713,773,o),
(713,615,c,{name = .av01;}),
(435,615,ls,{name = .dv04;}),
(239,615,o),
(31,549,o),
(31,314,cs,{name = .dh01;}),
(31,102,o),
(226,-20,o),
(419,-20,cs,{name = .dv01;})
);
},
{
closed = 1;
nodes = (
(382,223,o),
(326,265,o),
(326,314,cs,{name = .dh02;}),
(326,393,o),
(426,410,o),
(488,410,cs,{name = .dv03;}),
(713,410,l,{name = .sh02;}),
(713,410,ls),
(707,306,o),
(567,223,o),
(476,223,cs,{name = .dv02;})
);
}
);
width = 1097;
},
{
layerId = "42E87D12-3AB5-40D6-8370-BF79EAF40F29";
shapes = (
{
closed = 1;
nodes = (
(611,-20,o),
(718,43,o),
(781,187,c,{name = .sh01;}),
(794,0,l),
(941,0,l),
(941,627,ls,{name = .dh03;}),
(941,914,o),
(818,1084,o),
(524,1084,cs,{name = .dv06;}),
(353,1084,o),
(224,1015,o),
(119,875,c),
(243,773,l),
(318,880,o),
(407,934,o),
(525,934,cs,{name = .dv05;}),
(724,934,o),
(774,807,o),
(774,613,c,{name = .av01;}),
(491,613,ls,{name = .dv04;}),
(273,613,o),
(75,563,o),
(75,301,cs,{name = .dh01;}),
(75,101,o),
(234,-20,o),
(436,-20,cs,{name = .dv01;})
);
},
{
closed = 1;
nodes = (
(331,126,o),
(251,198,o),
(251,303,cs,{name = .dh02;}),
(251,467,o),
(387,481,o),
(513,481,cs,{name = .dv03;}),
(774,481,l,{name = .sh02;}),
(774,471,l),
(771,290,o),
(661,126,o),
(466,126,cs,{name = .dv02;})
);
}
);
width = 1074;
},
{
layerId = "1C230A88-1131-4497-B97C-4D293C298785";
shapes = (
{
closed = 1;
nodes = (
(647,-20,o),
(765,62,o),
(814,228,c),
(820,0,l),
(909,0,l),
(909,638,ls),
(909,910,o),
(822,1084,o),
(520,1084,cs),
(365,1084,o),
(246,1024,o),
(140,889,c),
(199,822,l),
(291,945,o),
(389,1000,o),
(520,1000,cs),
(777,1000,o),
(814,829,o),
(814,611,c),
(528,611,ls),
(296,611,o),
(105,572,o),
(105,292,cs),
(105,101,o),
(239,-20,o),
(447,-20,cs)
);
},
{
closed = 1;
nodes = (
(297,62,o),
(201,153,o),
(201,296,cs),
(201,516,o),
(361,529,o),
(529,529,cs),
(814,529,l),
(814,512,ls),
(814,280,o),
(723,62,o),
(459,62,cs)
);
}
);
width = 1059;
}
);
leftKerningGroup = a;
rightKerningGroup = a11;
unicode = 97;
},
{
glyphname = b;
layers = (
{
layerId = "52CC1650-7CEF-4847-8280-03AE9FE593CD";
shapes = (
{
closed = 1;
nodes = (
(975,-20,o),
(1164,219,o),
(1164,543,cs),
(1164,863,o),
(976,1084,o),
(723,1084,cs),
(594,1084,o),
(500,1047,o),
(439,976,c),
(439,1448,l),
(140,1448,l),
(140,0,l),
(439,0,l),
(439,88,l),
(503,17,o),
(601,-20,o),
(737,-20,cs)
);
},
{
closed = 1;
nodes = (
(509,248,o),
(413,370,o),
(413,532,cs),
(413,702,o),
(509,822,o),
(647,822,cs),
(777,822,o),
(875,702,o),
(875,532,cs),
(875,362,o),
(782,248,o),
(647,248,cs)
);
}
);
width = 1219;
},
{
layerId = "42E87D12-3AB5-40D6-8370-BF79EAF40F29";
shapes = (
{
closed = 1;
nodes = (
(968,-20,o),
(1095,269,o),
(1095,531,cs),
(1095,793,o),
(969,1084,o),
(666,1084,cs),
(531,1084,o),
(420,1032,o),
(341,923,c),
(341,1448,l),
(176,1448,l),
(176,0,l),
(341,0,l),
(341,139,l),
(421,27,o),
(533,-20,o),
(667,-20,cs)
);
},
{
closed = 1;
nodes = (
(405,125,o),
(327,338,o),
(327,531,cs),
(327,718,o),
(401,939,o),
(622,939,cs),
(849,939,o),
(931,725,o),
(931,531,cs),
(931,339,o),
(850,125,o),
(626,125,cs)
);
}
);
width = 1180;
},
{
layerId = "1C230A88-1131-4497-B97C-4D293C298785";
shapes = (
{
closed = 1;
nodes = (
(937,-20,o),
(1047,280,o),
(1047,531,cs),
(1047,780,o),
(933,1084,o),
(639,1084,cs),
(485,1084,o),
(372,1018,o),
(288,890,c),
(288,1448,l),
(202,1448,l),
(202,0,l),
(288,0,l),
(288,171,l),
(371,37,o),
(485,-20,o),
(637,-20,cs)
);
},
{
closed = 1;
nodes = (
(357,53,o),
(281,328,o),
(281,531,cs),
(281,733,o),
(359,1007,o),
(607,1007,cs),
(864,1007,o),
(957,748,o),
(957,531,cs),
(957,320,o),
(865,53,o),
(613,53,cs)
);
}
);
width = 1161;
}
);
unicode = 98;
},
{
glyphname = c;
layers = (
{
layerId = "52CC1650-7CEF-4847-8280-03AE9FE593CD";
shapes = (
{
closed = 1;
nodes = (
(756,-20,o),
(931,101,o),
(999,293,c),
(738,389,l),
(713,304,o),
(646,255,o),
(555,255,cs),
(428,255,o),
(337,352,o),
(337,530,cs),
(337,704,o),
(431,808,o),
(555,808,cs),
(650,808,o),
(715,759,o),
(738,673,c),
(1010,776,l),
(925,972,o),
(757,1084,o),
(554,1084,cs),
(248,1084,o),
(44,870,o),
(44,529,cs),
(44,188,o),
(254,-20,o),
(545,-20,cs)
);
}
);
width = 1033;
},
{
layerId = "42E87D12-3AB5-40D6-8370-BF79EAF40F29";
shapes = (
{
closed = 1;
nodes = (
(750,-20,o),
(894,80,o),
(961,261,c),
(811,325,l),
(776,209,o),
(675,129,o),
(553,129,cs),
(329,129,o),
(260,341,o),
(260,530,cs),
(260,718,o),
(335,933,o),
(553,933,cs),
(672,933,o),
(778,855,o),
(811,738,c),
(973,807,l),
(896,979,o),
(745,1084,o),
(556,1084,cs),
(248,1084,o),
(90,811,o),
(90,529,cs),
(90,249,o),
(239,-20,o),
(558,-20,cs)
);
}
);
width = 1026;
},
{
layerId = "1C230A88-1131-4497-B97C-4D293C298785";
shapes = (
{
closed = 1;
nodes = (
(735,-20,o),
(858,70,o),
(923,238,c),
(845,279,l),
(804,150,o),
(685,57,o),
(549,57,cs),
(292,57,o),
(220,318,o),
(220,530,cs),
(220,738,o),
(298,1005,o),
(549,1005,cs),
(683,1005,o),
(811,908,o),
(845,784,c),
(936,828,l),
(865,985,o),
(726,1084,o),
(552,1084,cs),
(250,1084,o),
(123,787,o),
(123,529,cs),
(123,253,o),
(254,-20,o),
(554,-20,cs)
);
}
);
width = 1013;
}
);
leftKerningGroup = a;
rightKerningGroup = c1;
unicode = 99;
},
{
glyphname = d;
layers = (
{
layerId = "52CC1650-7CEF-4847-8280-03AE9FE593CD";
shapes = (
{
closed = 1;
nodes = (
(629,-20,o),
(735,26,o),
(790,103,c),
(804,0,l),
(1069,0,l),
(1069,1448,l),
(776,1448,l),
(776,975,l),
(717,1046,o),
(619,1084,o),
(489,1084,cs),
(245,1084,o),
(51,871,o),
(51,546,cs),
(51,193,o),
(242,-20,o),
(503,-20,cs)
);
},
{
closed = 1;
nodes = (
(432,246,o),
(342,348,o),
(342,532,cs),
(342,718,o),
(441,824,o),
(572,824,cs),
(705,824,o),
(801,720,o),
(801,532,cs),
(801,351,o),
(709,246,o),
(572,246,cs)
);
}
);
width = 1211;
},
{
layerId = "42E87D12-3AB5-40D6-8370-BF79EAF40F29";
shapes = (
{
closed = 1;
nodes = (
(662,-20,o),
(769,26,o),
(852,144,c),
(856,0,l),
(1014,0,l),
(1014,1448,l),
(849,1448,l),
(849,925,l),
(770,1035,o),
(656,1084,o),
(523,1084,cs),
(222,1084,o),
(96,793,o),
(96,531,cs),
(96,273,o),
(221,-20,o),
(519,-20,cs)
);
},
{
closed = 1;
nodes = (
(341,129,o),
(264,335,o),
(264,532,cs),
(264,723,o),
(341,934,o),
(564,934,cs),
(789,934,o),
(864,724,o),
(864,532,cs),
(864,335,o),
(787,129,o),
(564,129,cs)
);
}
);
width = 1181;
},
{
layerId = "1C230A88-1131-4497-B97C-4D293C298785";
shapes = (
{
closed = 1;
nodes = (
(688,-20,o),
(792,32,o),
(882,168,c),
(879,0,l),
(976,0,l),
(976,1448,l),
(885,1448,l),
(885,894,l),
(802,1024,o),
(686,1084,o),
(534,1084,cs),
(237,1084,o),
(128,780,o),
(128,531,cs),
(128,288,o),
(236,-20,o),
(525,-20,cs)
);
},
{
closed = 1;
nodes = (
(297,61,o),
(222,325,o),
(222,532,cs),
(222,743,o),
(307,998,o),
(557,998,cs),
(812,998,o),
(894,744,o),
(894,532,cs),
(894,327,o),
(817,61,o),
(557,61,cs)
);
}
);
width = 1166;
}
);
leftKerningGroup = a;
unicode = 100;
},
{
glyphname = e;
layers = (
{
layerId = "52CC1650-7CEF-4847-8280-03AE9FE593CD";
shapes = (
{
closed = 1;
nodes = (
(734,-12,o),
(872,25,o),
(1004,172,c),
(807,345,l),
(732,270,o),
(668,259,o),
(566,259,cs),
(442,259,o),
(370,308,o),
(343,414,c),
(1034,414,l),
(1038,423,o),
(1047,463,o),
(1047,510,cs),
(1047,892,o),
(879,1084,o),
(550,1084,cs),
(247,1084,o),
(42,861,o),
(42,512,cs),
(42,196,o),
(243,-12,o),
(548,-12,cs)
);
},
{
closed = 1;
nodes = (
(343,615,l),
(365,776,o),
(442,845,o),
(550,845,cs),
(682,845,o),
(753,776,o),
(763,615,c)
);
}
);
width = 1095;
},
{
layerId = "42E87D12-3AB5-40D6-8370-BF79EAF40F29";
shapes = (
{
closed = 1;
nodes = (
(711,-12,o),
(826,33,o),
(945,164,c),
(833,268,l),
(743,167,o),
(667,140,o),
(549,140,cs),
(369,140,o),
(261,269,o),
(245,479,c),
(972,479,l),
(976,494,o),
(980,534,o),
(980,572,cs),
(980,838,o),
(854,1084,o),
(532,1084,cs),
(250,1084,o),
(73,848,o),
(73,525,cs),
(73,209,o),
(251,-12,o),
(542,-12,cs)
);
},
{
closed = 1;
nodes = (
(246,604,l),
(265,807,o),
(374,944,o),
(532,944,cs),
(726,944,o),
(814,804,o),
(817,604,c)
);
}
);
width = 1050;
},
{
hints = (
{
horizontal = 1;
place = (-14,80);
type = Stem;
},
{
horizontal = 1;
place = (490,78);
type = Stem;
},
{
horizontal = 1;
place = (952,80);
type = Stem;
},
{
place = (112,90);
type = Stem;
},
{
place = (833,87);
type = Stem;
}
);
layerId = "1C230A88-1131-4497-B97C-4D293C298785";
shapes = (
{
closed = 1;
nodes = (
(698,-12,o),
(800,37,o),
(912,160,c),
(848,224,l),
(749,109,o),
(667,72,o),
(539,72,cs),
(327,72,o),
(199,247,o),
(190,516,c),
(936,516,l),
(940,535,o),
(942,575,o),
(942,608,cs),
(942,808,o),
(839,1084,o),
(521,1084,cs),
(251,1084,o),
(90,841,o),
(90,532,cs),
(90,217,o),
(255,-12,o),
(539,-12,cs)
);
},
{
closed = 1;
nodes = (
(191,598,l),
(208,825,o),
(335,1000,o),
(522,1000,cs),
(751,1000,o),
(848,820,o),
(848,598,c)
);
}
);
width = 1025;
}
);
leftKerningGroup = a;
rightKerningGroup = e1;
unicode = 101;
},
{
glyphname = f;
layers = (
{
layerId = "52CC1650-7CEF-4847-8280-03AE9FE593CD";
shapes = (
{
closed = 1;
nodes = (
(201,0,l),
(489,0,l),
(489,821,l),
(703,821,l),
(703,1064,l),
(489,1064,l),
(489,1109,ls),
(489,1175,o),
(521,1210,o),
(565,1210,cs),
(589,1210,o),
(608,1200,o),
(628,1185,c),
(726,1425,l),
(661,1454,o),
(599,1468,o),
(526,1468,cs),
(355,1468,o),
(204,1339,o),
(204,1149,cs),
(204,1064,l),
(15,1064,l),
(15,821,l),
(201,821,l)
);
}
);
width = 705;
},
{
layerId = "42E87D12-3AB5-40D6-8370-BF79EAF40F29";
shapes = (
{
closed = 1;
nodes = (
(248,0,l),
(421,0,l),
(421,920,l),
(695,920,l),
(695,1064,l),
(421,1064,l),
(421,1155,ls),
(421,1258,o),
(468,1312,o),
(551,1312,cs),
(588,1312,o),
(618,1302,o),
(648,1285,c),
(707,1425,l),
(654,1451,o),
(598,1466,o),
(530,1466,cs),
(371,1466,o),
(249,1366,o),
(249,1172,cs),
(249,1064,l),
(40,1064,l),
(40,920,l),
(248,920,l)
);
}
);
width = 729;
},
{
layerId = "1C230A88-1131-4497-B97C-4D293C298785";
shapes = (
{
closed = 1;
nodes = (
(279,0,l),
(375,0,l),
(375,986,l),
(690,986,l),
(690,1064,l),
(375,1064,l),
(375,1185,ls),
(375,1314,o),
(432,1380,o),
(541,1380,cs),
(588,1380,o),
(625,1370,o),
(662,1351,c),
(694,1425,l),
(649,1449,o),
(598,1464,o),
(532,1464,cs),
(381,1464,o),
(279,1384,o),
(279,1187,cs),
(279,1064,l),
(57,1064,l),
(57,986,l),
(279,986,l)
);
}
);
width = 745;
}
);
leftKerningGroup = a;
rightKerningGroup = f;
unicode = 102;
},
{
glyphname = g;
layers = (
{
hints = (
{
horizontal = 1;
place = (-445,201);
type = Stem;
},
{
horizontal = 1;
place = (-56,229);
type = Stem;
},
{
horizontal = 1;
place = (279,215);
type = Stem;
},
{
horizontal = 1;
place = (826,215);
type = Stem;
},
{
horizontal = 1;
place = (944,-20);
target = down;
type = TopGhost;
},
{
place = (34,275);
type = Stem;
},
{
place = (76,235);
type = Stem;
},
{
place = (143,271);
type = Stem;
},
{
place = (722,258);
type = Stem;
},
{
place = (799,265);
type = Stem;
}
);
layerId = "52CC1650-7CEF-4847-8280-03AE9FE593CD";
shapes = (
{
closed = 1;
nodes = (
(332,1084,o),
(119,935,o),
(119,683,cs),
(119,607,o),
(139,536,o),
(176,477,c),
(102,414,o),
(49,335,o),
(49,235,cs),
(49,149,o),
(82,73,o),
(146,17,c),
(146,0,l),
(20,-54,l),
(11,-88,o),
(5,-125,o),
(5,-161,cs),
(5,-429,o),
(364,-483,o),
(563,-483,cs),
(834,-483,o),
(1096,-388,o),
(1096,-76,cs),
(1096,123,o),
(932,168,o),
(739,168,cs),
(465,168,ls),
(398,168,o),
(297,166,o),
(297,260,cs),
(297,284,o),
(311,311,o),
(334,334,c),
(407,295,o),
(491,279,o),
(573,279,cs),
(808,279,o),
(1008,415,o),
(1008,668,cs),
(1008,732,o),
(991,798,o),
(965,856,c),
(1119,981,l),
(973,1162,l),
(808,1023,l),
(741,1062,o),
(660,1084,o),
(568,1084,cs)
);
},
{
closed = 1;
nodes = (
(674,856,o),
(731,775,o),
(731,679,cs),
(731,582,o),
(674,507,o),
(570,507,cs),
(463,507,o),
(406,582,o),
(406,679,cs),
(406,775,o),
(463,856,o),
(570,856,cs)
);
},
{
closed = 1;
nodes = (
(490,-271,o),
(295,-260,o),
(295,-147,cs),
(295,-133,o),
(297,-117,o),
(303,-102,c),
(347,-67,l),
(392,-73,o),
(436,-73,o),
(481,-73,cs),
(655,-73,ls),
(706,-73,o),
(814,-59,o),
(814,-134,cs),
(814,-239,o),
(648,-271,o),
(568,-271,cs)
);
}
);
width = 1125;
},
{
hints = (
{
horizontal = 1;
place = (-435,124);
type = Stem;
},
{
horizontal = 1;
place = (2,136);
type = Stem;
},
{
horizontal = 1;
place = (318,130);
type = Stem;
},
{
horizontal = 1;
place = (906,130);
type = Stem;
},
{
horizontal = 1;
place = (984,-20);
target = down;
type = TopGhost;
},
{
place = (74,162);
type = Stem;
},
{
place = (118,140);
type = Stem;
},
{
place = (157,160);
type = Stem;
},
{
place = (773,154);
type = Stem;
},
{
place = (865,158);
type = Stem;
}
);
layerId = "42E87D12-3AB5-40D6-8370-BF79EAF40F29";
shapes = (
{
closed = 1;
nodes = (
(353,1084,o),
(145,950,o),
(145,718,cs),
(145,634,o),
(166,546,o),
(216,478,c),
(150,415,o),
(103,343,o),
(104,249,cs),
(104,162,o),
(144,94,o),
(214,45,c),
(214,33,l),
(68,-76,l),
(62,-102,o),
(58,-121,o),
(58,-148,cs),
(58,-425,o),
(352,-479,o),
(571,-479,cs),
(817,-479,o),
(1067,-409,o),
(1067,-116,cs),
(1067,81,o),
(923,130,o),
(739,130,cs),
(467,130,ls),
(369,130,o),
(253,143,o),
(253,268,cs),
(253,316,o),
(279,353,o),
(316,388,c),
(390,340,o),
(475,321,o),
(562,321,cs),
(785,321,o),
(966,455,o),
(966,689,cs),
(966,759,o),
(954,824,o),
(918,888,c),
(1082,1028,l),
(993,1139,l),
(825,991,l),
(763,1047,o),
(678,1084,o),
(578,1084,cs)
);
},
{
closed = 1;
nodes = (
(708,945,o),
(801,842,o),
(801,699,cs),
(801,558,o),
(708,459,o),
(561,459,cs),
(409,459,o),
(316,559,o),
(316,700,cs),
(316,842,o),
(412,945,o),
(562,945,cs)
);
},
{
closed = 1;
nodes = (
(434,-347,o),
(230,-329,o),
(230,-149,cs),
(230,-136,o),
(231,-121,o),
(234,-107,c),
(341,-6,l),
(385,-12,o),
(429,-15,o),
(473,-15,cs),
(698,-15,ls),
(811,-15,o),
(898,-23,o),
(898,-153,cs),
(898,-317,o),
(698,-347,o),
(572,-347,cs)
);
}
);
width = 1097;
},
{
hints = (
{
horizontal = 1;
place = (-429,77);
type = Stem;
},
{
horizontal = 1;
place = (37,79);
type = Stem;
},
{
horizontal = 1;
place = (342,78);
type = Stem;
},
{
horizontal = 1;
place = (955,78);
type = Stem;
},
{
horizontal = 1;
place = (1009,-20);
target = down;
type = TopGhost;
},
{
place = (99,93);
type = Stem;
},
{
place = (144,82);
type = Stem;
},
{
place = (165,92);
type = Stem;
},
{
place = (805,90);
type = Stem;
},
{
place = (906,93);
type = Stem;
}
);
layerId = "1C230A88-1131-4497-B97C-4D293C298785";
shapes = (
{
closed = 1;
nodes = (
(318,1089,o),
(151,929,o),
(151,716,cs),
(151,631,o),
(178,546,o),
(232,480,c),
(161,410,o),
(128,339,o),
(128,264,cs),
(128,171,o),
(167,106,o),
(247,61,c),
(247,53,l),
(87,-91,l),
(83,-118,o),
(81,-120,o),
(81,-137,cs),
(81,-423,o),
(332,-479,o),
(567,-479,cs),
(802,-479,o),
(1045,-422,o),
(1045,-138,cs),
(1045,54,o),
(903,105,o),
(731,105,cs),
(459,105,ls),
(340,105,o),
(216,129,o),
(216,273,cs),
(216,332,o),
(247,377,o),
(294,423,c),
(358,376,o),
(447,348,o),
(545,347,cs),
(771,347,o),
(933,483,o),
(933,712,cs),
(933,781,o),
(917,850,o),
(881,910,c),
(1052,1062,l),
(999,1128,l),
(828,974,l),
(752,1055,o),
(644,1089,o),
(535,1089,cs)
);
},
{
closed = 1;
nodes = (
(721,1004,o),
(836,884,o),
(836,712,cs),
(836,544,o),
(721,430,o),
(545,430,cs),
(367,430,o),
(250,545,o),
(250,714,cs),
(250,883,o),
(370,1004,o),
(546,1004,cs)
);
},
{
closed = 1;
nodes = (
(389,-396,o),
(180,-372,o),
(180,-151,cs),
(180,-138,o),
(180,-124,o),
(182,-112,c),
(328,32,l),
(367,24,o),
(418,21,o),
(458,21,cs),
(718,21,ls),
(852,21,o),
(945,-14,o),
(945,-161,cs),
(942,-370,o),
(733,-396,o),
(567,-396,cs)
);
}
);
width = 1080;
}
);
leftKerningGroup = a;
rightKerningGroup = g1;
unicode = 103;
},
{
glyphname = h;
layers = (
{
layerId = "52CC1650-7CEF-4847-8280-03AE9FE593CD";
shapes = (
{
closed = 1;
nodes = (
(140,0,l),
(434,0,l),
(434,482,ls),
(434,704,o),
(509,816,o),
(658,816,cs),
(751,816,o),
(810,740,o),
(810,621,cs),
(810,0,l),
(1102,0,l),
(1102,656,ls),
(1102,911,o),
(949,1084,o),
(724,1084,cs),
(597,1084,o),
(510,1050,o),
(434,968,c),
(434,1448,l),
(140,1448,l)
);
}
);
width = 1211;
},
{
layerId = "42E87D12-3AB5-40D6-8370-BF79EAF40F29";
shapes = (
{
closed = 1;
nodes = (
(177,0,l),
(340,0,l),
(340,593,ls),
(340,776,o),
(484,929,o),
(657,929,cs),
(793,929,o),
(872,822,o),
(872,635,cs),
(872,0,l),
(1039,0,l),
(1039,657,ls),
(1039,919,o),
(900,1084,o),
(680,1084,cs),
(542,1084,o),
(414,1015,o),
(340,900,c),
(340,1448,l),
(177,1448,l)
);
}
);
width = 1173;
},
{
layerId = "1C230A88-1131-4497-B97C-4D293C298785";
shapes = (
{
closed = 1;
nodes = (
(201,0,l),
(287,0,l),
(287,593,ls),
(287,814,o),
(450,996,o),
(647,996,cs),
(803,996,o),
(902,864,o),
(902,650,cs),
(902,0,l),
(993,0,l),
(993,670,ls),
(993,925,o),
(866,1084,o),
(659,1084,cs),
(508,1084,o),
(363,998,o),
(287,860,c),
(287,1448,l),
(201,1448,l)
);
}
);
width = 1156;
}
);
leftKerningGroup = h;
rightKerningGroup = h1;
unicode = 104;
},
{
glyphname = i;
layers = (
{
layerId = "52CC1650-7CEF-4847-8280-03AE9FE593CD";
shapes = (
{
closed = 1;
nodes = (
(118,1203,l),
(414,1203,l),
(414,1448,l),
(118,1448,l)
);
},
{
closed = 1;
nodes = (
(123,0,l),
(411,0,l),
(411,1064,l),
(123,1064,l)
);
}
);
width = 532;
},
{
layerId = "42E87D12-3AB5-40D6-8370-BF79EAF40F29";
shapes = (
{
closed = 1;
nodes = (
(165,1248,l),
(352,1248,l),
(352,1448,l),
(165,1448,l)
);
},
{
closed = 1;
nodes = (
(173,0,l),
(345,0,l),
(345,1064,l),
(173,1064,l)
);
}
);
width = 517;
},
{
layerId = "1C230A88-1131-4497-B97C-4D293C298785";
shapes = (
{
closed = 1;
nodes = (
(188,1274,l),
(312,1274,l),
(312,1448,l),
(188,1448,l)
);
},
{
closed = 1;
nodes = (
(197,0,l),
(302,0,l),
(302,1064,l),
(197,1064,l)
);
}
);
width = 500;
}
);
leftKerningGroup = a;
rightKerningGroup = i1;
unicode = 105;
},
{
glyphname = j;
layers = (
{
layerId = "52CC1650-7CEF-4847-8280-03AE9FE593CD";
shapes = (
{
closed = 1;
nodes = (
(138,1202,l),
(436,1202,l),
(436,1445,l),
(138,1445,l)
);
},
{
closed = 1;
nodes = (
(-79,-416,l),
(-37,-432,o),
(36,-449,o),
(95,-449,cs),
(293,-449,o),
(433,-317,o),
(433,-105,cs),
(433,1064,l),
(143,1064,l),
(143,-113,ls),
(143,-172,o),
(109,-197,o),
(65,-197,cs),
(53,-197,o),
(19,-190,o),
(-14,-181,c)
);
}
);
width = 573;
},
{
layerId = "42E87D12-3AB5-40D6-8370-BF79EAF40F29";
shapes = (
{
closed = 1;
nodes = (
(167,1248,l),
(354,1248,l),
(354,1448,l),
(167,1448,l)
);
},
{
closed = 1;
nodes = (
(-90,-418,l),
(-45,-436,o),
(24,-450,o),
(69,-450,cs),
(258,-450,o),
(345,-323,o),
(345,-146,cs),
(345,1064,l),
(177,1064,l),
(177,-138,ls),
(177,-221,o),
(160,-295,o),
(70,-295,cs),
(28,-295,o),
(-12,-289,o),
(-53,-278,c)
);
}
);
width = 517;
},
{
layerId = "1C230A88-1131-4497-B97C-4D293C298785";
shapes = (
{
closed = 1;
nodes = (
(193,1274,l),
(317,1274,l),
(317,1448,l),
(193,1448,l)
);
},
{
closed = 1;
nodes = (
(-86,-420,l),
(-54,-434,o),
(24,-450,o),
(61,-450,cs),
(229,-450,o),
(309,-342,o),
(309,-179,cs),
(309,1064,l),
(201,1064,l),
(201,-151,ls),
(201,-241,o),
(187,-355,o),
(64,-355,cs),
(17,-355,o),
(-25,-349,o),
(-66,-335,c)
);
}
);
width = 496;
}
);
leftKerningGroup = a;
rightKerningGroup = j1;
unicode = 106;
},
{
glyphname = k;
layers = (
{
layerId = "52CC1650-7CEF-4847-8280-03AE9FE593CD";
shapes = (
{
closed = 1;
nodes = (
(140,0,l),
(428,0,l),
(428,297,l),
(559,443,l),
(851,0,l),
(1188,0,l),
(757,614,l),
(1155,1064,l),
(781,1064,l),
(428,641,l),
(428,1448,l),
(140,1448,l)
);
}
);
width = 1156;
},
{
layerId = "42E87D12-3AB5-40D6-8370-BF79EAF40F29";
shapes = (
{
closed = 1;
nodes = (
(170,0,l),
(334,0,l),
(334,311,l),
(551,547,l),
(877,0,l),
(1080,0,l),
(663,667,l),
(1018,1064,l),
(802,1064,l),
(334,526,l),
(334,1448,l),
(170,1448,l)
);
}
);
width = 1110;
},
{
layerId = "1C230A88-1131-4497-B97C-4D293C298785";
shapes = (
{
closed = 1;
nodes = (
(204,0,l),
(296,0,l),
(296,309,l),
(558,593,l),
(894,0,l),
(1010,0,l),
(615,680,l),
(932,1064,l),
(819,1064,l),
(296,445,l),
(296,1448,l),
(204,1448,l)
);
}
);
width = 1066;
}
);
leftKerningGroup = h;
rightKerningGroup = k;
unicode = 107;
},
{
glyphname = l;
layers = (
{
layerId = "52CC1650-7CEF-4847-8280-03AE9FE593CD";
shapes = (
{
closed = 1;
nodes = (
(437,-20,o),
(508,-16,o),
(567,0,c),
(567,245,l),
(545,241,o),
(518,238,o),
(508,238,cs),
(448,238,o),
(418,266,o),
(418,318,cs),
(418,1448,l),
(131,1448,l),
(131,214,ls),
(131,20,o),
(240,-20,o),
(371,-20,cs)
);
}
);
width = 572;
},
{
layerId = "42E87D12-3AB5-40D6-8370-BF79EAF40F29";
shapes = (
{
closed = 1;
nodes = (
(421,-16,o),
(477,-10,o),
(530,6,c),
(530,156,l),
(499,146,o),
(467,141,o),
(446,141,cs),
(380,141,o),
(346,178,o),
(346,259,cs),
(346,1448,l),
(173,1448,l),
(174,207,ls),
(174,40,o),
(256,-16,o),
(374,-16,cs)
);
}
);
width = 587;
},
{
layerId = "1C230A88-1131-4497-B97C-4D293C298785";
shapes = (
{
closed = 1;
nodes = (
(411,-14,o),
(456,-6,o),
(505,10,c),
(505,96,l),
(468,82,o),
(433,76,o),
(405,76,cs),
(335,76,o),
(298,119,o),
(298,219,cs),
(298,1448,l),
(202,1448,l),
(202,203,ls),
(202,53,o),
(267,-14,o),
(376,-14,cs)
);
}
);
width = 597;
}
);
leftKerningGroup = a;
rightKerningGroup = l1;
unicode = 108;
},
{
glyphname = m;
layers = (
{
layerId = "52CC1650-7CEF-4847-8280-03AE9FE593CD";
shapes = (
{
closed = 1;
nodes = (
(138,0,l),
(427,0,l),
(427,598,ls),
(427,729,o),
(514,812,o),
(622,812,cs),
(725,812,o),
(763,758,o),
(763,623,cs),
(763,0,l),
(1055,0,l),
(1055,598,ls),
(1055,716,o),
(1125,812,o),
(1250,812,cs),
(1352,812,o),
(1392,752,o),
(1392,618,cs),
(1392,0,l),
(1685,0,l),
(1685,670,ls),
(1685,888,o),
(1540,1082,o),
(1307,1082,cs),
(1177,1082,o),
(1043,1047,o),
(954,946,c),
(875,1041,o),
(792,1084,o),
(671,1084,cs),
(572,1084,o),
(493,1051,o),
(427,986,c),
(427,1064,l),
(138,1064,l)
);
}
);
width = 1795;
},
{
layerId = "42E87D12-3AB5-40D6-8370-BF79EAF40F29";
shapes = (
{
closed = 1;
nodes = (
(175,0,l),
(341,0,l),
(341,608,ls),
(341,771,o),
(428,941,o),
(607,941,cs),
(781,941,o),
(826,782,o),
(826,637,cs),
(826,0,l),
(993,0,l),
(993,608,ls),
(993,768,o),
(1078,941,o),
(1257,941,cs),
(1433,941,o),
(1478,780,o),
(1478,633,cs),
(1478,0,l),
(1645,0,l),
(1645,646,ls),
(1645,881,o),
(1537,1082,o),
(1276,1082,cs),
(1126,1082,o),
(1015,1007,o),
(946,876,c),
(888,1018,o),
(777,1084,o),
(626,1084,cs),
(493,1084,o),
(392,1010,o),
(341,887,c),
(341,1064,l),
(175,1064,l)
);
}
);
width = 1783;
},
{
layerId = "1C230A88-1131-4497-B97C-4D293C298785";
shapes = (
{
closed = 1;
nodes = (
(199,0,l),
(293,0,l),
(293,623,ls),
(293,804,o),
(384,997,o),
(597,997,cs),
(798,997,o),
(856,820,o),
(856,652,cs),
(856,0,l),
(949,0,l),
(949,623,ls),
(949,800,o),
(1041,997,o),
(1249,997,cs),
(1453,997,o),
(1512,820,o),
(1512,648,cs),
(1512,0,l),
(1605,0,l),
(1605,652,ls),
(1605,884,o),
(1510,1084,o),
(1252,1084,cs),
(1084,1084,o),
(990,984,o),
(935,834,c),
(890,1005,o),
(769,1084,o),
(597,1084,cs),
(434,1084,o),
(328,977,o),
(293,846,c),
(293,1064,l),
(199,1064,l)
);
}
);
width = 1769;
}
);
leftKerningGroup = i;
unicode = 109;
},
{
glyphname = n;
layers = (
{
layerId = "52CC1650-7CEF-4847-8280-03AE9FE593CD";
shapes = (
{
closed = 1;
nodes = (
(138,0,l),
(430,0,l,{name = .av02;}),
(430,475,ls),
(430,638,o),
(453,816,o),
(656,816,cs),
(766,816,o),
(808,749,o),
(808,621,cs),
(808,0,l),
(1102,0,l,{name = .av03;}),
(1102,660,ls),
(1102,867,o),
(980,1084,o),
(725,1084,cs),
(605,1084,o),
(509,1051,o),
(430,966,c),
(430,1064,l),
(138,1064,l)
);
}
);
width = 1210;
},
{
layerId = "42E87D12-3AB5-40D6-8370-BF79EAF40F29";
shapes = (
{
closed = 1;
nodes = (
(175,0,l),
(339,0,l,{name = .av02;}),
(339,613,ls),
(339,782,o),
(485,928,o),
(650,928,cs),
(794,928,o),
(870,827,o),
(870,635,cs),
(870,0,l),
(1035,0,l,{name = .av03;}),
(1035,648,ls),
(1035,922,o),
(898,1084,o),
(669,1084,cs),
(535,1084,o),
(412,1018,o),
(339,906,c),
(339,1064,l),
(175,1064,l)
);
}
);
width = 1170;
},
{
layerId = "1C230A88-1131-4497-B97C-4D293C298785";
shapes = (
{
closed = 1;
nodes = (
(199,0,l),
(288,0,l,{name = .av02;}),
(288,632,ls),
(288,825,o),
(452,994,o),
(637,994,cs),
(805,994,o),
(898,871,o),
(898,650,cs),
(898,0,l),
(988,0,l,{name = .av03;}),
(988,654,ls),
(988,931,o),
(864,1084,o),
(640,1084,cs),
(495,1084,o),
(359,1004,o),
(288,870,c),
(288,1064,l),
(199,1064,l)
);
}
);
width = 1151;
}
);
leftKerningGroup = i;
rightKerningGroup = n;
unicode = 110;
},
{
glyphname = o;
layers = (
{
layerId = "52CC1650-7CEF-4847-8280-03AE9FE593CD";
shapes = (
{
closed = 1;
nodes = (
(909,-20,o),
(1112,200,o),
(1112,532,cs,{name = .sh01;}),
(1112,867,o),
(891,1084,o),
(575,1084,cs,{name = .dv04;}),
(248,1084,o),
(38,866,o),
(38,532,cs,{name = .sh02;}),
(38,198,o),
(257,-20,o),
(575,-20,cs,{name = .dv01;})
);
},
{
closed = 1;
nodes = (
(399,225,o),
(333,378,o),
(333,532,cs,{name = .sh03;}),
(333,687,o),
(416,839,o),
(575,839,cs,{name = .dv03;}),
(745,839,o),
(817,678,o),
(817,532,cs,{name = .ah01;}),
(817,371,o),
(744,225,o),
(575,225,cs,{name = .dv02;})
);
}
);
width = 1150;
},
{
layerId = "42E87D12-3AB5-40D6-8370-BF79EAF40F29";
shapes = (
{
closed = 1;
nodes = (
(859,-20,o),
(1039,193,o),
(1039,532,cs,{name = .sh01;}),
(1039,869,o),
(844,1084,o),
(555,1084,cs,{name = .dv04;}),
(261,1084,o),
(73,869,o),
(73,532,cs,{name = .sh02;}),
(73,194,o),
(267,-20,o),
(555,-20,cs,{name = .dv01;})
);
},
{
closed = 1;
nodes = (
(373,128,o),
(250,304,o),
(250,532,cs,{name = .sh03;}),
(250,763,o),
(376,936,o),
(555,936,cs,{name = .dv03;}),
(742,936,o),
(862,763,o),
(862,532,cs,{name = .ah01;}),
(862,295,o),
(745,128,o),
(555,128,cs,{name = .dv02;})
);
}
);
width = 1111;
},
{
layerId = "1C230A88-1131-4497-B97C-4D293C298785";
shapes = (
{
closed = 1;
nodes = (
(825,-20,o),
(990,189,o),
(990,532,cs),
(990,871,o),
(813,1084,o),
(542,1084,cs),
(269,1084,o),
(97,871,o),
(97,532,cs),
(97,192,o),
(274,-20,o),
(542,-20,cs)
);
},
{
closed = 1;
nodes = (
(355,63,o),
(195,255,o),
(195,532,cs),
(195,813,o),
(349,1001,o),
(542,1001,cs),
(740,1001,o),
(892,819,o),
(892,532,cs),
(892,244,o),
(745,63,o),
(542,63,cs)
);
}
);
width = 1085;
}
);
leftKerningGroup = a;
rightKerningGroup = o1;
unicode = 111;
},
{
glyphname = p;
layers = (
{
layerId = "52CC1650-7CEF-4847-8280-03AE9FE593CD";
shapes = (
{
closed = 1;
nodes = (
(140,-449,l),
(432,-449,l),
(432,88,l),
(498,16,o),
(597,-20,o),
(729,-20,cs),
(973,-20,o),
(1158,223,o),
(1158,545,cs),
(1158,845,o),
(963,1084,o),
(716,1084,cs),
(588,1084,o),
(500,1051,o),
(432,975,c),
(432,1064,l),
(140,1064,l)
);
},
{
closed = 1;
nodes = (
(491,248,o),
(407,350,o),
(407,532,cs),
(407,712,o),
(496,826,o),
(637,826,cs),
(778,826,o),
(865,714,o),
(865,532,cs),
(865,362,o),
(774,248,o),
(637,248,cs)
);
}
);
width = 1211;
},
{
layerId = "42E87D12-3AB5-40D6-8370-BF79EAF40F29";
shapes = (
{
closed = 1;
nodes = (
(177,-450,l),
(342,-450,l),
(342,139,l),
(418,33,o),
(528,-20,o),
(668,-20,cs),
(920,-20,o),
(1096,206,o),
(1096,531,cs),
(1096,857,o),
(919,1084,o),
(667,1084,cs),
(525,1084,o),
(417,1031,o),
(342,925,c),
(342,1064,l),
(177,1064,l)
);
},
{
closed = 1;
nodes = (
(444,125,o),
(326,286,o),
(326,532,cs),
(326,775,o),
(446,938,o),
(625,938,cs),
(812,938,o),
(930,780,o),
(930,532,cs),
(930,282,o),
(813,125,o),
(625,125,cs)
);
}
);
width = 1181;
},
{
layerId = "1C230A88-1131-4497-B97C-4D293C298785";
shapes = (
{
closed = 1;
nodes = (
(201,-450,l),
(291,-450,l),
(291,171,l),
(374,42,o),
(486,-20,o),
(641,-20,cs),
(883,-20,o),
(1050,204,o),
(1050,531,cs),
(1050,855,o),
(881,1084,o),
(642,1084,cs),
(483,1084,o),
(373,1023,o),
(291,892,c),
(291,1064,l),
(201,1064,l)
);
},
{
closed = 1;
nodes = (
(419,53,o),
(282,249,o),
(282,532,cs),
(282,808,o),
(421,1005,o),
(615,1005,cs),
(823,1005,o),
(960,818,o),
(960,532,cs),
(960,242,o),
(823,53,o),
(615,53,cs)
);
}
);
width = 1166;
}
);
unicode = 112;
},
{
glyphname = q;
layers = (
{
layerId = "52CC1650-7CEF-4847-8280-03AE9FE593CD";
shapes = (
{
closed = 1;
nodes = (
(1066,-449,l),
(1066,1064,l),
(776,1064,l),
(776,975,l),
(723,1041,o),
(614,1084,o),
(498,1084,cs),
(253,1084,o),
(51,840,o),
(51,545,cs),
(51,215,o),
(237,-20,o),
(495,-20,cs),
(625,-20,o),
(720,17,o),
(776,88,c),
(776,-449,l)
);
},
{
closed = 1;
nodes = (
(428,248,o),
(342,354,o),
(342,532,cs),
(342,706,o),
(434,823,o),
(572,823,cs),
(713,823,o),
(801,712,o),
(801,532,cs),
(801,356,o),
(713,248,o),
(572,248,cs)
);
}
);
width = 1208;
},
{
layerId = "42E87D12-3AB5-40D6-8370-BF79EAF40F29";
shapes = (
{
closed = 1;
nodes = (
(1016,-450,l),
(1016,1064,l),
(849,1064,l),
(849,925,l),
(773,1030,o),
(663,1084,o),
(524,1084,cs),
(271,1084,o),
(96,858,o),
(96,531,cs),
(96,209,o),
(272,-20,o),
(520,-20,cs),
(666,-20,o),
(770,30,o),
(849,139,c),
(849,-450,l)
);
},
{
closed = 1;
nodes = (
(381,125,o),
(264,284,o),
(264,532,cs),
(264,778,o),
(381,938,o),
(564,938,cs),
(747,938,o),
(864,779,o),
(864,532,cs),
(864,281,o),
(749,125,o),
(564,125,cs)
);
}
);
width = 1183;
},
{
layerId = "1C230A88-1131-4497-B97C-4D293C298785";
shapes = (
{
closed = 1;
nodes = (
(979,-450,l),
(979,1064,l),
(885,1064,l),
(885,894,l),
(801,1022,o),
(689,1084,o),
(537,1084,cs),
(292,1084,o),
(128,861,o),
(128,531,cs),
(128,212,o),
(296,-20,o),
(526,-20,cs),
(690,-20,o),
(796,37,o),
(885,171,c),
(885,-450,l)
);
},
{
closed = 1;
nodes = (
(358,53,o),
(222,247,o),
(222,532,cs),
(222,816,o),
(356,1006,o),
(557,1006,cs),
(758,1006,o),
(894,815,o),
(894,532,cs),
(894,243,o),
(760,53,o),
(557,53,cs)
);
}
);
width = 1169;
}
);
leftKerningGroup = a;
unicode = 113;
},
{
glyphname = r;
layers = (
{
layerId = "52CC1650-7CEF-4847-8280-03AE9FE593CD";
shapes = (
{
closed = 1;
nodes = (
(138,0,l),
(414,0,l),
(414,539,ls),
(414,587,o),
(425,635,o),
(445,676,cs),
(482,752,o),
(551,806,o),
(642,806,cs),
(677,806,o),
(704,801,o),
(735,775,c),
(872,1010,l),
(812,1064,o),
(722,1084,o),
(642,1084,cs),
(545,1084,o),
(439,1017,o),
(405,870,c),
(416,877,l),
(416,1064,l),
(138,1064,l)
);
}
);
width = 838;
},
{
layerId = "42E87D12-3AB5-40D6-8370-BF79EAF40F29";
shapes = (
{
closed = 1;
nodes = (
(155,0,l),
(323,0,l),
(323,553,ls),
(323,639,o),
(331,686,o),
(345,726,c),
(387,853,o),
(493,913,o),
(598,913,cs),
(638,913,o),
(675,905,o),
(708,884,c),
(791,1029,l),
(740,1064,o),
(671,1080,o),
(606,1080,cs),
(481,1080,o),
(347,996,o),
(307,824,c),
(324,827,l),
(324,1064,l),
(155,1064,l)
);
}
);
width = 810;
},
{
anchors = (
{
name = top;
position = "{445, 1217}";
}
);
layerId = "21D58847-5E49-4EE6-A12C-3FA6271408C8";
associatedMasterId = "1C230A88-1131-4497-B97C-4D293C298785";
name = 1;
shapes = (
{
closed = 1;
nodes = (
(197,0,l),
(296,0,l),
(296,436,ls),
(296,633,o),
(350,994,o),
(615,994,cs),
(666,994,o),
(720,974,o),
(767,939,c),
(783,1050,l),
(735,1072,o),
(685,1084,o),
(632,1084,cs),
(481,1084,o),
(330,987,o),
(300,833,c),
(300,1064,l),
(197,1064,l)
);
}
);
width = 826;
},
{
layerId = "1C230A88-1131-4497-B97C-4D293C298785";
shapes = (
{
closed = 1;
nodes = (
(166,0,l),
(262,0,l),
(262,562,ls),
(262,673,o),
(268,720,o),
(279,759,cs),
(324,921,o),
(455,984,o),
(569,984,cs),
(612,984,o),
(655,974,o),
(690,957,c),
(737,1041,l),
(692,1064,o),
(637,1078,o),
(582,1078,cs),
(438,1078,o),
(285,982,o),
(242,794,c),
(262,794,l),
(262,1064,l),
(166,1064,l)
);
}
);
width = 792;
}
);
leftKerningGroup = i;
rightKerningGroup = r;
unicode = 114;
},
{
glyphname = s;
layers = (
{
layerId = "52CC1650-7CEF-4847-8280-03AE9FE593CD";
shapes = (
{
closed = 1;
nodes = (
(16,279,l),
(70,95,o),
(272,-20,o),
(455,-20,cs),
(660,-20,o),
(883,83,o),
(883,322,c),
(884,481,o),
(811,572,o),
(672,617,cs),
(539,661,ls),
(413,702,o),
(379,736,o),
(379,780,cs),
(379,817,o),
(415,859,o),
(492,859,cs),
(593,859,o),
(649,810,o),
(688,740,c),
(910,861,l),
(825,1010,o),
(688,1084,o),
(502,1084,cs),
(246,1084,o),
(99,954,o),
(99,725,cs),
(99,557,o),
(221,468,o),
(391,421,cs),
(499,392,ls),
(559,376,o),
(598,351,o),
(598,296,cs),
(598,240,o),
(554,216,o),
(466,216,cs),
(355,216,o),
(282,280,o),
(244,377,c)
);
}
);
width = 951;
},
{
layerId = "42E87D12-3AB5-40D6-8370-BF79EAF40F29";
shapes = (
{
closed = 1;
nodes = (
(50,266,l),
(103,92,o),
(278,-20,o),
(470,-20,cs),
(674,-20,o),
(838,93,o),
(838,302,c),
(838,468,o),
(743,555,o),
(604,594,cs),
(452,637,ls),
(349,666,o),
(267,705,o),
(267,799,cs),
(267,888,o),
(340,950,o),
(452,950,cs),
(573,950,o),
(654,889,o),
(698,788,c),
(828,860,l),
(763,1004,o),
(633,1084,o),
(458,1084,cs),
(244,1084,o),
(105,970,o),
(105,773,cs),
(105,597,o),
(235,534,o),
(383,493,cs),
(526,454,ls),
(608,433,o),
(673,380,o),
(673,288,cs),
(673,178,o),
(599,119,o),
(472,119,cs),
(334,119,o),
(228,199,o),
(187,325,c)
);
}
);
width = 914;
},
{
hints = (
{
horizontal = 1;
place = (-14,80);
type = Stem;
},
{
horizontal = 1;
place = (955,78);
type = Stem;
},
{
place = (128,84);
type = Stem;
},
{
place = (705,85);
type = Stem;
}
);
layerId = "1C230A88-1131-4497-B97C-4D293C298785";
shapes = (
{
closed = 1;
nodes = (
(69,258,l),
(122,90,o),
(281,-20,o),
(478,-20,cs),
(682,-20,o),
(812,99,o),
(812,291,cs),
(812,461,o),
(705,545,o),
(565,581,cs),
(402,623,ls),
(312,646,o),
(203,688,o),
(203,810,cs),
(203,929,o),
(297,1002,o),
(430,1002,cs),
(561,1002,o),
(657,934,o),
(703,815,c),
(782,859,l),
(727,1001,o),
(602,1084,o),
(433,1084,cs),
(243,1084,o),
(108,979,o),
(108,800,cs),
(108,619,o),
(243,571,o),
(379,534,cs),
(542,490,ls),
(636,465,o),
(716,397,o),
(716,283,cs),
(716,143,o),
(625,64,o),
(476,64,cs),
(322,64,o),
(197,153,o),
(154,295,c)
);
}
);
width = 893;
}
);
leftKerningGroup = a;
rightKerningGroup = s1;
unicode = 115;
},
{
glyphname = t;
layers = (
{
layerId = "52CC1650-7CEF-4847-8280-03AE9FE593CD";
shapes = (
{
closed = 1;
nodes = (
(594,-20,o),
(672,-7,o),
(731,14,c),
(731,277,l),
(679,249,o),
(625,236,o),
(575,236,cs),
(504,236,o),
(456,261,o),
(456,346,cs),
(456,821,l),
(721,821,l),
(721,1064,l),
(456,1064,l),
(456,1479,l),
(187,1282,l),
(187,1064,l),
(17,1064,l),
(17,821,l),
(182,821,l),
(182,283,ls),
(182,80,o),
(342,-20,o),
(530,-20,cs)
);
}
);
width = 801;
},
{
layerId = "42E87D12-3AB5-40D6-8370-BF79EAF40F29";
shapes = (
{
closed = 1;
nodes = (
(523,-16,o),
(582,-5,o),
(635,12,c),
(635,164,l),
(588,144,o),
(542,134,o),
(503,134,cs),
(418,134,o),
(380,181,o),
(380,275,cs),
(380,920,l),
(631,920,l),
(631,1064,l),
(380,1064,l),
(380,1415,l),
(215,1301,l),
(215,1064,l),
(46,1064,l),
(46,920,l),
(213,920,l),
(213,246,ls),
(213,64,o),
(325,-16,o),
(471,-16,cs)
);
}
);
width = 712;
},
{
anchors = (
{
name = bottom;
position = "{375, 0}";
},
{
name = center;
position = "{310, 506}";
},
{
name = top;
position = "{325, 1010}";
}
);
layerId = "21D58847-5E49-4EE6-A12C-3FA6271408C8";
associatedMasterId = "1C230A88-1131-4497-B97C-4D293C298785";
name = 1;
shapes = (
{
closed = 1;
nodes = (
(461,-12,o),
(506,-4,o),
(553,10,c),
(553,74,l),
(510,59,o),
(471,51,o),
(438,51,cs),
(346,51,o),
(313,111,o),
(313,217,cs),
(313,1000,l),
(553,1000,l),
(553,1064,l),
(313,1064,l),
(313,1370,l),
(238,1321,l),
(238,1064,l),
(68,1064,l),
(68,1000,l),
(238,1000,l),
(238,211,ls),
(238,51,o),
(307,-12,o),
(422,-12,cs)
);
}
);
width = 635;
},
{
layerId = "1C230A88-1131-4497-B97C-4D293C298785";
shapes = (
{
closed = 1;
nodes = (
(475,-14,o),
(522,-4,o),
(571,10,c),
(571,88,l),
(528,74,o),
(487,66,o),
(455,66,cs),
(360,66,o),
(330,127,o),
(330,227,cs),
(330,986,l),
(571,986,l),
(571,1064,l),
(330,1064,l),
(330,1372,l),
(233,1313,l),
(233,1064,l),
(66,1064,l),
(66,986,l),
(233,986,l),
(233,221,ls),
(233,53,o),
(313,-14,o),
(432,-14,cs)
);
}
);
width = 652;
}
);
leftKerningGroup = t;
rightKerningGroup = t1;
unicode = 116;
},
{
glyphname = u;
layers = (
{
layerId = "52CC1650-7CEF-4847-8280-03AE9FE593CD";
shapes = (
{
closed = 1;
nodes = (
(614,-19,o),
(705,22,o),
(777,104,c),
(777,0,l,{name = .ah01;}),
(1071,0,l,{name = .sh01;}),
(1071,1064,l,{name = .av01;}),
(777,1064,l,{name = .sh02;}),
(777,549,ls),
(777,350,o),
(695,259,o),
(569,259,cs,{name = .dv02;}),
(461,259,o),
(397,317,o),
(397,444,cs),
(397,1064,l,{name = .av02;}),
(106,1064,l,{name = .sh03;}),
(106,412,ls),
(106,155,o),
(281,-19,o),
(492,-19,cs,{name = .dv01;})
);
}
);
width = 1211;
},
{
layerId = "42E87D12-3AB5-40D6-8370-BF79EAF40F29";
shapes = (
{
closed = 1;
nodes = (
(646,-19,o),
(780,56,o),
(841,179,c),
(841,0,l,{name = .ah01;}),
(1005,0,l,{name = .sh01;}),
(1005,1064,l,{name = .av01;}),
(841,1064,l,{name = .sh02;}),
(841,477,ls),
(841,302,o),
(723,125,o),
(535,125,cs,{name = .dv02;}),
(355,125,o),
(311,279,o),
(311,430,cs),
(311,1064,l,{name = .av02;}),
(146,1064,l,{name = .sh03;}),
(146,438,ls),
(146,204,o),
(245,-19,o),
(512,-19,cs,{name = .dv01;})
);
}
);
width = 1166;
},
{
layerId = "1C230A88-1131-4497-B97C-4D293C298785";
shapes = (
{
closed = 1;
nodes = (
(674,-19,o),
(829,82,o),
(874,226,c),
(874,0,l,{name = .ah01;}),
(961,0,l,{name = .sh01;}),
(961,1064,l,{name = .av01;}),
(874,1064,l,{name = .sh02;}),
(874,424,ls),
(874,245,o),
(698,67,o),
(516,67,cs,{name = .dv02;}),
(313,67,o),
(265,250,o),
(265,415,cs),
(265,1064,l,{name = .av02;}),
(176,1064,l,{name = .sh03;}),
(176,434,ls),
(176,204,o),
(258,-19,o),
(523,-19,cs,{name = .dv01;})
);
}
);
width = 1147;
}
);
leftKerningGroup = a;
rightKerningGroup = u1;
unicode = 117;
},
{
glyphname = v;
layers = (
{
layerId = "52CC1650-7CEF-4847-8280-03AE9FE593CD";
shapes = (
{
closed = 1;
nodes = (
(632,0,l),
(1061,1064,l),
(750,1064,l),
(517,367,l),
(285,1064,l),
(-27,1064,l),
(401,0,l)
);
}
);
width = 1033;
},
{
layerId = "42E87D12-3AB5-40D6-8370-BF79EAF40F29";
shapes = (
{
closed = 1;
nodes = (
(582,0,l),
(982,1064,l),
(799,1064,l),
(507,221,l),
(217,1064,l),
(29,1064,l),
(432,0,l)
);
}
);
width = 1008;
},
{
layerId = "1C230A88-1131-4497-B97C-4D293C298785";
shapes = (
{
closed = 1;
nodes = (
(545,0,l),
(918,1064,l),
(818,1064,l),
(497,122,l),
(180,1064,l),
(73,1064,l),
(449,0,l)
);
}
);
width = 984;
}
);
leftKerningGroup = v;
unicode = 118;
},
{
glyphname = w;
layers = (
{
layerId = "52CC1650-7CEF-4847-8280-03AE9FE593CD";
shapes = (
{
closed = 1;
nodes = (
(569,-5,l),
(751,653,l),
(936,0,l),
(1188,0,l),
(1513,1064,l),
(1210,1064,l),
(1047,450,l),
(873,1064,l),
(633,1064,l),
(457,448,l),
(298,1064,l),
(-5,1064,l),
(317,-5,l)
);
}
);
width = 1506;
},
{
layerId = "42E87D12-3AB5-40D6-8370-BF79EAF40F29";
shapes = (
{
closed = 1;
nodes = (
(511,-2,l),
(759,830,l),
(1002,0,l),
(1167,0,l),
(1470,1064,l),
(1287,1064,l),
(1074,249,l),
(836,1064,l),
(681,1064,l),
(440,247,l),
(226,1064,l),
(43,1064,l),
(346,-2,l)
);
}
);
width = 1510;
},
{
layerId = "1C230A88-1131-4497-B97C-4D293C298785";
shapes = (
{
closed = 1;
nodes = (
(471,0,l),
(753,942,l),
(1025,0,l),
(1131,0,l),
(1413,1064,l),
(1308,1064,l),
(1070,121,l),
(799,1064,l),
(701,1064,l),
(427,119,l),
(186,1064,l),
(83,1064,l),
(365,0,l)
);
}
);
width = 1489;
}
);
leftKerningGroup = v;
rightKerningGroup = w1;
unicode = 119;
},
{
glyphname = x;
widthMetricsKey = "=1027";
layers = (
{
layerId = "52CC1650-7CEF-4847-8280-03AE9FE593CD";
shapes = (
{
closed = 1;
nodes = (
(741,0,l),
(1092,0,l),
(739,511,l),
(542,695,l),
(342,1064,l),
(-4,1064,l),
(344,511,l),
(542,325,l)
);
},
{
closed = 1;
nodes = (
(-4,0,l),
(342,0,l),
(558,351,l),
(361,536,l)
);
},
{
closed = 1;
nodes = (
(525,669,l),
(722,486,l),
(1092,1064,l),
(741,1064,l)
);
}
);
width = 1089;
},
{
layerId = "42E87D12-3AB5-40D6-8370-BF79EAF40F29";
shapes = (
{
closed = 1;
nodes = (
(793,0,l),
(1007,0,l),
(642,523,l),
(526,640,l),
(257,1064,l),
(44,1064,l),
(406,525,l),
(522,407,l)
);
},
{
closed = 1;
nodes = (
(44,0,l),
(257,0,l),
(542,432,l),
(425,552,l)
);
},
{
closed = 1;
nodes = (
(506,615,l),
(623,497,l),
(1006,1064,l),
(793,1064,l)
);
}
);
width = 1052;
},
{
layerId = "1C230A88-1131-4497-B97C-4D293C298785";
shapes = (
{
closed = 1;
nodes = (
(828,0,l),
(950,0,l),
(577,531,l),
(515,604,l),
(200,1064,l),
(76,1064,l),
(447,535,l),
(509,461,l)
);
},
{
closed = 1;
nodes = (
(76,0,l),
(200,0,l),
(532,486,l),
(468,562,l)
);
},
{
closed = 1;
nodes = (
(493,579,l),
(557,504,l),
(948,1064,l),
(827,1064,l)
);
}
);
width = 1027;
}
);
unicode = 120;
},
{
glyphname = y;
layers = (
{
layerId = "52CC1650-7CEF-4847-8280-03AE9FE593CD";
shapes = (
{
closed = 1;
nodes = (
(498,-440,l),
(1092,1064,l),
(778,1064,l),
(531,355,l),
(290,1064,l),
(-22,1064,l),
(376,34,l),
(184,-440,l)
);
}
);
width = 1069;
},
{
layerId = "42E87D12-3AB5-40D6-8370-BF79EAF40F29";
shapes = (
{
closed = 1;
nodes = (
(438,-441,l),
(1014,1064,l),
(824,1064,l),
(524,221,l),
(219,1064,l),
(28,1064,l),
(439,20,l),
(256,-441,l)
);
}
);
width = 1038;
},
{
layerId = "1C230A88-1131-4497-B97C-4D293C298785";
shapes = (
{
closed = 1;
nodes = (
(400,-441,l),
(949,1064,l),
(839,1064,l),
(517,124,l),
(181,1064,l),
(70,1064,l),
(477,1,l),
(303,-441,l)
);
}
);
width = 1011;
}
);
leftKerningGroup = v;
rightKerningGroup = y1;
unicode = 121;
},
{
glyphname = z;
layers = (
{
layerId = "52CC1650-7CEF-4847-8280-03AE9FE593CD";
shapes = (
{
closed = 1;
nodes = (
(980,0,l),
(980,240,l),
(452,240,l),
(980,865,l),
(980,1064,l),
(78,1064,l),
(78,821,l),
(602,821,l),
(49,185,l),
(49,0,l)
);
}
);
width = 1049;
},
{
layerId = "42E87D12-3AB5-40D6-8370-BF79EAF40F29";
shapes = (
{
closed = 1;
nodes = (
(914,0,l),
(914,141,l),
(283,141,l),
(914,928,l),
(914,1064,l),
(94,1064,l),
(94,925,l),
(710,925,l),
(64,125,l),
(64,0,l)
);
}
);
width = 986;
},
{
layerId = "1C230A88-1131-4497-B97C-4D293C298785";
shapes = (
{
closed = 1;
nodes = (
(863,0,l),
(863,82,l),
(184,82,l),
(863,964,l),
(863,1064,l),
(117,1064,l),
(117,985,l),
(770,985,l),
(87,89,l),
(87,0,l)
);
}
);
width = 952;
}
);
leftKerningGroup = z;
rightKerningGroup = z1;
unicode = 122;
},
{
glyphname = braceleft;
layers = (
{
layerId = "52CC1650-7CEF-4847-8280-03AE9FE593CD";
shapes = (
{
closed = 1;
nodes = (
(176,-19,ls),
(176,-193,o),
(256,-284,o),
(426,-284,cs),
(594,-284,l),
(594,-79,l),
(493,-79,ls),
(429,-79,o),
(416,-39,o),
(416,44,cs),
(416,463,ls),
(416,577,o),
(363,654,o),
(287,693,c),
(361,741,o),
(416,805,o),
(416,913,cs),
(416,1373,ls),
(416,1410,o),
(463,1443,o),
(493,1443,cs),
(594,1443,l),
(594,1647,l),
(426,1647,ls),
(247,1647,o),
(176,1554,o),
(176,1367,cs),
(176,929,ls),
(176,862,o),
(134,819,o),
(42,790,c),
(42,593,l),
(136,555,o),
(176,517,o),
(176,445,cs)
);
}
);
width = 641;
},
{
layerId = "42E87D12-3AB5-40D6-8370-BF79EAF40F29";
shapes = (
{
closed = 1;
nodes = (
(215,106,ls),
(215,-50,o),
(297,-131,o),
(443,-131,cs),
(542,-131,l),
(542,-34,l),
(493,-34,ls),
(408,-34,o),
(364,18,o),
(364,118,cs),
(364,492,ls),
(364,573,o),
(317,623,o),
(208,666,c),
(319,705,o),
(364,780,o),
(364,871,cs),
(364,1363,ls),
(364,1425,o),
(403,1456,o),
(480,1456,cs),
(542,1456,l),
(542,1554,l),
(443,1554,ls),
(293,1554,o),
(215,1480,o),
(215,1327,cs),
(215,888,ls),
(215,806,o),
(174,757,o),
(81,732,c),
(81,609,l),
(170,580,o),
(215,536,o),
(215,481,cs)
);
}
);
width = 614;
},
{
layerId = "1C230A88-1131-4497-B97C-4D293C298785";
shapes = (
{
closed = 1;
nodes = (
(242,87,ls),
(242,-46,o),
(304,-107,o),
(445,-107,cs),
(515,-107,l),
(515,-44,l),
(500,-44,ls),
(391,-44,o),
(337,9,o),
(337,125,cs),
(337,482,ls),
(337,569,o),
(296,608,o),
(171,651,c),
(294,676,o),
(337,757,o),
(337,844,cs),
(337,1324,ls),
(337,1403,o),
(378,1436,o),
(476,1436,cs),
(515,1436,l),
(515,1500,l),
(445,1500,ls),
(303,1500,o),
(242,1438,o),
(242,1304,cs),
(242,864,ls),
(242,773,o),
(193,713,o),
(108,698,c),
(108,609,l),
(194,576,o),
(242,523,o),
(242,466,cs)
);
}
);
width = 606;
}
);
unicode = 123;
},
{
glyphname = bar;
layers = (
{
layerId = "52CC1650-7CEF-4847-8280-03AE9FE593CD";
shapes = (
{
closed = 1;
nodes = (
(425,-524,l),
(425,1571,l),
(212,1571,l),
(212,-524,l)
);
}
);
width = 638;
},
{
layerId = "42E87D12-3AB5-40D6-8370-BF79EAF40F29";
shapes = (
{
closed = 1;
nodes = (
(379,-525,l),
(379,1571,l),
(257,1571,l),
(257,-525,l)
);
}
);
width = 637;
},
{
layerId = "1C230A88-1131-4497-B97C-4D293C298785";
shapes = (
{
closed = 1;
nodes = (
(350,-525,l),
(350,1571,l),
(284,1571,l),
(284,-525,l)
);
}
);
width = 637;
}
);
unicode = 124;
},
{
glyphname = braceright;
layers = (
{
layerId = "52CC1650-7CEF-4847-8280-03AE9FE593CD";
shapes = (
{
closed = 1;
nodes = (
(465,-19,ls),
(465,-193,o),
(385,-284,o),
(215,-284,cs),
(47,-284,l),
(47,-79,l),
(148,-79,ls),
(212,-79,o),
(225,-39,o),
(225,44,cs),
(225,463,ls),
(225,577,o),
(278,654,o),
(354,693,c),
(280,741,o),
(225,805,o),
(225,913,cs),
(225,1373,ls),
(225,1410,o),
(178,1443,o),
(148,1443,cs),
(47,1443,l),
(47,1647,l),
(215,1647,ls),
(394,1647,o),
(465,1554,o),
(465,1367,cs),
(465,929,ls),
(465,862,o),
(507,819,o),
(599,790,c),
(599,593,l),
(505,555,o),
(465,517,o),
(465,445,cs)
);
}
);
width = 641;
},
{
layerId = "42E87D12-3AB5-40D6-8370-BF79EAF40F29";
shapes = (
{
closed = 1;
nodes = (
(399,106,ls),
(399,-50,o),
(317,-131,o),
(171,-131,cs),
(72,-131,l),
(72,-34,l),
(121,-34,ls),
(206,-34,o),
(250,18,o),
(250,118,cs),
(250,492,ls),
(250,573,o),
(297,623,o),
(406,666,c),
(295,705,o),
(250,780,o),
(250,871,cs),
(250,1363,ls),
(250,1425,o),
(211,1456,o),
(134,1456,cs),
(72,1456,l),
(72,1554,l),
(171,1554,ls),
(321,1554,o),
(399,1480,o),
(399,1327,cs),
(399,888,ls),
(399,806,o),
(440,757,o),
(533,732,c),
(533,609,l),
(444,580,o),
(399,536,o),
(399,481,cs)
);
}
);
width = 614;
},
{
layerId = "1C230A88-1131-4497-B97C-4D293C298785";
shapes = (
{
closed = 1;
nodes = (
(364,87,ls),
(364,-46,o),
(302,-107,o),
(161,-107,cs),
(91,-107,l),
(91,-44,l),
(106,-44,ls),
(215,-44,o),
(269,9,o),
(269,125,cs),
(269,482,ls),
(269,569,o),
(310,608,o),
(435,651,c),
(312,676,o),
(269,757,o),
(269,844,cs),
(269,1324,ls),
(269,1403,o),
(228,1436,o),
(130,1436,cs),
(91,1436,l),
(91,1500,l),
(161,1500,ls),
(303,1500,o),
(364,1438,o),
(364,1304,cs),
(364,864,ls),
(364,773,o),
(413,713,o),
(498,698,c),
(498,609,l),
(412,576,o),
(364,523,o),
(364,466,cs)
);
}
);
width = 606;
}
);
unicode = 125;
},
{
glyphname = asciitilde;
layers = (
{
layerId = "52CC1650-7CEF-4847-8280-03AE9FE593CD";
shapes = (
{
closed = 1;
nodes = (
(363,416,l),
(363,457,o),
(390,463,o),
(407,463,cs),
(474,463,o),
(553,383,o),
(746,383,cs),
(934,383,o),
(1022,475,o),
(1022,660,c),
(809,660,l),
(809,624,o),
(780,590,o),
(742,590,cs),
(707,590,o),
(498,667,o),
(408,667,cs),
(259,667,o),
(161,594,o),
(161,416,c)
);
}
);
width = 1184;
},
{
layerId = "42E87D12-3AB5-40D6-8370-BF79EAF40F29";
shapes = (
{
closed = 1;
nodes = (
(321,417,l),
(321,482,o),
(338,557,o),
(419,557,cs),
(529,557,o),
(605,395,o),
(764,395,cs),
(925,395,o),
(981,513,o),
(981,659,c),
(866,659,l),
(866,592,o),
(851,506,o),
(765,506,cs),
(659,506,o),
(590,666,o),
(413,666,cs),
(267,666,o),
(211,549,o),
(211,417,c)
);
}
);
width = 1190;
},
{
layerId = "1C230A88-1131-4497-B97C-4D293C298785";
shapes = (
{
closed = 1;
nodes = (
(294,417,l),
(294,502,o),
(313,607,o),
(415,607,cs),
(549,607,o),
(588,382,o),
(751,382,cs),
(908,382,o),
(956,528,o),
(956,657,c),
(890,657,l),
(890,569,o),
(877,445,o),
(763,445,cs),
(629,445,o),
(611,664,o),
(415,664,cs),
(287,664,o),
(238,522,o),
(238,417,c)
);
}
);
width = 1192;
}
);
unicode = 126;
},
{
glyphname = exclamdown;
layers = (
{
layerId = "52CC1650-7CEF-4847-8280-03AE9FE593CD";
shapes = (
{
closed = 1;
nodes = (
(477,724,l),
(477,1023,l),
(176,1023,l),
(176,724,l)
);
},
{
closed = 1;
nodes = (
(464,-444,l),
(435,565,l),
(218,565,l),
(188,-444,l)
);
}
);
width = 653;
},
{
layerId = "42E87D12-3AB5-40D6-8370-BF79EAF40F29";
shapes = (
{
closed = 1;
nodes = (
(426,816,l),
(426,1022,l),
(216,1022,l),
(216,816,l)
);
},
{
closed = 1;
nodes = (
(413,-446,l),
(384,626,l),
(258,626,l),
(230,-446,l)
);
}
);
width = 644;
},
{
layerId = "1C230A88-1131-4497-B97C-4D293C298785";
shapes = (
{
closed = 1;
nodes = (
(397,871,l),
(397,1022,l),
(242,1022,l),
(242,871,l)
);
},
{
closed = 1;
nodes = (
(384,-448,l),
(355,660,l),
(284,660,l),
(256,-448,l)
);
}
);
width = 642;
}
);
unicode = 161;
},
{
glyphname = cent;
layers = (
{
layerId = "52CC1650-7CEF-4847-8280-03AE9FE593CD";
shapes = (
{
closed = 1;
nodes = (
(744,-210,l),
(744,-23,l),
(909,9,o),
(1018,109,o),
(1090,294,c),
(856,386,l),
(809,243,o),
(756,197,o),
(641,197,cs),
(493,197,o),
(404,315,o),
(404,510,cs),
(404,700,o),
(497,821,o),
(641,821,cs),
(763,821,o),
(818,774,o),
(856,633,c),
(1105,728,l),
(1023,916,o),
(917,1007,o),
(744,1041,c),
(744,1229,l),
(532,1229,l),
(532,1041,l),
(309,1003,o),
(144,783,o),
(144,524,cs),
(144,235,o),
(300,14,o),
(532,-24,c),
(532,-210,l)
);
}
);
width = 1229;
},
{
layerId = "42E87D12-3AB5-40D6-8370-BF79EAF40F29";
shapes = (
{
closed = 1;
nodes = (
(707,-211,l),
(707,-18,l),
(870,2,o),
(981,92,o),
(1043,254,c),
(896,315,l),
(859,198,o),
(767,128,o),
(649,128,cs),
(476,128,o),
(367,275,o),
(367,509,cs),
(367,740,o),
(478,890,o),
(649,890,cs),
(767,890,o),
(862,819,o),
(896,703,c),
(1055,768,l),
(986,923,o),
(867,1014,o),
(707,1036,c),
(707,1228,l),
(586,1228,l),
(586,1036,l),
(349,1002,o),
(197,797,o),
(197,509,cs),
(197,219,o),
(350,12,o),
(586,-16,c),
(586,-211,l)
);
}
);
width = 1229;
},
{
layerId = "1C230A88-1131-4497-B97C-4D293C298785";
shapes = (
{
closed = 1;
nodes = (
(686,-211,l),
(686,-16,l),
(846,-2,o),
(952,78,o),
(1014,230,c),
(920,273,l),
(885,167,o),
(771,88,o),
(655,88,cs),
(466,88,o),
(344,252,o),
(344,509,cs),
(344,761,o),
(470,930,o),
(655,930,cs),
(771,930,o),
(889,847,o),
(920,745,c),
(1025,792,l),
(965,927,o),
(846,1012,o),
(686,1034,c),
(686,1228,l),
(618,1228,l),
(618,1034,l),
(382,1011,o),
(229,804,o),
(229,509,cs),
(229,212,o),
(388,-1,o),
(618,-14,c),
(618,-211,l)
);
}
);
width = 1229;
}
);
leftKerningGroup = a;
unicode = 162;
},
{
glyphname = sterling;
layers = (
{
layerId = "52CC1650-7CEF-4847-8280-03AE9FE593CD";
shapes = (
{
closed = 1;
nodes = (
(139,0,l),
(1214,0,l),
(1214,238,l),
(512,238,l),
(582,321,o),
(627,415,o),
(627,471,cs),
(627,519,o),
(613,567,o),
(600,606,c),
(1051,606,l),
(1051,844,l),
(562,844,l),
(532,949,o),
(521,1023,o),
(521,1063,cs),
(521,1200,o),
(604,1246,o),
(737,1246,cs),
(833,1246,o),
(907,1183,o),
(944,1076,c),
(1165,1157,l),
(1102,1339,o),
(950,1486,o),
(737,1486,cs),
(435,1486,o),
(281,1286,o),
(281,1079,cs),
(281,1004,o),
(295,916,o),
(315,844,c),
(143,844,l),
(143,606,l),
(372,606,l),
(384,568,o),
(392,524,o),
(392,480,cs),
(392,397,o),
(281,296,o),
(139,248,c)
);
}
);
width = 1229;
},
{
layerId = "42E87D12-3AB5-40D6-8370-BF79EAF40F29";
shapes = (
{
closed = 1;
nodes = (
(145,0,l),
(1189,0,l),
(1189,145,l),
(373,145,l),
(487,239,o),
(539,343,o),
(539,481,cs),
(539,534,o),
(532,592,o),
(518,648,c),
(967,648,l),
(967,792,l),
(481,792,l),
(454,853,o),
(432,978,o),
(432,1043,cs),
(432,1206,o),
(524,1325,o),
(697,1325,cs),
(817,1325,o),
(903,1239,o),
(945,1125,c),
(1081,1175,l),
(1021,1342,o),
(878,1469,o),
(693,1469,cs),
(444,1469,o),
(287,1282,o),
(287,1042,cs),
(287,982,o),
(308,847,o),
(336,792,c),
(148,792,l),
(148,648,l),
(370,648,l),
(385,588,o),
(396,531,o),
(396,475,cs),
(396,355,o),
(288,207,o),
(145,130,c)
);
}
);
width = 1229;
},
{
layerId = "1C230A88-1131-4497-B97C-4D293C298785";
shapes = (
{
closed = 1;
nodes = (
(149,0,l),
(1175,0,l),
(1175,90,l),
(289,90,l),
(434,225,o),
(489,324,o),
(489,473,cs),
(489,543,o),
(479,612,o),
(461,674,c),
(917,674,l),
(917,762,l),
(434,762,l),
(407,820,o),
(379,965,o),
(379,1030,cs),
(379,1212,o),
(482,1371,o),
(674,1371,cs),
(813,1371,o),
(903,1267,o),
(947,1153,c),
(1031,1186,l),
(973,1345,o),
(838,1459,o),
(668,1459,cs),
(425,1459,o),
(290,1252,o),
(290,1027,cs),
(290,976,o),
(319,805,o),
(347,762,c),
(152,762,l),
(152,674,l),
(370,674,l),
(385,609,o),
(400,541,o),
(400,465,cs),
(400,364,o),
(286,182,o),
(149,60,c)
);
}
);
width = 1229;
}
);
unicode = 163;
},
{
glyphname = currency;
layers = (
{
layerId = "52CC1650-7CEF-4847-8280-03AE9FE593CD";
shapes = (
{
closed = 1;
nodes = (
(120,548,o),
(146,462,o),
(198,378,c),
(88,270,l),
(238,120,l),
(347,229,l),
(429,176,o),
(517,150,o),
(614,150,cs),
(706,150,o),
(795,176,o),
(882,229,c),
(994,117,l),
(1142,270,l),
(1031,376,l),
(1084,458,o),
(1112,548,o),
(1112,646,cs),
(1112,735,o),
(1087,833,o),
(1031,915,c),
(1142,1023,l),
(992,1169,l),
(882,1063,l),
(801,1114,o),
(714,1141,o),
(619,1141,cs),
(531,1141,o),
(431,1117,o),
(349,1061,c),
(237,1171,l),
(90,1019,l),
(198,913,l),
(146,826,o),
(120,736,o),
(120,643,cs)
);
},
{
closed = 1;
nodes = (
(327,805,o),
(456,932,o),
(615,932,cs),
(773,932,o),
(902,807,o),
(902,649,cs),
(902,492,o),
(772,356,o),
(614,356,cs),
(459,356,o),
(327,488,o),
(327,642,cs)
);
}
);
width = 1229;
},
{
layerId = "42E87D12-3AB5-40D6-8370-BF79EAF40F29";
shapes = (
{
closed = 1;
nodes = (
(151,549,o),
(181,457,o),
(242,376,c),
(135,269,l),
(233,166,l),
(339,275,l),
(422,214,o),
(513,184,o),
(613,184,cs),
(712,184,o),
(802,214,o),
(885,275,c),
(993,166,l),
(1091,269,l),
(986,374,l),
(1047,453,o),
(1076,544,o),
(1076,646,cs),
(1076,747,o),
(1047,838,o),
(986,918,c),
(1091,1023,l),
(991,1123,l),
(885,1018,l),
(806,1077,o),
(717,1108,o),
(617,1108,cs),
(515,1108,o),
(422,1077,o),
(341,1015,c),
(235,1125,l),
(137,1019,l),
(242,915,l),
(182,836,o),
(151,747,o),
(151,647,cs)
);
},
{
closed = 1;
nodes = (
(290,819,o),
(436,967,o),
(614,967,cs),
(789,967,o),
(935,821,o),
(935,646,cs),
(935,469,o),
(790,321,o),
(612,321,cs),
(435,321,o),
(290,465,o),
(290,642,cs)
);
}
);
width = 1229;
},
{
layerId = "1C230A88-1131-4497-B97C-4D293C298785";
shapes = (
{
closed = 1;
nodes = (
(170,545,o),
(204,455,o),
(268,374,c),
(163,269,l),
(233,194,l),
(335,301,l),
(414,237,o),
(506,204,o),
(613,204,cs),
(718,204,o),
(806,237,o),
(888,301,c),
(993,194,l),
(1061,269,l),
(961,372,l),
(1024,451,o),
(1057,542,o),
(1057,646,cs),
(1057,747,o),
(1024,838,o),
(961,920,c),
(1061,1023,l),
(991,1094,l),
(888,991,l),
(809,1054,o),
(719,1089,o),
(617,1089,cs),
(513,1089,o),
(420,1056,o),
(337,988,c),
(235,1096,l),
(165,1019,l),
(268,917,l),
(203,839,o),
(170,750,o),
(170,650,cs)
);
},
{
closed = 1;
nodes = (
(269,830,o),
(426,987,o),
(614,987,cs),
(798,987,o),
(955,828,o),
(955,644,cs),
(955,456,o),
(800,302,o),
(612,302,cs),
(422,302,o),
(269,454,o),
(269,642,cs)
);
}
);
width = 1229;
}
);
unicode = 164;
},
{
glyphname = yen;
layers = (
{
layerId = "52CC1650-7CEF-4847-8280-03AE9FE593CD";
shapes = (
{
closed = 1;
nodes = (
(735,0,l),
(735,159,l),
(1039,159,l),
(1039,374,l),
(735,374,l),
(735,494,l),
(1039,494,l),
(1039,710,l),
(834,710,l),
(1318,1448,l),
(1029,1448,l),
(614,772,l),
(199,1448,l),
(-90,1448,l),
(393,713,l),
(187,713,l),
(187,494,l),
(493,494,l),
(493,374,l),
(187,374,l),
(187,159,l),
(493,159,l),
(493,0,l)
);
}
);
width = 1229;
},
{
layerId = "42E87D12-3AB5-40D6-8370-BF79EAF40F29";
shapes = (
{
closed = 1;
nodes = (
(691,0,l),
(691,290,l),
(999,290,l),
(999,417,l),
(691,417,l),
(691,540,l),
(999,540,l),
(999,667,l),
(751,667,l),
(1238,1448,l),
(1058,1448,l),
(616,731,l),
(172,1448,l),
(-9,1448,l),
(477,667,l),
(231,667,l),
(231,540,l),
(537,540,l),
(537,417,l),
(231,417,l),
(231,290,l),
(537,290,l),
(537,0,l)
);
}
);
width = 1229;
},
{
layerId = "1C230A88-1131-4497-B97C-4D293C298785";
shapes = (
{
closed = 1;
nodes = (
(667,0,l),
(667,367,l),
(975,367,l),
(975,441,l),
(667,441,l),
(667,567,l),
(975,567,l),
(975,643,l),
(703,643,l),
(1191,1448,l),
(1075,1448,l),
(616,707,l),
(157,1448,l),
(38,1448,l),
(527,640,l),
(257,640,l),
(257,567,l),
(563,567,l),
(563,441,l),
(257,441,l),
(257,367,l),
(563,367,l),
(563,0,l)
);
}
);
width = 1229;
}
);
unicode = 165;
},
{
glyphname = brokenbar;
layers = (
{
layerId = "52CC1650-7CEF-4847-8280-03AE9FE593CD";
shapes = (
{
closed = 1;
nodes = (
(456,749,l),
(456,1510,l),
(212,1510,l),
(212,749,l)
);
},
{
closed = 1;
nodes = (
(456,-314,l),
(456,430,l),
(212,430,l),
(212,-314,l)
);
}
);
width = 669;
},
{
layerId = "42E87D12-3AB5-40D6-8370-BF79EAF40F29";
shapes = (
{
closed = 1;
nodes = (
(377,750,l),
(377,1510,l),
(255,1510,l),
(255,750,l)
);
},
{
closed = 1;
nodes = (
(377,-315,l),
(377,429,l),
(255,429,l),
(255,-315,l)
);
}
);
width = 634;
},
{
layerId = "1C230A88-1131-4497-B97C-4D293C298785";
shapes = (
{
closed = 1;
nodes = (
(337,750,l),
(337,1510,l),
(287,1510,l),
(287,750,l)
);
},
{
closed = 1;
nodes = (
(337,-315,l),
(337,427,l),
(287,427,l),
(287,-315,l)
);
}
);
width = 624;
}
);
unicode = 166;
},
{
glyphname = section;
layers = (
{
layerId = "52CC1650-7CEF-4847-8280-03AE9FE593CD";
shapes = (
{
closed = 1;
nodes = (
(98,239,l),
(142,86,o),
(320,-18,o),
(539,-18,cs),
(804,-18,o),
(1000,115,o),
(1000,297,cs),
(1000,388,o),
(946,467,o),
(845,519,c),
(845,476,l),
(941,537,o),
(980,605,o),
(980,705,cs),
(980,863,o),
(894,934,o),
(665,997,c),
(392,1069,l),
(390,1072,o),
(362,1103,o),
(362,1143,cs),
(362,1205,o),
(440,1250,o),
(535,1250,cs),
(627,1250,o),
(691,1210,o),
(730,1163,c),
(945,1300,l),
(891,1391,o),
(711,1468,o),
(554,1468,cs),
(302,1468,o),
(131,1336,o),
(131,1141,cs),
(131,1065,o),
(178,985,o),
(260,934,c),
(260,974,l),
(172,917,o),
(129,843,o),
(129,744,cs),
(129,580,o),
(212,510,o),
(506,442,cs),
(612,417,ls),
(698,398,o),
(741,358,o),
(741,303,cs),
(741,243,o),
(675,210,o),
(565,210,cs),
(451,210,o),
(352,267,o),
(319,350,c)
);
},
{
closed = 1;
nodes = (
(367,811,o),
(411,862,o),
(473,877,c),
(406,883,l),
(419,872,o),
(435,864,o),
(447,861,cs),
(474,855,ls),
(673,808,o),
(741,768,o),
(741,693,cs),
(741,642,o),
(697,602,o),
(629,591,c),
(683,594,l),
(678,597,o),
(655,603,o),
(616,610,cs),
(550,623,l),
(459,640,o),
(367,705,o),
(367,754,cs)
);
}
);
width = 1104;
},
{
layerId = "42E87D12-3AB5-40D6-8370-BF79EAF40F29";
shapes = (
{
closed = 1;
nodes = (
(176,228,l),
(234,74,o),
(388,-18,o),
(577,-18,cs),
(798,-18,o),
(941,102,o),
(941,284,cs),
(941,381,o),
(895,457,o),
(814,508,c),
(814,463,l),
(895,522,o),
(941,607,o),
(941,705,cs),
(941,865,o),
(848,947,o),
(605,1000,cs),
(572,1007,ls),
(427,1037,o),
(334,1068,o),
(334,1166,cs),
(334,1264,o),
(433,1333,o),
(557,1333,cs),
(674,1333,o),
(776,1282,o),
(822,1202,c),
(924,1275,l),
(856,1397,o),
(724,1468,o),
(551,1468,cs),
(347,1468,o),
(184,1344,o),
(184,1173,cs),
(184,1067,o),
(229,996,o),
(320,942,c),
(317,989,l),
(226,920,o),
(182,839,o),
(182,744,cs),
(182,586,o),
(281,516,o),
(546,450,cs),
(578,442,ls),
(729,404,o),
(796,356,o),
(796,267,cs),
(796,174,o),
(716,118,o),
(579,118,cs),
(445,118,o),
(342,183,o),
(301,297,c)
);
},
{
closed = 1;
nodes = (
(329,832,o),
(384,900,o),
(477,925,c),
(414,923,l),
(447,912,o),
(479,903,o),
(530,893,cs),
(564,887,l),
(733,850,o),
(796,802,o),
(796,708,cs),
(796,618,o),
(749,561,o),
(655,540,c),
(717,533,l),
(695,545,o),
(651,556,o),
(623,563,c),
(590,570,ls),
(399,613,o),
(329,661,o),
(329,748,cs)
);
}
);
width = 1126;
},
{
layerId = "1C230A88-1131-4497-B97C-4D293C298785";
shapes = (
{
closed = 1;
nodes = (
(218,228,l),
(272,68,o),
(408,-18,o),
(590,-18,cs),
(788,-18,o),
(914,96,o),
(914,273,cs),
(914,373,o),
(871,447,o),
(780,497,c),
(780,467,l),
(871,520,o),
(914,601,o),
(914,705,cs),
(914,861,o),
(827,940,o),
(598,990,cs),
(565,997,ls),
(444,1022,o),
(300,1039,o),
(300,1166,cs),
(300,1285,o),
(427,1383,o),
(568,1383,cs),
(708,1383,o),
(825,1326,o),
(877,1230,c),
(934,1290,l),
(871,1403,o),
(739,1468,o),
(578,1468,cs),
(387,1468,o),
(210,1336,o),
(210,1166,cs),
(210,1080,o),
(256,1003,o),
(347,962,c),
(343,987,l),
(260,937,o),
(208,843,o),
(208,744,cs),
(208,586,o),
(302,520,o),
(566,454,cs),
(598,446,ls),
(761,405,o),
(823,354,o),
(823,242,cs),
(823,130,o),
(739,68,o),
(588,68,cs),
(448,68,o),
(346,136,o),
(301,270,c)
);
},
{
closed = 1;
nodes = (
(300,847,o),
(363,921,o),
(471,953,c),
(420,950,l),
(440,940,o),
(472,931,o),
(537,920,cs),
(571,915,ls),
(735,890,o),
(823,821,o),
(823,717,cs),
(823,611,o),
(764,542,o),
(649,507,c),
(717,506,l),
(702,516,o),
(658,526,o),
(630,532,cs),
(597,539,ls),
(409,576,o),
(300,648,o),
(300,744,cs)
);
}
);
width = 1132;
}
);
unicode = 167;
},
{
glyphname = dieresis;
layers = (
{
layerId = "52CC1650-7CEF-4847-8280-03AE9FE593CD";
shapes = (
{
closed = 1;
nodes = (
(35,1229,l),
(258,1229,l),
(258,1471,l),
(35,1471,l)
);
},
{
closed = 1;
nodes = (
(415,1229,l),
(638,1229,l),
(638,1471,l),
(415,1471,l)
);
}
);
width = 672;
},
{
layerId = "42E87D12-3AB5-40D6-8370-BF79EAF40F29";
shapes = (
{
closed = 1;
nodes = (
(75,1239,l),
(250,1239,l),
(250,1437,l),
(75,1437,l)
);
},
{
closed = 1;
nodes = (
(414,1239,l),
(589,1239,l),
(589,1437,l),
(414,1437,l)
);
}
);
width = 664;
},
{
layerId = "1C230A88-1131-4497-B97C-4D293C298785";
shapes = (
{
closed = 1;
nodes = (
(86,1242,l),
(233,1242,l),
(233,1413,l),
(86,1413,l)
);
},
{
closed = 1;
nodes = (
(431,1242,l),
(578,1242,l),
(578,1413,l),
(431,1413,l)
);
}
);
width = 664;
}
);
leftKerningGroup = dieresis;
rightKerningGroup = dieresis1;
unicode = 168;
},
{
glyphname = copyright;
layers = (
{
layerId = "52CC1650-7CEF-4847-8280-03AE9FE593CD";
shapes = (
{
closed = 1;
nodes = (
(1325,-31,o),
(1675,260,o),
(1675,713,cs),
(1675,1165,o),
(1325,1458,o),
(895,1458,cs),
(465,1458,o),
(115,1165,o),
(115,713,cs),
(115,260,o),
(465,-31,o),
(895,-31,cs)
);
},
{
closed = 1;
nodes = (
(563,150,o),
(293,365,o),
(293,713,cs),
(293,1063,o),
(563,1278,o),
(895,1278,cs),
(1229,1278,o),
(1497,1063,o),
(1497,713,cs),
(1497,365,o),
(1229,150,o),
(895,150,cs)
);
},
{
closed = 1;
nodes = (
(1083,295,o),
(1210,389,o),
(1262,543,c),
(1049,625,l),
(1032,561,o),
(983,512,o),
(913,512,cs),
(799,512,o),
(758,612,o),
(758,711,cs),
(758,809,o),
(801,915,o),
(913,915,cs),
(985,915,o),
(1034,860,o),
(1049,799,c),
(1272,885,l),
(1210,1051,o),
(1079,1130,o),
(913,1130,cs),
(645,1130,o),
(520,922,o),
(520,711,cs),
(520,506,o),
(643,295,o),
(915,295,cs)
);
}
);
width = 1789;
},
{
layerId = "42E87D12-3AB5-40D6-8370-BF79EAF40F29";
shapes = (
{
closed = 1;
nodes = (
(1326,-44,o),
(1660,289,o),
(1660,720,cs),
(1660,1150,o),
(1323,1483,o),
(899,1483,cs),
(473,1483,o),
(137,1149,o),
(137,720,cs),
(137,286,o),
(471,-44,o),
(899,-44,cs)
);
},
{
closed = 1;
nodes = (
(542,74,o),
(253,361,o),
(253,720,cs),
(253,1077,o),
(544,1365,o),
(899,1365,cs),
(1254,1365,o),
(1544,1077,o),
(1544,720,cs),
(1544,361,o),
(1256,74,o),
(899,74,cs)
);
},
{
closed = 1;
nodes = (
(1059,315,o),
(1175,388,o),
(1226,512,c),
(1098,563,l),
(1067,492,o),
(992,448,o),
(915,448,cs),
(758,448,o),
(694,579,o),
(694,718,cs),
(694,855,o),
(761,989,o),
(916,989,cs),
(997,989,o),
(1068,943,o),
(1099,875,c),
(1230,926,l),
(1178,1050,o),
(1050,1120,o),
(916,1120,cs),
(671,1120,o),
(556,932,o),
(556,718,cs),
(556,508,o),
(668,315,o),
(917,315,cs)
);
}
);
width = 1796;
},
{
layerId = "1C230A88-1131-4497-B97C-4D293C298785";
shapes = (
{
closed = 1;
nodes = (
(1326,-53,o),
(1650,309,o),
(1650,724,cs),
(1650,1140,o),
(1322,1500,o),
(901,1500,cs),
(479,1500,o),
(152,1138,o),
(152,724,cs),
(152,304,o),
(475,-53,o),
(901,-53,cs)
);
},
{
closed = 1;
nodes = (
(528,24,o),
(226,358,o),
(226,724,cs),
(226,1087,o),
(532,1423,o),
(901,1423,cs),
(1271,1423,o),
(1575,1087,o),
(1575,724,cs),
(1575,358,o),
(1274,24,o),
(901,24,cs)
);
},
{
closed = 1;
nodes = (
(1043,329,o),
(1151,388,o),
(1202,492,c),
(1131,521,l),
(1090,446,o),
(998,406,o),
(916,406,cs),
(731,406,o),
(652,557,o),
(652,722,cs),
(652,885,o),
(734,1038,o),
(918,1038,cs),
(1005,1038,o),
(1090,998,o),
(1133,925,c),
(1202,954,l),
(1156,1050,o),
(1031,1113,o),
(918,1113,cs),
(689,1113,o),
(580,939,o),
(580,722,cs),
(580,510,o),
(684,329,o),
(918,329,cs)
);
}
);
width = 1801;
}
);
unicode = 169;
},
{
glyphname = ordfeminine;
layers = (
{
layerId = "52CC1650-7CEF-4847-8280-03AE9FE593CD";
shapes = (
{
closed = 1;
nodes = (
(519,726,o),
(597,755,o),
(656,813,c),
(660,740,l),
(812,740,l),
(812,1176,ls),
(812,1365,o),
(684,1468,o),
(502,1468,cs),
(364,1468,o),
(271,1416,o),
(183,1293,c),
(316,1203,l),
(369,1276,o),
(428,1313,o),
(497,1313,cs),
(593,1313,o),
(649,1260,o),
(649,1172,c),
(458,1172,ls),
(309,1172,o),
(165,1122,o),
(165,953,cs),
(165,813,o),
(290,726,o),
(426,726,cs)
);
},
{
closed = 1;
nodes = (
(414,882,o),
(344,905,o),
(344,953,cs),
(344,1003,o),
(388,1041,o),
(467,1041,cs),
(649,1041,l),
(624,929,o),
(564,882,o),
(453,882,cs)
);
}
);
width = 1024;
},
{
layerId = "42E87D12-3AB5-40D6-8370-BF79EAF40F29";
shapes = (
{
closed = 1;
nodes = (
(462,727,o),
(542,770,o),
(602,859,c),
(608,741,l),
(710,741,l),
(710,1180,ls),
(710,1358,o),
(604,1468,o),
(425,1468,cs),
(302,1468,o),
(214,1426,o),
(139,1323,c),
(235,1261,l),
(279,1326,o),
(347,1365,o),
(421,1365,cs),
(551,1365,o),
(596,1279,o),
(597,1158,c),
(381,1158,ls),
(239,1158,o),
(112,1106,o),
(112,944,cs),
(112,811,o),
(221,727,o),
(350,727,cs)
);
},
{
closed = 1;
nodes = (
(315,834,o),
(242,876,o),
(242,944,cs),
(242,1027,o),
(323,1056,o),
(402,1056,cs),
(597,1056,l),
(594,943,o),
(500,834,o),
(377,834,cs)
);
}
);
width = 872;
},
{
layerId = "1C230A88-1131-4497-B97C-4D293C298785";
shapes = (
{
closed = 1;
nodes = (
(448,727,o),
(529,779,o),
(592,887,c),
(600,741,l),
(673,741,l),
(673,1183,ls),
(673,1354,o),
(579,1468,o),
(402,1468,cs),
(285,1468,o),
(200,1430,o),
(135,1338,c),
(208,1295,l),
(246,1353,o),
(322,1395,o),
(398,1395,cs),
(553,1395,o),
(590,1275,o),
(589,1144,c),
(358,1144,ls),
(220,1144,o),
(104,1096,o),
(104,938,cs),
(104,809,o),
(204,727,o),
(327,727,cs)
);
},
{
closed = 1;
nodes = (
(279,805,o),
(195,859,o),
(195,938,cs),
(195,1044,o),
(300,1061,o),
(378,1061,cs),
(589,1061,l),
(592,925,o),
(487,805,o),
(354,805,cs)
);
}
);
width = 826;
}
);
unicode = 170;
},
{
glyphname = guillemotleft;
layers = (
{
layerId = "52CC1650-7CEF-4847-8280-03AE9FE593CD";
shapes = (
{
closed = 1;
nodes = (
(459,149,l),
(459,384,l),
(281,521,l),
(459,664,l),
(459,898,l),
(-3,521,l)
);
},
{
closed = 1;
nodes = (
(830,149,l),
(830,384,l),
(652,521,l),
(830,664,l),
(830,898,l),
(369,521,l)
);
}
);
width = 973;
},
{
layerId = "42E87D12-3AB5-40D6-8370-BF79EAF40F29";
shapes = (
{
closed = 1;
nodes = (
(444,188,l),
(444,356,l),
(248,523,l),
(444,688,l),
(444,858,l),
(60,523,l)
);
},
{
closed = 1;
nodes = (
(818,188,l),
(818,356,l),
(619,523,l),
(818,688,l),
(818,858,l),
(432,523,l)
);
}
);
width = 987;
},
{
layerId = "1C230A88-1131-4497-B97C-4D293C298785";
shapes = (
{
closed = 1;
nodes = (
(433,212,l),
(433,341,l),
(227,523,l),
(433,703,l),
(433,834,l),
(96,523,l)
);
},
{
closed = 1;
nodes = (
(810,212,l),
(810,341,l),
(598,523,l),
(810,703,l),
(810,834,l),
(468,523,l)
);
}
);
width = 991;
}
);
rightKerningGroup = guillemotleft;
unicode = 171;
},
{
glyphname = logicalnot;
layers = (
{
layerId = "52CC1650-7CEF-4847-8280-03AE9FE593CD";
shapes = (
{
closed = 1;
nodes = (
(1129,298,l),
(1129,816,l),
(131,816,l),
(131,560,l),
(854,560,l),
(854,298,l)
);
}
);
width = 1337;
},
{
layerId = "42E87D12-3AB5-40D6-8370-BF79EAF40F29";
shapes = (
{
closed = 1;
nodes = (
(1063,298,l),
(1063,815,l),
(154,815,l),
(154,667,l),
(907,667,l),
(907,298,l)
);
}
);
width = 1317;
},
{
layerId = "1C230A88-1131-4497-B97C-4D293C298785";
shapes = (
{
closed = 1;
nodes = (
(1027,298,l),
(1027,813,l),
(173,813,l),
(173,730,l),
(943,730,l),
(943,298,l)
);
}
);
width = 1311;
}
);
unicode = 172;
},
{
glyphname = softhyphen;
layers = (
{
layerId = "52CC1650-7CEF-4847-8280-03AE9FE593CD";
shapes = (
{
closed = 1;
nodes = (
(909,493,l),
(909,709,l),
(137,709,l),
(137,493,l)
);
}
);
width = 1047;
},
{
layerId = "42E87D12-3AB5-40D6-8370-BF79EAF40F29";
shapes = (
{
closed = 1;
nodes = (
(843,583,l),
(843,708,l),
(162,708,l),
(162,583,l)
);
}
);
width = 1004;
},
{
layerId = "1C230A88-1131-4497-B97C-4D293C298785";
shapes = (
{
closed = 1;
nodes = (
(810,636,l),
(810,706,l),
(182,706,l),
(182,636,l)
);
}
);
width = 991;
}
);
leftKerningGroup = endash;
rightKerningGroup = endash1;
unicode = 173;
},
{
glyphname = registered;
layers = (
{
layerId = "52CC1650-7CEF-4847-8280-03AE9FE593CD";
shapes = (
{
closed = 1;
nodes = (
(1325,-21,o),
(1675,270,o),
(1675,723,cs),
(1675,1175,o),
(1325,1468,o),
(895,1468,cs),
(465,1468,o),
(115,1175,o),
(115,723,cs),
(115,270,o),
(465,-21,o),
(895,-21,cs)
);
},
{
closed = 1;
nodes = (
(563,160,o),
(293,375,o),
(293,723,cs),
(293,1073,o),
(563,1288,o),
(895,1288,cs),
(1229,1288,o),
(1497,1073,o),
(1497,723,cs),
(1497,375,o),
(1229,160,o),
(895,160,cs)
);
},
{
closed = 1;
nodes = (
(631,307,l),
(817,307,l),
(817,653,l),
(872,653,l),
(1069,307,l),
(1286,307,l),
(1059,669,l),
(1151,710,o),
(1208,796,o),
(1208,887,cs),
(1208,1034,o),
(1085,1140,o),
(911,1140,cs),
(631,1140,l)
);
},
{
closed = 1;
nodes = (
(817,971,l),
(913,971,ls),
(981,971,o),
(1020,936,o),
(1020,882,cs),
(1020,839,o),
(983,807,o),
(930,807,cs),
(817,807,l)
);
}
);
width = 1789;
},
{
layerId = "42E87D12-3AB5-40D6-8370-BF79EAF40F29";
shapes = (
{
closed = 1;
nodes = (
(1326,-39,o),
(1660,295,o),
(1660,725,cs),
(1660,1155,o),
(1323,1488,o),
(899,1488,cs),
(473,1488,o),
(137,1154,o),
(137,725,cs),
(137,292,o),
(471,-39,o),
(899,-39,cs)
);
},
{
closed = 1;
nodes = (
(536,75,o),
(247,361,o),
(247,725,cs),
(247,1089,o),
(538,1376,o),
(899,1376,cs),
(1260,1376,o),
(1549,1088,o),
(1549,725,cs),
(1549,361,o),
(1261,75,o),
(899,75,cs)
);
},
{
closed = 1;
nodes = (
(648,315,l),
(773,315,l),
(773,666,l),
(917,666,l),
(1107,315,l),
(1253,315,l),
(1036,674,l),
(1152,699,o),
(1208,782,o),
(1208,889,cs),
(1208,1048,o),
(1101,1126,o),
(938,1126,cs),
(648,1126,l)
);
},
{
closed = 1;
nodes = (
(773,1014,l),
(939,1014,ls),
(1024,1014,o),
(1089,980,o),
(1089,887,cs),
(1089,802,o),
(1021,769,o),
(946,769,cs),
(773,769,l)
);
}
);
width = 1796;
},
{
layerId = "1C230A88-1131-4497-B97C-4D293C298785";
shapes = (
{
closed = 1;
nodes = (
(1326,-51,o),
(1650,311,o),
(1650,726,cs),
(1650,1142,o),
(1322,1502,o),
(901,1502,cs),
(479,1502,o),
(152,1140,o),
(152,726,cs),
(152,306,o),
(475,-51,o),
(901,-51,cs)
);
},
{
closed = 1;
nodes = (
(518,18,o),
(217,351,o),
(217,726,cs),
(217,1100,o),
(521,1434,o),
(901,1434,cs),
(1281,1434,o),
(1583,1098,o),
(1583,726,cs),
(1583,351,o),
(1282,18,o),
(901,18,cs)
);
},
{
closed = 1;
nodes = (
(660,320,l),
(743,320,l),
(743,674,l),
(947,674,l),
(1132,320,l),
(1231,320,l),
(1021,677,l),
(1153,691,o),
(1208,773,o),
(1208,891,cs),
(1208,1057,o),
(1111,1116,o),
(956,1116,cs),
(660,1116,l)
);
},
{
closed = 1;
nodes = (
(743,1042,l),
(956,1042,ls),
(1053,1042,o),
(1135,1009,o),
(1135,890,cs),
(1135,777,o),
(1047,744,o),
(956,744,cs),
(743,744,l)
);
}
);
width = 1801;
}
);
unicode = 174;
},
{
glyphname = macron;
layers = (
{
layerId = "52CC1650-7CEF-4847-8280-03AE9FE593CD";
shapes = (
{
closed = 1;
nodes = (
(40,1244,l),
(747,1244,l),
(747,1473,l),
(40,1473,l)
);
}
);
width = 787;
},
{
layerId = "42E87D12-3AB5-40D6-8370-BF79EAF40F29";
shapes = (
{
closed = 1;
nodes = (
(55,1267,l),
(610,1267,l),
(610,1407,l),
(55,1407,l)
);
}
);
width = 665;
},
{
layerId = "1C230A88-1131-4497-B97C-4D293C298785";
shapes = (
{
closed = 1;
nodes = (
(65,1270,l),
(606,1270,l),
(606,1371,l),
(65,1371,l)
);
}
);
width = 671;
}
);
unicode = 175;
},
{
glyphname = degree;
layers = (
{
layerId = "52CC1650-7CEF-4847-8280-03AE9FE593CD";
shapes = (
{
closed = 1;
nodes = (
(617,867,o),
(738,983,o),
(738,1168,cs),
(738,1340,o),
(611,1468,o),
(438,1468,cs),
(258,1468,o),
(137,1343,o),
(137,1168,cs),
(137,980,o),
(249,867,o),
(438,867,cs)
);
},
{
closed = 1;
nodes = (
(375,1064,o),
(334,1105,o),
(334,1168,cs),
(334,1227,o),
(379,1273,o),
(438,1273,cs),
(495,1273,o),
(542,1225,o),
(542,1168,cs),
(542,1106,o),
(501,1064,o),
(438,1064,cs)
);
}
);
width = 868;
},
{
layerId = "42E87D12-3AB5-40D6-8370-BF79EAF40F29";
shapes = (
{
closed = 1;
nodes = (
(654,869,o),
(788,1004,o),
(788,1169,cs),
(788,1332,o),
(651,1468,o),
(488,1468,cs),
(323,1468,o),
(188,1333,o),
(188,1169,cs),
(188,1003,o),
(322,869,o),
(488,869,cs)
);
},
{
closed = 1;
nodes = (
(380,973,o),
(292,1062,o),
(292,1169,cs),
(292,1276,o),
(382,1365,o),
(488,1365,cs),
(594,1365,o),
(685,1275,o),
(685,1169,cs),
(685,1062,o),
(594,973,o),
(488,973,cs)
);
}
);
width = 974;
},
{
layerId = "1C230A88-1131-4497-B97C-4D293C298785";
shapes = (
{
closed = 1;
nodes = (
(669,869,o),
(805,1006,o),
(805,1169,cs),
(805,1328,o),
(666,1468,o),
(505,1468,cs),
(342,1468,o),
(207,1333,o),
(207,1169,cs),
(207,1003,o),
(337,869,o),
(505,869,cs)
);
},
{
closed = 1;
nodes = (
(369,919,o),
(255,1033,o),
(255,1169,cs),
(255,1304,o),
(371,1420,o),
(505,1420,cs),
(637,1420,o),
(755,1301,o),
(755,1169,cs),
(755,1037,o),
(640,919,o),
(505,919,cs)
);
}
);
width = 1007;
}
);
unicode = 176;
},
{
glyphname = plusminus;
layers = (
{
layerId = "52CC1650-7CEF-4847-8280-03AE9FE593CD";
shapes = (
{
closed = 1;
nodes = (
(794,109,l),
(794,529,l),
(1259,529,l),
(1259,748,l),
(794,748,l),
(794,1170,l),
(576,1170,l),
(576,748,l),
(109,748,l),
(109,529,l),
(576,529,l),
(576,109,l)
);
},
{
closed = 1;
nodes = (
(1256,-217,l),
(1256,0,l),
(111,0,l),
(111,-217,l)
);
}
);
width = 1367;
},
{
layerId = "42E87D12-3AB5-40D6-8370-BF79EAF40F29";
shapes = (
{
closed = 1;
nodes = (
(740,109,l),
(740,579,l),
(1208,579,l),
(1208,703,l),
(740,703,l),
(740,1169,l),
(615,1169,l),
(615,703,l),
(147,703,l),
(147,579,l),
(615,579,l),
(615,109,l)
);
},
{
closed = 1;
nodes = (
(1207,-127,l),
(1207,-2,l),
(147,-2,l),
(147,-127,l)
);
}
);
width = 1354;
},
{
layerId = "1C230A88-1131-4497-B97C-4D293C298785";
shapes = (
{
closed = 1;
nodes = (
(711,109,l),
(711,607,l),
(1179,607,l),
(1179,676,l),
(711,676,l),
(711,1169,l),
(641,1169,l),
(641,676,l),
(171,676,l),
(171,607,l),
(641,607,l),
(641,109,l)
);
},
{
closed = 1;
nodes = (
(1180,-74,l),
(1180,-4,l),
(170,-4,l),
(170,-74,l)
);
}
);
width = 1350;
}
);
unicode = 177;
},
{
glyphname = acute;
layers = (
{
layerId = "52CC1650-7CEF-4847-8280-03AE9FE593CD";
shapes = (
{
closed = 1;
nodes = (
(210,1192,l),
(546,1508,l),
(253,1508,l),
(17,1192,l)
);
}
);
width = 555;
},
{
layerId = "42E87D12-3AB5-40D6-8370-BF79EAF40F29";
shapes = (
{
closed = 1;
nodes = (
(218,1192,l),
(497,1492,l),
(293,1492,l),
(71,1192,l)
);
}
);
width = 549;
},
{
layerId = "1C230A88-1131-4497-B97C-4D293C298785";
shapes = (
{
closed = 1;
nodes = (
(218,1192,l),
(466,1479,l),
(314,1479,l),
(99,1192,l)
);
}
);
width = 551;
}
);
leftKerningGroup = acute;
rightKerningGroup = acute1;
unicode = 180;
},
{
glyphname = micro;
layers = (
{
layerId = "52CC1650-7CEF-4847-8280-03AE9FE593CD";
shapes = (
{
closed = 1;
nodes = (
(616,-18,o),
(683,15,o),
(757,106,c,{name = .iv02;}),
(757,0,l,{name = .dh01;}),
(1048,0,l,{name = .dh02;}),
(1048,1064,l,{name = .av01;}),
(757,1064,l,{name = .sh01;}),
(757,551,ls),
(757,354,o),
(699,258,o),
(565,258,cs,{name = .dv02;}),
(459,258,o),
(395,308,o),
(395,434,cs),
(395,1064,l,{name = .av02;}),
(106,1064,l,{name = .dh03;}),
(106,-272,l),
(333,-272,l,{name = .av03;}),
(363,198,l,{name = .iv01;}),
(208,202,l),
(245,71,o),
(375,-18,o),
(523,-18,cs,{name = .dv01;})
);
}
);
width = 1188;
},
{
layerId = "42E87D12-3AB5-40D6-8370-BF79EAF40F29";
shapes = (
{
closed = 1;
nodes = (
(653,-24,o),
(782,55,o),
(846,171,c,{name = .iv02;}),
(846,0,l,{name = .dh01;}),
(1013,0,l,{name = .dh02;}),
(1013,1064,l,{name = .av01;}),
(846,1064,l,{name = .sh01;}),
(846,450,ls),
(846,282,o),
(701,128,o),
(531,128,cs,{name = .dv02;}),
(354,128,o),
(317,281,o),
(317,428,cs),
(317,1064,l,{name = .av02;}),
(148,1064,l,{name = .dh03;}),
(148,-273,l),
(296,-273,l,{name = .av03;}),
(319,57,l,{name = .iv01;}),
(290,42,l),
(358,-1,o),
(432,-24,o),
(515,-24,cs,{name = .dv01;})
);
}
);
width = 1177;
},
{
layerId = "1C230A88-1131-4497-B97C-4D293C298785";
shapes = (
{
closed = 1;
nodes = (
(668,-24,o),
(818,76,o),
(874,231,c,{name = .iv02;}),
(874,0,l,{name = .dh01;}),
(988,0,l,{name = .dh02;}),
(988,1064,l,{name = .av01;}),
(874,1064,l,{name = .sh01;}),
(874,437,ls),
(874,253,o),
(718,73,o),
(529,73,cs,{name = .dv02;}),
(329,73,o),
(287,252,o),
(287,418,cs),
(287,1064,l,{name = .av02;}),
(174,1064,l,{name = .dh03;}),
(174,-273,l),
(267,-273,l,{name = .av03;}),
(294,72,l,{name = .iv01;}),
(265,61,l),
(341,6,o),
(425,-24,o),
(515,-24,cs,{name = .dv01;})
);
}
);
width = 1170;
}
);
unicode = 181;
},
{
glyphname = paragraph;
layers = (
{
layerId = "52CC1650-7CEF-4847-8280-03AE9FE593CD";
shapes = (
{
closed = 1;
nodes = (
(696,-252,l),
(696,1448,l),
(496,1448,ls),
(273,1448,o),
(46,1293,o),
(46,1052,cs),
(46,812,o),
(288,638,o),
(509,638,c),
(509,-252,l)
);
},
{
closed = 1;
nodes = (
(1051,-252,l),
(1051,1448,l),
(859,1448,l),
(859,-252,l)
);
}
);
width = 1265;
},
{
layerId = "42E87D12-3AB5-40D6-8370-BF79EAF40F29";
shapes = (
{
closed = 1;
nodes = (
(728,-253,l),
(728,1448,l),
(584,1448,ls),
(351,1448,o),
(122,1300,o),
(122,1046,cs),
(122,788,o),
(344,639,o),
(585,639,c),
(585,-253,l)
);
},
{
closed = 1;
nodes = (
(1103,-253,l),
(1103,1448,l),
(960,1448,l),
(960,-253,l)
);
}
);
width = 1366;
},
{
layerId = "1C230A88-1131-4497-B97C-4D293C298785";
shapes = (
{
closed = 1;
nodes = (
(731,-253,l),
(731,1448,l),
(614,1448,ls),
(385,1448,o),
(150,1298,o),
(150,1050,cs),
(150,786,o),
(372,639,o),
(617,639,c),
(617,-253,l)
);
},
{
closed = 1;
nodes = (
(1118,-253,l),
(1118,1448,l),
(1004,1448,l),
(1004,-253,l)
);
}
);
width = 1398;
}
);
unicode = 182;
},
{
glyphname = periodcentered;
layers = (
{
layerId = "52CC1650-7CEF-4847-8280-03AE9FE593CD";
shapes = (
{
closed = 1;
nodes = (
(400,647,o),
(473,720,o),
(473,809,cs),
(473,898,o),
(401,971,o),
(311,971,cs),
(221,971,o),
(149,898,o),
(149,809,cs),
(149,720,o),
(221,647,o),
(311,647,cs)
);
}
);
width = 621;
},
{
layerId = "42E87D12-3AB5-40D6-8370-BF79EAF40F29";
shapes = (
{
closed = 1;
nodes = (
(402,709,o),
(459,767,o),
(459,840,cs),
(459,913,o),
(403,970,o),
(329,970,cs),
(253,970,o),
(198,915,o),
(198,840,cs),
(198,766,o),
(255,709,o),
(329,709,cs)
);
}
);
width = 660;
},
{
layerId = "1C230A88-1131-4497-B97C-4D293C298785";
shapes = (
{
closed = 1;
nodes = (
(396,745,o),
(446,795,o),
(446,857,cs),
(446,922,o),
(397,970,o),
(333,970,cs),
(268,970,o),
(221,924,o),
(221,857,cs),
(221,793,o),
(270,745,o),
(333,745,cs)
);
}
);
width = 671;
}
);
unicode = 183;
},
{
glyphname = cedilla;
layers = (
{
layerId = "52CC1650-7CEF-4847-8280-03AE9FE593CD";
shapes = (
{
closed = 1;
nodes = (
(227,0,l),
(132,-184,l),
(160,-206,l),
(246,-206,ls),
(315,-206,o),
(340,-251,o),
(340,-300,cs),
(340,-353,o),
(307,-385,o),
(264,-385,cs),
(230,-385,o),
(196,-365,o),
(175,-331,c),
(26,-398,l),
(69,-485,o),
(163,-543,o),
(258,-543,cs),
(407,-543,o),
(501,-449,o),
(501,-304,cs),
(501,-203,o),
(428,-118,o),
(322,-96,c),
(387,0,l)
);
}
);
width = 568;
},
{
layerId = "42E87D12-3AB5-40D6-8370-BF79EAF40F29";
shapes = (
{
closed = 1;
nodes = (
(244,0,l),
(153,-171,l),
(168,-192,l),
(222,-192,ls),
(305,-192,o),
(375,-236,o),
(375,-313,cs),
(375,-369,o),
(338,-412,o),
(288,-412,cs),
(237,-412,o),
(198,-382,o),
(187,-346,c),
(83,-393,l),
(112,-467,o),
(189,-520,o),
(280,-520,cs),
(402,-520,o),
(489,-432,o),
(489,-305,cs),
(489,-193,o),
(411,-129,o),
(301,-120,c),
(366,0,l)
);
}
);
width = 591;
},
{
layerId = "1C230A88-1131-4497-B97C-4D293C298785";
shapes = (
{
closed = 1;
nodes = (
(253,0,l),
(166,-164,l),
(188,-185,l),
(256,-185,ls),
(352,-185,o),
(394,-243,o),
(394,-315,cs),
(394,-378,o),
(353,-427,o),
(303,-427,cs),
(235,-427,o),
(188,-392,o),
(177,-349,c),
(100,-386,l),
(123,-454,o),
(199,-507,o),
(293,-507,cs),
(406,-507,o),
(479,-428,o),
(479,-307,cs),
(479,-187,o),
(366,-135,o),
(256,-135,c),
(326,0,l)
);
}
);
width = 598;
}
);
unicode = 184;
},
{
glyphname = ordmasculine;
layers = (
{
layerId = "52CC1650-7CEF-4847-8280-03AE9FE593CD";
shapes = (
{
closed = 1;
nodes = (
(750,728,o),
(901,880,o),
(901,1103,cs),
(901,1317,o),
(747,1468,o),
(532,1468,cs),
(312,1468,o),
(154,1316,o),
(154,1103,cs),
(154,873,o),
(300,728,o),
(532,728,cs)
);
},
{
closed = 1;
nodes = (
(420,892,o),
(341,975,o),
(341,1103,cs),
(341,1223,o),
(423,1306,o),
(532,1306,cs),
(637,1306,o),
(714,1225,o),
(714,1103,cs),
(714,973,o),
(640,892,o),
(532,892,cs)
);
}
);
width = 1056;
},
{
layerId = "42E87D12-3AB5-40D6-8370-BF79EAF40F29";
shapes = (
{
closed = 1;
nodes = (
(669,729,o),
(810,899,o),
(810,1100,cs),
(810,1302,o),
(669,1468,o),
(461,1468,cs),
(253,1468,o),
(111,1303,o),
(111,1100,cs),
(111,896,o),
(253,729,o),
(461,729,cs)
);
},
{
closed = 1;
nodes = (
(307,844,o),
(247,961,o),
(247,1100,cs),
(247,1237,o),
(308,1355,o),
(461,1355,cs),
(612,1355,o),
(671,1235,o),
(671,1100,cs),
(671,962,o),
(616,844,o),
(461,844,cs)
);
}
);
width = 921;
},
{
layerId = "1C230A88-1131-4497-B97C-4D293C298785";
shapes = (
{
closed = 1;
nodes = (
(645,729,o),
(777,906,o),
(777,1100,cs),
(777,1294,o),
(646,1468,o),
(442,1468,cs),
(234,1468,o),
(105,1296,o),
(105,1100,cs),
(105,903,o),
(234,729,o),
(442,729,cs)
);
},
{
closed = 1;
nodes = (
(274,815,o),
(213,953,o),
(213,1100,cs),
(213,1247,o),
(277,1383,o),
(442,1383,cs),
(605,1383,o),
(667,1242,o),
(667,1100,cs),
(667,954,o),
(610,815,o),
(442,815,cs)
);
}
);
width = 879;
}
);
unicode = 186;
},
{
glyphname = guillemotright;
layers = (
{
layerId = "52CC1650-7CEF-4847-8280-03AE9FE593CD";
shapes = (
{
closed = 1;
nodes = (
(141,149,l),
(603,521,l),
(141,898,l),
(141,664,l),
(322,521,l),
(141,384,l)
);
},
{
closed = 1;
nodes = (
(513,149,l),
(974,521,l),
(513,898,l),
(513,664,l),
(691,521,l),
(513,384,l)
);
}
);
width = 977;
},
{
layerId = "42E87D12-3AB5-40D6-8370-BF79EAF40F29";
shapes = (
{
closed = 1;
nodes = (
(166,188,l),
(552,523,l),
(166,858,l),
(166,688,l),
(365,523,l),
(166,356,l)
);
},
{
closed = 1;
nodes = (
(538,188,l),
(924,523,l),
(538,858,l),
(538,688,l),
(735,523,l),
(538,356,l)
);
}
);
width = 988;
},
{
layerId = "1C230A88-1131-4497-B97C-4D293C298785";
shapes = (
{
closed = 1;
nodes = (
(181,212,l),
(519,523,l),
(181,834,l),
(181,703,l),
(389,523,l),
(181,341,l)
);
},
{
closed = 1;
nodes = (
(553,212,l),
(894,523,l),
(553,834,l),
(553,703,l),
(758,523,l),
(553,341,l)
);
}
);
width = 991;
}
);
leftKerningGroup = guillemotright;
rightKerningGroup = guillemotright1;
unicode = 187;
},
{
glyphname = questiondown;
layers = (
{
layerId = "52CC1650-7CEF-4847-8280-03AE9FE593CD";
shapes = (
{
closed = 1;
nodes = (
(372,1064,l),
(372,765,l),
(674,765,l),
(674,1064,l)
);
},
{
closed = 1;
nodes = (
(394,620,l),
(394,589,ls),
(394,341,o),
(61,370,o),
(61,9,cs),
(61,-277,o),
(271,-386,o),
(503,-386,cs),
(792,-386,o),
(990,-216,o),
(990,87,c),
(718,87,l),
(720,-56,o),
(652,-130,o),
(509,-130,cs),
(396,-130,o),
(329,-87,o),
(329,3,cs),
(329,200,o),
(654,196,o),
(654,566,cs),
(654,620,l)
);
}
);
width = 1035;
},
{
layerId = "42E87D12-3AB5-40D6-8370-BF79EAF40F29";
shapes = (
{
closed = 1;
nodes = (
(425,1064,l),
(425,857,l),
(634,857,l),
(634,1064,l)
);
},
{
closed = 1;
nodes = (
(459,654,l),
(459,528,ls),
(459,274,o),
(103,323,o),
(103,-31,cs),
(103,-287,o),
(285,-404,o),
(527,-404,cs),
(789,-404,o),
(967,-250,o),
(969,12,c),
(812,12,l),
(812,-156,o),
(709,-256,o),
(531,-256,cs),
(359,-256,o),
(259,-179,o),
(259,-33,cs),
(259,221,o),
(611,186,o),
(611,516,cs),
(611,654,l)
);
}
);
width = 1061;
},
{
hints = (
{
horizontal = 1;
place = (-21,164);
type = Stem;
},
{
horizontal = 1;
place = (1378,75);
type = Stem;
},
{
place = (393,164);
type = Stem;
},
{
place = (437,78);
type = Stem;
},
{
place = (809,80);
type = Stem;
}
);
layerId = "1C230A88-1131-4497-B97C-4D293C298785";
shapes = (
{
closed = 1;
nodes = (
(400,1064,l),
(400,911,l),
(555,911,l),
(555,1064,l)
);
},
{
closed = 1;
nodes = (
(437,675,l),
(437,503,ls),
(437,247,o),
(66,307,o),
(66,-41,cs),
(66,-281,o),
(230,-404,o),
(478,-404,cs),
(725,-404,o),
(891,-256,o),
(891,-21,c),
(805,-21,l),
(803,-205,o),
(680,-320,o),
(480,-320,cs),
(271,-320,o),
(152,-222,o),
(152,-43,cs),
(152,245,o),
(521,194,o),
(521,497,cs),
(521,675,l)
);
}
);
width = 954;
}
);
unicode = 191;
},
{
glyphname = AE;
layers = (
{
layerId = "52CC1650-7CEF-4847-8280-03AE9FE593CD";
shapes = (
{
closed = 1;
nodes = (
(1820,0,l,{name = .dv01;}),
(1820,258,l,{name = .dv02;}),
(1055,258,l,{name = .dh02;}),
(1055,599,l,{name = .dv07;}),
(1729,599,l),
(1729,848,l),
(1055,848,l,{name = .dv08;}),
(1055,1196,l,{name = .sv01;}),
(1820,1196,l),
(1820,1448,l,{name = .av01;}),
(578,1448,l,{name = .dv04;}),
(-8,0,l,{name = .sv02;}),
(292,0,l),
(404,314,l,{name = .dv05;}),
(783,314,l),
(783,0,l,{name = .dh01;})
);
},
{
closed = 1;
nodes = (
(783,539,l,{name = .sh01;}),
(499,539,l,{name = .dv06;}),
(762,1196,l,{name = .dv03;}),
(783,1196,l)
);
}
);
width = 1919;
},
{
layerId = "42E87D12-3AB5-40D6-8370-BF79EAF40F29";
shapes = (
{
closed = 1;
nodes = (
(1753,0,l,{name = .dv01;}),
(1753,149,l,{name = .dv02;}),
(986,149,l,{name = .dh02;}),
(986,650,l,{name = .dv07;}),
(1662,650,l),
(1662,797,l),
(986,797,l,{name = .dv08;}),
(986,1306,l,{name = .sv01;}),
(1753,1306,l),
(1753,1448,l,{name = .av01;}),
(599,1448,l,{name = .dv04;}),
(55,0,l,{name = .sv02;}),
(234,0,l),
(348,314,l,{name = .dv05;}),
(818,314,l),
(818,0,l,{name = .dh01;})
);
},
{
closed = 1;
nodes = (
(818,465,l,{name = .sh01;}),
(402,465,l,{name = .dv06;}),
(709,1306,l,{name = .dv03;}),
(818,1306,l)
);
}
);
width = 1861;
},
{
layerId = "1C230A88-1131-4497-B97C-4D293C298785";
shapes = (
{
closed = 1;
nodes = (
(1723,0,l,{name = .dv01;}),
(1723,85,l,{name = .dv02;}),
(956,85,l,{name = .dh02;}),
(956,680,l,{name = .dv07;}),
(1632,680,l),
(1632,766,l),
(956,766,l,{name = .dv08;}),
(956,1370,l,{name = .sv01;}),
(1723,1370,l),
(1723,1448,l,{name = .av01;}),
(620,1448,l,{name = .dv04;}),
(102,0,l,{name = .sv02;}),
(210,0,l),
(324,314,l,{name = .dv05;}),
(846,314,l),
(846,0,l,{name = .dh01;})
);
},
{
closed = 1;
nodes = (
(846,421,l,{name = .sh01;}),
(355,421,l,{name = .dv06;}),
(688,1370,l,{name = .dv03;}),
(846,1370,l)
);
}
);
width = 1842;
}
);
leftKerningGroup = AE;
rightKerningGroup = AE1;
unicode = 198;
},
{
color = (153, 254, 255, 255);
glyphname = Ccedilla;
layers = (
{
layerId = "52CC1650-7CEF-4847-8280-03AE9FE593CD";
shapes = (
{
closed = 1;
nodes = (
(511,-398,l),
(554,-485,o),
(648,-543,o),
(743,-543,cs),
(892,-543,o),
(986,-449,o),
(986,-304,cs),
(986,-203,o),
(913,-118,o),
(807,-96,c),
(861,-18,l),
(1127,5,o),
(1324,142,o),
(1430,386,c),
(1157,497,l),
(1087,327,o),
(950,243,o),
(783,243,cs),
(494,243,o),
(391,445,o),
(391,722,cs),
(391,983,o),
(521,1206,o),
(784,1206,cs),
(963,1206,o),
(1108,1110,o),
(1152,956,c),
(1433,1065,l),
(1307,1346,o),
(1083,1468,o),
(783,1468,cs),
(299,1468,o),
(67,1120,o),
(67,724,cs),
(67,340,o),
(314,22,o),
(704,-17,c),
(617,-184,l),
(645,-206,l),
(731,-206,ls),
(800,-206,o),
(825,-251,o),
(825,-300,cs),
(825,-353,o),
(792,-385,o),
(749,-385,cs),
(715,-385,o),
(681,-365,o),
(660,-331,c)
);
}
);
width = 1500;
},
{
layerId = "42E87D12-3AB5-40D6-8370-BF79EAF40F29";
shapes = (
{
closed = 1;
nodes = (
(524,-393,l),
(553,-467,o),
(631,-520,o),
(721,-520,cs),
(843,-520,o),
(930,-432,o),
(930,-305,cs),
(930,-193,o),
(853,-129,o),
(743,-120,c),
(796,-20,l),
(1060,-14,o),
(1272,122,o),
(1371,364,c),
(1211,434,l),
(1144,243,o),
(987,139,o),
(778,139,cs),
(427,139,o),
(297,424,o),
(297,734,cs),
(297,1040,o),
(438,1309,o),
(774,1309,cs),
(982,1309,o),
(1151,1208,o),
(1209,1018,c),
(1369,1086,l),
(1263,1338,o),
(1051,1468,o),
(776,1468,cs),
(338,1468,o),
(120,1134,o),
(120,724,cs),
(120,342,o),
(304,32,o),
(678,-14,c),
(594,-171,l),
(609,-192,l),
(663,-192,ls),
(746,-192,o),
(817,-236,o),
(817,-313,cs),
(817,-369,o),
(779,-412,o),
(730,-412,cs),
(678,-412,o),
(639,-382,o),
(628,-346,c)
);
}
);
width = 1455;
},
{
layerId = "1C230A88-1131-4497-B97C-4D293C298785";
shapes = (
{
closed = 1;
nodes = (
(539,-386,l),
(562,-454,o),
(638,-507,o),
(731,-507,cs),
(845,-507,o),
(917,-428,o),
(917,-307,cs),
(917,-187,o),
(834,-135,o),
(724,-135,c),
(785,-20,l),
(1039,-17,o),
(1228,120,o),
(1337,351,c),
(1244,396,l),
(1174,167,o),
(994,80,o),
(776,80,cs),
(396,80,o),
(263,400,o),
(263,734,cs),
(263,1057,o),
(401,1369,o),
(772,1369,cs),
(980,1369,o),
(1179,1289,o),
(1245,1056,c),
(1335,1101,l),
(1221,1341,o),
(1036,1468,o),
(774,1468,cs),
(336,1468,o),
(156,1113,o),
(156,724,cs),
(156,361,o),
(310,32,o),
(684,-14,c),
(604,-164,l),
(626,-185,l),
(695,-185,ls),
(790,-185,o),
(832,-243,o),
(832,-315,cs),
(832,-378,o),
(792,-427,o),
(741,-427,cs),
(674,-427,o),
(626,-392,o),
(615,-349,c)
);
}
);
width = 1451;
}
);
leftKerningGroup = C;
rightKerningGroup = C1;
unicode = 199;
},
{
glyphname = Eth;
layers = (
{
layerId = "52CC1650-7CEF-4847-8280-03AE9FE593CD";
shapes = (
{
closed = 1;
nodes = (
(29,839,l),
(29,622,l),
(803,622,l),
(803,839,l)
);
},
{
closed = 1;
nodes = (
(201,0,l),
(638,0,ls),
(1140,0,o),
(1401,277,o),
(1401,713,cs),
(1401,1206,o),
(1118,1448,o),
(640,1448,cs),
(201,1448,l)
);
},
{
closed = 1;
nodes = (
(498,273,l),
(498,1173,l),
(642,1173,ls),
(974,1173,o),
(1103,1055,o),
(1103,724,cs),
(1103,389,o),
(934,273,o),
(613,273,cs)
);
}
);
width = 1467;
},
{
layerId = "42E87D12-3AB5-40D6-8370-BF79EAF40F29";
shapes = (
{
closed = 1;
nodes = (
(80,793,l),
(80,667,l),
(760,667,l),
(760,793,l)
);
},
{
closed = 1;
nodes = (
(232,0,l),
(607,0,ls),
(1065,0,o),
(1342,246,o),
(1342,713,cs),
(1342,1182,o),
(1084,1448,o),
(609,1448,cs),
(232,1448,l)
);
},
{
closed = 1;
nodes = (
(408,159,l),
(408,1291,l),
(605,1291,ls),
(975,1291,o),
(1166,1100,o),
(1166,724,cs),
(1166,355,o),
(944,159,o),
(582,159,cs)
);
}
);
width = 1460;
},
{
layerId = "1C230A88-1131-4497-B97C-4D293C298785";
shapes = (
{
closed = 1;
nodes = (
(95,766,l),
(95,693,l),
(720,693,l),
(720,766,l)
);
},
{
closed = 1;
nodes = (
(254,0,l),
(589,0,ls),
(1047,0,o),
(1307,255,o),
(1307,713,cs),
(1307,1176,o),
(1055,1448,o),
(591,1448,cs),
(254,1448,l)
);
},
{
closed = 1;
nodes = (
(356,91,l),
(356,1361,l),
(587,1361,ls),
(988,1361,o),
(1205,1110,o),
(1205,724,cs),
(1205,338,o),
(949,91,o),
(564,91,cs)
);
}
);
width = 1458;
}
);
leftKerningGroup = Eth;
rightKerningGroup = D;
unicode = 208;
},
{
glyphname = multiply;
layers = (
{
layerId = "52CC1650-7CEF-4847-8280-03AE9FE593CD";
shapes = (
{
closed = 1;
nodes = (
(222,157,l),
(554,485,l),
(854,187,l),
(1009,342,l),
(710,640,l),
(1037,971,l),
(887,1122,l),
(554,795,l),
(258,1093,l),
(102,938,l),
(402,640,l),
(72,308,l)
);
}
);
width = 1110;
},
{
layerId = "42E87D12-3AB5-40D6-8370-BF79EAF40F29";
shapes = (
{
closed = 1;
nodes = (
(234,220,l),
(566,551,l),
(897,219,l),
(985,309,l),
(655,640,l),
(986,971,l),
(897,1058,l),
(566,728,l),
(234,1059,l),
(147,969,l),
(478,640,l),
(146,307,l)
);
}
);
width = 1133;
},
{
layerId = "1C230A88-1131-4497-B97C-4D293C298785";
shapes = (
{
closed = 1;
nodes = (
(240,258,l),
(572,589,l),
(921,238,l),
(971,290,l),
(621,640,l),
(955,971,l),
(901,1020,l),
(572,688,l),
(219,1040,l),
(171,988,l),
(521,640,l),
(189,307,l)
);
}
);
width = 1140;
}
);
unicode = 215;
},
{
glyphname = Oslash;
layers = (
{
layerId = "52CC1650-7CEF-4847-8280-03AE9FE593CD";
shapes = (
{
closed = 1;
nodes = (
(1215,-20,o),
(1502,271,o),
(1502,707,cs),
(1502,972,o),
(1413,1182,o),
(1256,1314,c),
(1337,1447,l),
(1129,1447,l),
(1106,1408,l),
(1006,1450,o),
(898,1468,o),
(768,1468,cs),
(358,1468,o),
(68,1173,o),
(68,742,cs),
(68,473,o),
(155,267,o),
(314,133,c),
(230,0,l),
(439,0,l),
(464,40,l),
(564,-2,o),
(670,-20,o),
(802,-20,cs)
);
},
{
closed = 1;
nodes = (
(471,390,l),
(414,481,o),
(387,592,o),
(387,724,cs),
(387,1043,o),
(538,1205,o),
(785,1205,cs),
(853,1205,o),
(911,1194,o),
(960,1172,c)
);
},
{
closed = 1;
nodes = (
(719,243,o),
(660,252,o),
(608,275,c),
(1100,1060,l),
(1155,967,o),
(1182,857,o),
(1182,724,cs),
(1182,412,o),
(1029,243,o),
(796,243,cs)
);
}
);
width = 1570;
},
{
layerId = "42E87D12-3AB5-40D6-8370-BF79EAF40F29";
shapes = (
{
closed = 1;
nodes = (
(1212,-20,o),
(1433,314,o),
(1433,724,cs),
(1433,948,o),
(1365,1179,o),
(1191,1330,c),
(1258,1447,l),
(1121,1447,l),
(1092,1396,l),
(995,1446,o),
(888,1468,o),
(775,1468,cs),
(340,1468,o),
(120,1132,o),
(120,724,cs),
(120,502,o),
(187,267,o),
(361,119,c),
(292,0,l),
(428,0,l),
(459,53,l),
(555,2,o),
(662,-20,o),
(775,-20,cs)
);
},
{
closed = 1;
nodes = (
(446,268,l),
(334,386,o),
(293,553,o),
(293,724,cs),
(293,1032,o),
(436,1309,o),
(775,1309,cs),
(858,1309,o),
(939,1292,o),
(1010,1254,c)
);
},
{
closed = 1;
nodes = (
(692,139,o),
(612,155,o),
(541,195,c),
(1105,1181,l),
(1219,1065,o),
(1261,894,o),
(1261,724,cs),
(1261,412,o),
(1118,139,o),
(775,139,cs)
);
}
);
width = 1554;
},
{
layerId = "1C230A88-1131-4497-B97C-4D293C298785";
shapes = (
{
closed = 1;
nodes = (
(1205,-20,o),
(1395,337,o),
(1395,724,cs),
(1395,946,o),
(1328,1188,o),
(1155,1339,c),
(1212,1447,l),
(1119,1447,l),
(1086,1389,l),
(988,1446,o),
(880,1468,o),
(773,1468,cs),
(342,1468,o),
(153,1107,o),
(153,724,cs),
(153,504,o),
(215,257,o),
(391,111,c),
(330,0,l),
(424,0,l),
(457,60,l),
(555,2,o),
(664,-20,o),
(773,-20,cs)
);
},
{
closed = 1;
nodes = (
(435,197,l),
(287,338,o),
(240,540,o),
(240,724,cs),
(240,1052,o),
(400,1369,o),
(773,1369,cs),
(864,1369,o),
(956,1349,o),
(1042,1303,c)
);
},
{
closed = 1;
nodes = (
(681,78,o),
(587,96,o),
(503,147,c),
(1111,1253,l),
(1261,1118,o),
(1310,905,o),
(1310,724,cs),
(1310,388,o),
(1148,78,o),
(773,78,cs)
);
}
);
width = 1548;
}
);
leftKerningGroup = Oslash;
rightKerningGroup = Oslash1;
unicode = 216;
},
{
glyphname = Thorn;
layers = (
{
layerId = "52CC1650-7CEF-4847-8280-03AE9FE593CD";
shapes = (
{
closed = 1;
nodes = (
(440,0,l),
(440,392,l),
(630,392,ls),
(943,392,o),
(1148,550,o),
(1148,839,cs),
(1148,1090,o),
(999,1251,o),
(705,1251,cs),
(440,1251,l),
(440,1448,l),
(175,1448,l),
(175,0,l)
);
},
{
closed = 1;
nodes = (
(440,634,l),
(440,1029,l),
(630,1029,ls),
(798,1029,o),
(882,962,o),
(882,829,cs),
(882,689,o),
(795,634,o),
(630,634,cs)
);
}
);
width = 1179;
},
{
layerId = "42E87D12-3AB5-40D6-8370-BF79EAF40F29";
shapes = (
{
closed = 1;
nodes = (
(383,0,l),
(383,439,l),
(625,439,ls),
(880,439,o),
(1093,562,o),
(1093,840,cs),
(1093,1102,o),
(906,1242,o),
(644,1242,cs),
(383,1242,l),
(383,1448,l),
(215,1448,l),
(215,0,l)
);
},
{
closed = 1;
nodes = (
(383,593,l),
(383,1083,l),
(625,1083,ls),
(796,1083,o),
(924,1010,o),
(924,834,cs),
(924,660,o),
(796,593,o),
(625,593,cs)
);
}
);
width = 1179;
},
{
layerId = "1C230A88-1131-4497-B97C-4D293C298785";
shapes = (
{
closed = 1;
nodes = (
(349,0,l),
(349,466,l),
(623,466,ls),
(851,466,o),
(1060,579,o),
(1060,840,cs),
(1060,1113,o),
(845,1219,o),
(608,1219,cs),
(349,1219,l),
(349,1448,l),
(239,1448,l),
(239,0,l)
);
},
{
closed = 1;
nodes = (
(349,569,l),
(349,1116,l),
(623,1116,ls),
(789,1116,o),
(951,1043,o),
(951,843,cs),
(951,635,o),
(789,569,o),
(623,569,cs)
);
}
);
width = 1179;
}
);
leftKerningGroup = B;
unicode = 222;
},
{
glyphname = germandbls;
layers = (
{
layerId = "52CC1650-7CEF-4847-8280-03AE9FE593CD";
shapes = (
{
closed = 1;
nodes = (
(141,0,l),
(424,0,l),
(424,994,ls),
(424,1131,o),
(502,1225,o),
(612,1225,cs),
(710,1225,o),
(768,1169,o),
(768,1100,cs),
(768,1027,o),
(720,960,o),
(671,929,cs),
(609,890,o),
(565,813,o),
(565,764,cs),
(565,662,o),
(613,572,o),
(722,516,c),
(807,474,o),
(858,407,o),
(858,337,cs),
(858,271,o),
(818,236,o),
(738,236,cs),
(708,236,o),
(682,240,o),
(658,246,c),
(564,7,l),
(624,-10,o),
(687,-18,o),
(748,-18,cs),
(1013,-18,o),
(1181,116,o),
(1181,326,cs),
(1181,476,o),
(1135,571,o),
(1027,640,cs),
(970,678,o),
(914,728,o),
(914,764,cs),
(914,796,o),
(936,835,o),
(963,854,cs),
(1031,902,o),
(1065,985,o),
(1065,1104,cs),
(1065,1306,o),
(862,1468,o),
(608,1468,cs),
(322,1468,o),
(141,1287,o),
(141,1023,cs)
);
}
);
width = 1216;
},
{
layerId = "42E87D12-3AB5-40D6-8370-BF79EAF40F29";
shapes = (
{
closed = 1;
nodes = (
(179,0,l),
(343,0,l),
(343,1018,ls),
(343,1198,o),
(418,1320,o),
(632,1320,cs),
(772,1320,o),
(855,1257,o),
(855,1153,cs),
(855,1076,o),
(807,1015,o),
(743,970,cs),
(677,925,o),
(633,871,o),
(633,789,cs),
(633,672,o),
(700,594,o),
(789,532,cs),
(884,468,o),
(946,403,o),
(946,303,cs),
(946,212,o),
(847,143,o),
(755,143,cs),
(685,143,o),
(619,162,o),
(557,195,c),
(490,44,l),
(577,5,o),
(663,-18,o),
(755,-18,cs),
(955,-18,o),
(1114,119,o),
(1114,316,cs),
(1114,463,o),
(1024,551,o),
(912,627,cs),
(837,677,o),
(796,722,o),
(796,785,cs),
(796,842,o),
(832,873,o),
(888,910,cs),
(960,958,o),
(1026,1032,o),
(1026,1138,cs),
(1026,1338,o),
(868,1468,o),
(625,1468,cs),
(325,1468,o),
(179,1282,o),
(179,1004,cs)
);
}
);
width = 1223;
},
{
layerId = "1C230A88-1131-4497-B97C-4D293C298785";
shapes = (
{
closed = 1;
nodes = (
(198,0,l),
(290,0,l),
(290,995,ls),
(290,1213,o),
(363,1375,o),
(642,1375,cs),
(802,1375,o),
(889,1310,o),
(889,1191,cs),
(889,1096,o),
(826,1011,o),
(764,966,cs),
(710,925,o),
(669,867,o),
(669,796,cs),
(669,683,o),
(720,604,o),
(812,551,cs),
(916,492,o),
(990,412,o),
(990,284,cs),
(990,170,o),
(850,88,o),
(755,88,cs),
(660,88,o),
(571,118,o),
(489,165,c),
(439,65,l),
(539,15,o),
(639,-18,o),
(753,-18,cs),
(931,-18,o),
(1087,111,o),
(1087,305,cs),
(1087,465,o),
(976,545,o),
(902,594,cs),
(826,644,o),
(758,708,o),
(758,796,cs),
(758,886,o),
(818,924,o),
(874,961,cs),
(926,996,o),
(996,1072,o),
(996,1178,cs),
(996,1353,o),
(855,1468,o),
(642,1468,cs),
(302,1468,o),
(198,1268,o),
(198,970,cs)
);
}
);
width = 1223;
}
);
unicode = 223;
},
{
glyphname = ae;
layers = (
{
layerId = "52CC1650-7CEF-4847-8280-03AE9FE593CD";
shapes = (
{
closed = 1;
nodes = (
(594,-20,o),
(819,80,o),
(909,202,c),
(776,202,l),
(830,85,o),
(1014,-12,o),
(1180,-12,cs),
(1367,-12,o),
(1502,44,o),
(1614,172,c),
(1412,345,l),
(1349,279,o),
(1295,259,o),
(1178,259,cs),
(1054,259,o),
(977,311,o),
(952,415,c),
(1644,415,l),
(1644,413,o),
(1657,451,o),
(1657,506,cs),
(1657,850,o),
(1464,1084,o),
(1188,1084,cs),
(1067,1084,o),
(957,1034,o),
(856,928,c),
(777,1030,o),
(655,1084,o),
(515,1084,cs),
(325,1084,o),
(188,1015,o),
(80,863,c),
(280,720,l),
(331,791,o),
(422,838,o),
(507,838,cs),
(637,838,o),
(713,756,o),
(713,615,c),
(453,615,ls),
(182,615,o),
(33,506,o),
(33,305,cs),
(33,134,o),
(210,-20,o),
(407,-20,cs)
);
},
{
closed = 1;
nodes = (
(955,615,l),
(956,735,o),
(1051,838,o),
(1160,838,cs),
(1279,838,o),
(1372,743,o),
(1374,615,c)
);
},
{
closed = 1;
nodes = (
(346,213,o),
(297,242,o),
(297,309,cs),
(297,373,o),
(364,415,o),
(469,415,cs),
(712,415,l),
(689,311,o),
(566,213,o),
(457,213,cs)
);
}
);
width = 1708;
},
{
layerId = "42E87D12-3AB5-40D6-8370-BF79EAF40F29";
shapes = (
{
closed = 1;
nodes = (
(637,-20,o),
(799,88,o),
(870,281,c),
(832,282,l),
(891,88,o),
(1030,-12,o),
(1241,-12,cs),
(1414,-12,o),
(1538,37,o),
(1648,148,c),
(1535,247,l),
(1463,169,o),
(1375,137,o),
(1239,137,cs),
(1055,137,o),
(943,264,o),
(937,478,c),
(1672,478,l),
(1674,487,o),
(1677,505,o),
(1677,527,cs),
(1677,893,o),
(1527,1084,o),
(1228,1084,cs),
(1083,1084,o),
(963,1014,o),
(877,883,c),
(822,1005,o),
(687,1084,o),
(529,1084,cs),
(351,1084,o),
(223,1018,o),
(119,882,c),
(242,791,l),
(305,886,o),
(412,947,o),
(521,947,cs),
(699,947,o),
(789,833,o),
(789,609,c),
(465,609,ls),
(212,609,o),
(76,498,o),
(76,293,cs),
(76,115,o),
(223,-20,o),
(417,-20,cs)
);
},
{
closed = 1;
nodes = (
(938,610,l),
(943,809,o),
(1057,951,o),
(1222,951,cs),
(1399,951,o),
(1509,818,o),
(1515,610,c)
);
},
{
closed = 1;
nodes = (
(339,118,o),
(242,196,o),
(242,288,cs),
(242,404,o),
(330,478,o),
(466,478,cs),
(791,478,l),
(757,245,o),
(638,118,o),
(456,118,cs)
);
}
);
width = 1755;
},
{
layerId = "1C230A88-1131-4497-B97C-4D293C298785";
shapes = (
{
closed = 1;
nodes = (
(664,-20,o),
(832,126,o),
(868,371,c),
(828,371,l),
(870,121,o),
(1019,-12,o),
(1252,-12,cs),
(1414,-12,o),
(1525,31,o),
(1631,135,c),
(1573,182,l),
(1496,101,o),
(1398,66,o),
(1250,66,cs),
(1034,66,o),
(903,238,o),
(910,506,c),
(1649,506,l),
(1650,515,o),
(1650,509,o),
(1650,525,cs),
(1650,908,o),
(1521,1084,o),
(1226,1084,cs),
(1077,1084,o),
(961,1010,o),
(875,858,c),
(833,991,o),
(691,1084,o),
(531,1084,cs),
(361,1084,o),
(243,1024,o),
(143,893,c),
(223,846,l),
(291,946,o),
(408,1011,o),
(525,1011,cs),
(718,1011,o),
(825,859,o),
(825,586,c),
(468,586,ls),
(231,586,o),
(103,483,o),
(103,279,cs),
(103,111,o),
(242,-20,o),
(419,-20,cs)
);
},
{
closed = 1;
nodes = (
(909,586,l),
(903,822,o),
(1044,1015,o),
(1233,1015,cs),
(1439,1015,o),
(1573,835,o),
(1566,586,c)
);
},
{
closed = 1;
nodes = (
(337,63,o),
(191,167,o),
(191,269,cs),
(191,413,o),
(286,506,o),
(439,506,cs),
(829,506,l),
(783,202,o),
(672,63,o),
(459,63,cs)
);
}
);
width = 1748;
}
);
leftKerningGroup = a;
rightKerningGroup = ae1;
unicode = 230;
},
{
color = (153, 254, 255, 255);
glyphname = ccedilla;
layers = (
{
layerId = "52CC1650-7CEF-4847-8280-03AE9FE593CD";
shapes = (
{
closed = 1;
nodes = (
(278,-398,l),
(320,-485,o),
(414,-543,o),
(510,-543,cs),
(658,-543,o),
(752,-449,o),
(752,-304,cs),
(752,-203,o),
(680,-118,o),
(573,-96,c),
(628,-14,l),
(800,13,o),
(939,127,o),
(999,293,c),
(738,389,l),
(713,304,o),
(646,255,o),
(555,255,cs),
(428,255,o),
(337,352,o),
(337,530,cs),
(337,704,o),
(431,808,o),
(555,808,cs),
(650,808,o),
(715,759,o),
(738,673,c),
(1010,776,l),
(925,972,o),
(757,1084,o),
(554,1084,cs),
(248,1084,o),
(44,870,o),
(44,529,cs),
(44,218,o),
(218,17,o),
(470,-16,c),
(384,-184,l),
(411,-206,l),
(497,-206,ls),
(566,-206,o),
(592,-251,o),
(592,-300,cs),
(592,-353,o),
(559,-385,o),
(516,-385,cs),
(482,-385,o),
(448,-365,o),
(427,-331,c)
);
}
);
width = 1033;
},
{
layerId = "42E87D12-3AB5-40D6-8370-BF79EAF40F29";
shapes = (
{
closed = 1;
nodes = (
(311,-393,l),
(340,-467,o),
(417,-520,o),
(508,-520,cs),
(630,-520,o),
(717,-432,o),
(717,-305,cs),
(717,-193,o),
(639,-129,o),
(529,-120,c),
(584,-19,l),
(763,-11,o),
(897,88,o),
(961,261,c),
(811,325,l),
(776,209,o),
(675,129,o),
(553,129,cs),
(329,129,o),
(260,341,o),
(260,530,cs),
(260,718,o),
(335,933,o),
(553,933,cs),
(672,933,o),
(778,855,o),
(811,738,c),
(973,807,l),
(896,979,o),
(745,1084,o),
(556,1084,cs),
(248,1084,o),
(90,811,o),
(90,529,cs),
(90,278,o),
(211,35,o),
(466,-12,c),
(381,-171,l),
(396,-192,l),
(450,-192,ls),
(533,-192,o),
(603,-236,o),
(603,-313,cs),
(603,-369,o),
(566,-412,o),
(516,-412,cs),
(465,-412,o),
(426,-382,o),
(415,-346,c)
);
}
);
width = 1026;
},
{
layerId = "1C230A88-1131-4497-B97C-4D293C298785";
shapes = (
{
closed = 1;
nodes = (
(320,-386,l),
(343,-454,o),
(419,-507,o),
(512,-507,cs),
(626,-507,o),
(698,-428,o),
(698,-307,cs),
(698,-187,o),
(615,-135,o),
(505,-135,c),
(565,-21,l),
(739,-18,o),
(860,74,o),
(923,238,c),
(845,279,l),
(804,150,o),
(685,57,o),
(549,57,cs),
(292,57,o),
(220,318,o),
(220,530,cs),
(220,738,o),
(298,1005,o),
(549,1005,cs),
(683,1005,o),
(811,908,o),
(845,784,c),
(936,828,l),
(865,985,o),
(726,1084,o),
(552,1084,cs),
(250,1084,o),
(123,787,o),
(123,529,cs),
(123,282,o),
(247,35,o),
(485,-12,c),
(404,-164,l),
(426,-185,l),
(476,-185,ls),
(571,-185,o),
(613,-243,o),
(613,-315,cs),
(613,-378,o),
(573,-427,o),
(522,-427,cs),
(455,-427,o),
(407,-392,o),
(396,-349,c)
);
}
);
width = 1013;
}
);
leftKerningGroup = a;
rightKerningGroup = c1;
unicode = 231;
},
{
glyphname = eth;
layers = (
{
layerId = "52CC1650-7CEF-4847-8280-03AE9FE593CD";
shapes = (
{
closed = 1;
nodes = (
(996,-16,o),
(1132,258,o),
(1132,597,cs),
(1132,991,o),
(974,1253,o),
(653,1433,c),
(721,1532,l),
(610,1597,l),
(540,1494,l),
(496,1518,o),
(449,1534,o),
(401,1551,c),
(276,1322,l),
(319,1314,o),
(359,1305,o),
(401,1289,c),
(338,1196,l),
(446,1125,l),
(522,1239,l),
(664,1172,o),
(747,1093,o),
(803,960,c),
(719,1019,o),
(645,1034,o),
(549,1034,cs),
(234,1034,o),
(43,786,o),
(43,523,cs),
(43,190,o),
(291,-16,o),
(604,-16,cs)
);
},
{
closed = 1;
nodes = (
(425,248,o),
(328,370,o),
(328,523,cs),
(328,670,o),
(423,799,o),
(586,799,cs),
(751,799,o),
(847,681,o),
(847,525,cs),
(847,375,o),
(756,248,o),
(586,248,cs)
);
}
);
width = 1209;
},
{
layerId = "42E87D12-3AB5-40D6-8370-BF79EAF40F29";
shapes = (
{
closed = 1;
nodes = (
(923,-16,o),
(1104,240,o),
(1104,545,cs),
(1104,924,o),
(996,1220,o),
(667,1431,c),
(731,1517,l),
(632,1571,l),
(564,1482,l),
(507,1510,o),
(447,1532,o),
(388,1554,c),
(303,1435,l),
(363,1414,o),
(420,1390,o),
(476,1366,c),
(385,1247,l),
(481,1191,l),
(577,1315,l),
(710,1237,o),
(824,1133,o),
(861,990,c),
(790,1058,o),
(675,1085,o),
(574,1085,cs),
(270,1085,o),
(88,840,o),
(88,549,cs),
(88,254,o),
(267,-16,o),
(599,-16,cs)
);
},
{
closed = 1;
nodes = (
(366,140,o),
(268,343,o),
(268,549,cs),
(268,751,o),
(366,951,o),
(593,951,cs),
(825,951,o),
(924,756,o),
(924,550,cs),
(924,349,o),
(827,140,o),
(600,140,cs)
);
}
);
width = 1211;
},
{
layerId = "1C230A88-1131-4497-B97C-4D293C298785";
shapes = (
{
closed = 1;
nodes = (
(876,-16,o),
(1074,238,o),
(1074,511,cs),
(1074,888,o),
(990,1195,o),
(665,1421,c),
(729,1504,l),
(639,1556,l),
(575,1471,l),
(510,1503,o),
(445,1526,o),
(380,1552,c),
(322,1488,l),
(387,1461,o),
(453,1430,o),
(520,1396,c),
(415,1256,l),
(500,1206,l),
(605,1342,l),
(727,1256,o),
(856,1142,o),
(884,976,c),
(811,1056,o),
(677,1085,o),
(583,1085,cs),
(281,1085,o),
(118,826,o),
(118,549,cs),
(118,257,o),
(290,-16,o),
(592,-16,cs)
);
},
{
closed = 1;
nodes = (
(336,77,o),
(237,318,o),
(237,549,cs),
(237,770,o),
(332,1008,o),
(591,1008,cs),
(853,1008,o),
(957,780,o),
(957,550,cs),
(957,332,o),
(860,77,o),
(604,77,cs)
);
}
);
width = 1204;
}
);
leftKerningGroup = a;
unicode = 240;
},
{
glyphname = divide;
layers = (
{
layerId = "52CC1650-7CEF-4847-8280-03AE9FE593CD";
shapes = (
{
closed = 1;
nodes = (
(862,825,l),
(862,1124,l),
(561,1124,l),
(561,825,l)
);
},
{
closed = 1;
nodes = (
(1354,536,l),
(1354,753,l),
(70,753,l),
(70,536,l)
);
},
{
closed = 1;
nodes = (
(862,146,l),
(862,447,l),
(561,447,l),
(561,146,l)
);
}
);
width = 1420;
},
{
layerId = "42E87D12-3AB5-40D6-8370-BF79EAF40F29";
shapes = (
{
closed = 1;
nodes = (
(592,915,l),
(592,1122,l),
(383,1122,l),
(383,915,l)
);
},
{
closed = 1;
nodes = (
(874,581,l),
(874,706,l),
(101,706,l),
(101,581,l)
);
},
{
closed = 1;
nodes = (
(592,145,l),
(592,352,l),
(383,352,l),
(383,145,l)
);
}
);
width = 982;
},
{
layerId = "1C230A88-1131-4497-B97C-4D293C298785";
shapes = (
{
closed = 1;
nodes = (
(495,968,l),
(495,1120,l),
(339,1120,l),
(339,968,l)
);
},
{
closed = 1;
nodes = (
(655,607,l),
(655,677,l),
(179,677,l),
(179,607,l)
);
},
{
closed = 1;
nodes = (
(495,145,l),
(495,297,l),
(339,297,l),
(339,145,l)
);
}
);
width = 849;
}
);
unicode = 247;
},
{
glyphname = oslash;
layers = (
{
layerId = "52CC1650-7CEF-4847-8280-03AE9FE593CD";
shapes = (
{
closed = 1;
nodes = (
(907,-20,o),
(1112,195,o),
(1112,523,cs),
(1112,716,o),
(1033,890,o),
(905,980,c),
(963,1071,l),
(815,1071,l),
(797,1042,l),
(726,1072,o),
(652,1084,o),
(555,1084,cs),
(244,1084,o),
(38,865,o),
(38,534,cs),
(38,354,o),
(116,182,o),
(239,88,c),
(184,-2,l),
(332,-2,l),
(347,26,l),
(422,-7,o),
(496,-20,o),
(595,-20,cs)
);
},
{
closed = 1;
nodes = (
(381,318,l),
(352,362,o),
(333,450,o),
(333,534,cs),
(333,711,o),
(433,837,o),
(575,837,cs),
(611,837,o),
(640,832,o),
(665,824,c)
);
},
{
closed = 1;
nodes = (
(542,225,o),
(511,231,o),
(479,242,c),
(765,750,l),
(796,700,o),
(817,613,o),
(817,534,cs),
(817,344,o),
(725,225,o),
(575,225,cs)
);
}
);
width = 1154;
},
{
layerId = "42E87D12-3AB5-40D6-8370-BF79EAF40F29";
shapes = (
{
closed = 1;
nodes = (
(843,-20,o),
(1045,212,o),
(1045,529,cs),
(1045,717,o),
(973,889,o),
(852,986,c),
(900,1070,l),
(796,1070,l),
(775,1032,l),
(711,1068,o),
(639,1084,o),
(555,1084,cs),
(280,1084,o),
(79,851,o),
(79,530,cs),
(79,349,o),
(148,183,o),
(268,80,c),
(222,0,l),
(324,0,l),
(341,33,l),
(409,-3,o),
(481,-20,o),
(569,-20,cs)
);
},
{
closed = 1;
nodes = (
(350,228,l),
(293,294,o),
(261,401,o),
(261,532,cs),
(261,766,o),
(385,931,o),
(562,931,cs),
(613,931,o),
(659,919,o),
(700,896,c)
);
},
{
closed = 1;
nodes = (
(510,131,o),
(462,145,o),
(419,171,c),
(769,842,l),
(829,767,o),
(863,658,o),
(863,532,cs),
(863,292,o),
(743,131,o),
(562,131,cs)
);
}
);
width = 1119;
},
{
layerId = "1C230A88-1131-4497-B97C-4D293C298785";
shapes = (
{
closed = 1;
nodes = (
(800,-20,o),
(1000,224,o),
(1000,533,cs),
(1000,718,o),
(933,888,o),
(816,990,c),
(858,1070,l),
(783,1070,l),
(761,1026,l),
(701,1065,o),
(630,1084,o),
(555,1084,cs),
(304,1084,o),
(106,841,o),
(106,528,cs),
(106,345,o),
(170,184,o),
(287,75,c),
(247,2,l),
(318,2,l),
(337,38,l),
(400,-1,o),
(471,-20,o),
(551,-20,cs)
);
},
{
closed = 1;
nodes = (
(330,168,l),
(253,249,o),
(213,369,o),
(213,531,cs),
(213,803,o),
(353,993,o),
(553,993,cs),
(614,993,o),
(672,977,o),
(723,944,c)
);
},
{
closed = 1;
nodes = (
(489,68,o),
(429,87,o),
(379,123,c),
(772,903,l),
(851,811,o),
(893,688,o),
(893,531,cs),
(893,257,o),
(755,68,o),
(553,68,cs)
);
}
);
width = 1096;
}
);
leftKerningGroup = a;
rightKerningGroup = oslash1;
unicode = 248;
},
{
glyphname = thorn;
layers = (
{
layerId = "52CC1650-7CEF-4847-8280-03AE9FE593CD";
shapes = (
{
closed = 1;
nodes = (
(405,-449,l),
(405,62,l),
(475,6,o),
(564,-20,o),
(682,-20,cs),
(957,-20,o),
(1143,199,o),
(1143,523,cs),
(1143,863,o),
(961,1084,o),
(680,1084,cs),
(564,1084,o),
(481,1060,o),
(405,1002,c),
(405,1448,l),
(138,1448,l),
(138,-449,l)
);
},
{
closed = 1;
nodes = (
(483,223,o),
(388,346,o),
(388,535,cs),
(388,718,o),
(483,837,o),
(629,837,cs),
(778,837,o),
(882,712,o),
(882,535,cs),
(882,357,o),
(773,223,o),
(629,223,cs)
);
}
);
width = 1183;
},
{
layerId = "42E87D12-3AB5-40D6-8370-BF79EAF40F29";
shapes = (
{
closed = 1;
nodes = (
(351,-450,l),
(351,140,l),
(428,32,o),
(536,-20,o),
(680,-20,cs),
(932,-20,o),
(1106,205,o),
(1106,531,cs),
(1106,858,o),
(932,1085,o),
(682,1085,cs),
(536,1085,o),
(429,1034,o),
(351,925,c),
(351,1448,l),
(180,1448,l),
(180,-450,l)
);
},
{
closed = 1;
nodes = (
(455,129,o),
(335,287,o),
(335,532,cs),
(335,773,o),
(455,934,o),
(636,934,cs),
(822,934,o),
(940,778,o),
(940,532,cs),
(940,285,o),
(824,129,o),
(639,129,cs)
);
}
);
width = 1193;
},
{
layerId = "1C230A88-1131-4497-B97C-4D293C298785";
shapes = (
{
closed = 1;
nodes = (
(317,-450,l),
(317,187,l),
(397,47,o),
(511,-20,o),
(678,-20,cs),
(913,-20,o),
(1076,205,o),
(1076,531,cs),
(1076,856,o),
(913,1085,o),
(684,1085,cs),
(511,1085,o),
(395,1020,o),
(317,877,c),
(317,1448,l),
(201,1448,l),
(201,-450,l)
);
},
{
closed = 1;
nodes = (
(436,72,o),
(301,257,o),
(301,532,cs),
(301,801,o),
(438,991,o),
(630,991,cs),
(832,991,o),
(966,808,o),
(966,532,cs),
(966,254,o),
(837,72,o),
(637,72,cs)
);
}
);
width = 1189;
}
);
unicode = 254;
},
{
glyphname = dcaron;
layers = (
{
layerId = "52CC1650-7CEF-4847-8280-03AE9FE593CD";
shapes = (
{
closed = 1;
nodes = (
(1341,947,l),
(1580,1447,l),
(1303,1447,l),
(1182,947,l)
);
},
{
closed = 1;
nodes = (
(629,-20,o),
(735,26,o),
(790,103,c),
(804,0,l),
(1069,0,l),
(1069,1448,l),
(776,1448,l),
(776,975,l),
(717,1046,o),
(619,1084,o),
(489,1084,cs),
(245,1084,o),
(51,871,o),
(51,546,cs),
(51,193,o),
(242,-20,o),
(503,-20,cs)
);
},
{
closed = 1;
nodes = (
(432,246,o),
(342,348,o),
(342,532,cs),
(342,718,o),
(441,824,o),
(572,824,cs),
(705,824,o),
(801,720,o),
(801,532,cs),
(801,351,o),
(709,246,o),
(572,246,cs)
);
}
);
width = 1335;
},
{
layerId = "42E87D12-3AB5-40D6-8370-BF79EAF40F29";
shapes = (
{
closed = 1;
nodes = (
(1250,1075,l),
(1473,1447,l),
(1243,1447,l),
(1132,1075,l)
);
},
{
closed = 1;
nodes = (
(658,-20,o),
(766,26,o),
(848,144,c),
(853,0,l),
(1011,0,l),
(1011,1448,l),
(846,1448,l),
(846,925,l),
(767,1035,o),
(652,1084,o),
(519,1084,cs),
(219,1084,o),
(93,793,o),
(93,531,cs),
(93,273,o),
(217,-20,o),
(516,-20,cs)
);
},
{
closed = 1;
nodes = (
(338,129,o),
(260,335,o),
(260,532,cs),
(260,723,o),
(338,934,o),
(561,934,cs),
(786,934,o),
(860,724,o),
(860,532,cs),
(860,335,o),
(783,129,o),
(561,129,cs)
);
}
);
width = 1265;
},
{
layerId = "1C230A88-1131-4497-B97C-4D293C298785";
shapes = (
{
closed = 1;
nodes = (
(1161,1121,l),
(1369,1447,l),
(1205,1447,l),
(1102,1121,l)
);
},
{
closed = 1;
nodes = (
(691,-20,o),
(796,32,o),
(886,168,c),
(883,0,l),
(980,0,l),
(980,1448,l),
(889,1448,l),
(889,894,l),
(805,1024,o),
(690,1084,o),
(538,1084,cs),
(240,1084,o),
(131,780,o),
(131,531,cs),
(131,288,o),
(240,-20,o),
(529,-20,cs)
);
},
{
closed = 1;
nodes = (
(301,61,o),
(226,325,o),
(226,532,cs),
(226,743,o),
(311,998,o),
(561,998,cs),
(816,998,o),
(898,744,o),
(898,532,cs),
(898,327,o),
(821,61,o),
(561,61,cs)
);
}
);
width = 1228;
}
);
leftKerningGroup = a;
unicode = 271;
},
{
glyphname = dcroat;
layers = (
{
layerId = "52CC1650-7CEF-4847-8280-03AE9FE593CD";
shapes = (
{
closed = 1;
nodes = (
(533,1340,l),
(533,1154,l),
(1179,1154,l),
(1179,1340,l)
);
},
{
closed = 1;
nodes = (
(629,-20,o),
(735,26,o),
(790,103,c),
(804,0,l),
(1069,0,l),
(1069,1448,l),
(776,1448,l),
(776,975,l),
(717,1046,o),
(619,1084,o),
(489,1084,cs),
(245,1084,o),
(51,871,o),
(51,546,cs),
(51,193,o),
(242,-20,o),
(503,-20,cs)
);
},
{
closed = 1;
nodes = (
(432,246,o),
(342,348,o),
(342,532,cs),
(342,718,o),
(441,824,o),
(572,824,cs),
(705,824,o),
(801,720,o),
(801,532,cs),
(801,351,o),
(709,246,o),
(572,246,cs)
);
}
);
width = 1209;
},
{
layerId = "42E87D12-3AB5-40D6-8370-BF79EAF40F29";
shapes = (
{
closed = 1;
nodes = (
(540,1329,l),
(540,1205,l),
(1207,1205,l),
(1207,1329,l)
);
},
{
closed = 1;
nodes = (
(662,-20,o),
(769,26,o),
(852,144,c),
(856,0,l),
(1014,0,l),
(1014,1448,l),
(849,1448,l),
(849,925,l),
(770,1035,o),
(656,1084,o),
(523,1084,cs),
(222,1084,o),
(96,793,o),
(96,531,cs),
(96,273,o),
(221,-20,o),
(519,-20,cs)
);
},
{
closed = 1;
nodes = (
(341,129,o),
(264,335,o),
(264,532,cs),
(264,723,o),
(341,934,o),
(564,934,cs),
(789,934,o),
(864,724,o),
(864,532,cs),
(864,335,o),
(787,129,o),
(564,129,cs)
);
}
);
width = 1189;
},
{
layerId = "1C230A88-1131-4497-B97C-4D293C298785";
shapes = (
{
closed = 1;
nodes = (
(544,1310,l),
(544,1220,l),
(1213,1220,l),
(1213,1310,l)
);
},
{
closed = 1;
nodes = (
(688,-20,o),
(792,32,o),
(882,168,c),
(879,0,l),
(976,0,l),
(976,1448,l),
(885,1448,l),
(885,894,l),
(802,1024,o),
(686,1084,o),
(534,1084,cs),
(237,1084,o),
(128,780,o),
(128,531,cs),
(128,288,o),
(236,-20,o),
(525,-20,cs)
);
},
{
closed = 1;
nodes = (
(297,61,o),
(222,325,o),
(222,532,cs),
(222,743,o),
(307,998,o),
(557,998,cs),
(812,998,o),
(894,744,o),
(894,532,cs),
(894,327,o),
(817,61,o),
(557,61,cs)
);
}
);
width = 1175;
}
);
leftKerningGroup = a;
unicode = 273;
},
